<?xml version="1.0" standalone="no"?>
<!DOCTYPE svg PUBLIC "-//W3C//DTD SVG 20010904//EN"
 "http://www.w3.org/TR/2001/REC-SVG-20010904/DTD/svg10.dtd">
<svg version="1.0" xmlns="http://www.w3.org/2000/svg"
 width="596.000000pt" height="596.000000pt" viewBox="0 0 596.000000 596.000000"
 preserveAspectRatio="xMidYMid meet">

<g transform="translate(0.000000,596.000000) scale(0.100000,-0.100000)"
fill="#000000" stroke="none">
<path d="M2880 5662 c-84 -38 -147 -117 -168 -212 -7 -30 -21 -73 -31 -95 -38
-83 -42 -117 -27 -223 9 -63 26 -75 99 -70 44 3 52 0 62 -18 6 -12 17 -29 24
-38 12 -14 11 -21 -2 -49 -8 -17 -21 -46 -27 -64 -16 -42 -43 -66 -77 -65 -33
0 -67 -19 -105 -59 -15 -17 -37 -29 -51 -29 -13 0 -52 -14 -87 -32 -50 -26
-66 -41 -85 -78 -12 -25 -25 -61 -29 -81 -4 -21 -13 -43 -22 -50 -23 -19 -90
-140 -97 -174 -6 -33 -34 -97 -71 -160 -99 -174 -121 -236 -107 -309 10 -54
38 -98 116 -179 30 -33 55 -65 55 -73 0 -14 -99 -64 -125 -64 -7 0 -19 -7 -26
-16 -7 -9 -24 -20 -38 -25 -13 -6 -46 -24 -73 -41 -59 -38 -63 -67 -17 -124
17 -21 46 -71 65 -111 19 -40 40 -76 46 -79 6 -4 35 6 64 22 52 28 54 29 86
12 51 -27 79 -30 131 -14 58 17 64 10 43 -52 -9 -24 -18 -66 -22 -95 -3 -29
-15 -82 -25 -118 -23 -79 -23 -96 -5 -115 30 -29 66 -9 66 38 0 38 30 110 44
105 7 -2 11 -40 10 -113 -1 -93 -4 -110 -19 -119 -60 -34 -75 -85 -55 -190 15
-83 15 -85 25 -290 6 -127 11 -168 26 -197 16 -32 17 -44 8 -88 -6 -28 -9 -87
-6 -132 3 -44 1 -92 -4 -106 -15 -40 -20 -78 -27 -222 -6 -117 -10 -141 -31
-177 -23 -41 -24 -45 -13 -123 7 -45 20 -98 29 -118 26 -54 23 -213 -4 -273
-12 -24 -35 -77 -53 -118 -24 -54 -50 -91 -101 -143 -52 -54 -69 -79 -74 -108
-10 -60 6 -80 65 -80 68 0 137 16 190 45 25 14 57 30 71 35 14 6 31 22 37 35
7 14 15 25 19 26 33 3 89 24 97 37 7 12 8 114 1 182 -3 30 -6 66 -6 80 -1 45
21 191 32 212 6 11 11 35 11 53 0 20 9 42 24 58 13 14 24 32 24 38 0 7 7 20
16 30 22 24 20 86 -5 152 -5 14 -7 28 -4 31 3 3 1 11 -4 18 -7 9 -6 34 4 78 8
36 19 90 25 120 6 30 16 69 23 85 13 29 22 70 29 130 2 17 7 38 11 47 4 9 4
21 1 26 -3 6 1 13 9 16 13 5 14 10 4 27 -8 16 -8 23 1 29 6 4 13 25 14 47 2
22 10 51 19 64 15 25 26 73 33 144 6 68 12 103 18 113 3 5 8 56 10 114 4 65
12 116 21 134 8 16 15 43 15 59 0 34 60 161 74 158 15 -3 42 -90 56 -178 6
-44 15 -84 20 -90 4 -5 13 -45 20 -89 6 -43 21 -104 32 -135 11 -31 22 -68 25
-83 3 -15 11 -33 19 -39 8 -6 14 -19 14 -28 0 -9 7 -35 15 -59 10 -29 13 -60
9 -90 -4 -38 -1 -58 20 -102 18 -39 24 -65 20 -90 -3 -22 3 -59 15 -99 12 -35
21 -89 21 -119 0 -43 6 -64 25 -92 l25 -37 -13 -161 c-7 -89 -9 -168 -5 -175
4 -8 25 -32 48 -54 37 -37 40 -45 40 -95 0 -32 6 -62 15 -76 12 -16 14 -34 9
-74 -4 -29 -11 -58 -16 -65 -5 -7 -9 -54 -9 -105 1 -132 20 -188 65 -188 12 0
35 -15 51 -33 60 -64 68 -67 207 -67 115 0 130 2 148 20 11 11 20 26 20 33 0
29 -53 118 -91 151 -21 20 -39 40 -39 45 0 6 -8 16 -17 23 -29 21 -63 97 -63
138 0 20 -7 77 -15 125 -9 48 -14 97 -12 108 4 25 45 97 55 97 15 0 16 224 2
250 -5 10 -10 26 -10 35 0 8 -12 34 -26 56 -26 41 -38 105 -47 249 -3 30 -10
69 -16 85 -7 17 -15 75 -17 130 -6 129 -6 148 4 154 24 16 34 143 12 156 -4 3
-5 20 -1 37 8 33 7 44 -5 106 -4 20 -2 38 6 47 9 10 9 15 1 15 -7 0 -11 20
-11 50 0 28 4 50 8 50 9 0 15 50 16 139 0 62 -1 65 -40 100 l-40 36 2 104 c1
75 -2 116 -14 148 -22 58 -10 76 54 84 138 17 164 53 143 201 -6 48 -9 94 -6
102 3 8 -1 22 -9 31 -8 8 -13 19 -10 24 3 5 -1 22 -9 37 -8 16 -15 34 -15 41
0 7 -9 17 -20 23 -11 6 -20 8 -20 4 0 -3 -7 -1 -15 6 -24 20 -7 30 38 24 36
-5 45 -2 63 18 44 50 94 150 100 201 4 29 9 56 11 60 3 5 -9 21 -25 36 -19 16
-30 34 -28 46 2 11 -2 27 -9 35 -21 25 -27 83 -11 105 7 11 39 38 69 60 73 53
80 68 56 135 -10 29 -16 63 -13 74 6 23 104 91 146 101 15 4 30 16 33 26 4 10
12 19 20 19 18 0 55 48 55 71 0 30 146 119 197 119 15 0 48 14 73 31 25 16 62
39 83 50 39 20 46 43 27 80 -15 26 -50 24 -94 -6 -21 -14 -55 -34 -77 -46 -22
-11 -44 -30 -49 -43 -8 -22 -37 -43 -130 -94 -44 -24 -44 -24 -61 -4 -8 11
-24 45 -33 76 -18 57 -38 71 -54 39 -8 -16 -23 -120 -26 -178 -1 -12 -21 -30
-59 -51 -91 -52 -265 -127 -276 -119 -6 3 -11 25 -11 47 0 23 -11 64 -23 92
-13 28 -31 68 -40 88 -12 28 -30 45 -69 65 -29 16 -70 45 -91 66 -41 42 -109
71 -146 62 -31 -8 -71 19 -71 48 0 13 -15 38 -34 56 -28 27 -37 31 -54 22 -26
-14 -32 -6 -25 37 9 50 24 62 78 62 34 0 47 4 52 18 4 9 18 25 31 36 13 10 21
24 18 32 -3 7 -2 15 2 18 12 7 14 74 2 81 -8 5 -8 10 0 20 8 9 7 14 -4 18 -13
5 -20 33 -30 112 -7 50 -18 85 -27 85 -5 0 -9 10 -9 22 0 26 -74 100 -130 128
-32 16 -58 20 -137 19 -54 0 -105 -3 -113 -7z m1243 -1021 c3 -13 0 -18 -12
-16 -15 2 -17 7 -12 36 2 15 18 2 24 -20z m-209 -343 c7 -21 4 -33 -20 -66
-29 -41 -68 -67 -85 -57 -12 8 -12 52 1 60 6 3 10 13 10 21 0 17 61 75 75 70
6 -1 14 -14 19 -28z m-1354 -335 c7 -38 19 -76 27 -85 18 -20 11 -48 -11 -48
-9 0 -20 -9 -26 -20 -9 -17 -14 -18 -33 -7 -34 18 -87 69 -87 83 0 6 6 17 14
23 8 7 26 36 40 66 18 38 32 55 45 55 15 0 21 -12 31 -67z m980 -267 c4 -13
20 -33 35 -44 25 -20 26 -22 10 -46 -24 -36 -40 -38 -64 -6 -26 36 -30 120 -6
120 9 0 20 -11 25 -24z m-1070 -266 c26 -29 27 -33 16 -79 -12 -53 -39 -91
-66 -91 -10 0 -29 -9 -44 -21 -36 -28 -82 -22 -104 14 -15 24 -15 30 -2 51 27
44 140 156 157 156 9 0 28 -14 43 -30z"/>
</g>
</svg>
