<?xml version="1.0" encoding="UTF-8"?>
<!DOCTYPE svg PUBLIC "-//W3C//DTD SVG 1.1//EN" "http://www.w3.org/Graphics/SVG/1.1/DTD/svg11.dtd">
<svg xmlns="http://www.w3.org/2000/svg" version="1.1" width="360px" height="854px" style="shape-rendering:geometricPrecision; text-rendering:geometricPrecision; image-rendering:optimizeQuality; fill-rule:evenodd; clip-rule:evenodd" xmlns:xlink="http://www.w3.org/1999/xlink">
<g><path style="opacity:0.977" fill="#000000" d="M 154.5,-0.5 C 163.833,-0.5 173.167,-0.5 182.5,-0.5C 192.962,0.980039 202.129,5.31337 210,12.5C 212.957,19.1231 217.624,24.1231 224,27.5C 229.474,25.5689 233.474,27.2355 236,32.5C 238.298,43.7169 238.965,55.0502 238,66.5C 236.557,72.9403 232.89,77.607 227,80.5C 226.833,81.3333 226.667,82.1667 226.5,83C 228.402,87.1433 229.736,91.4766 230.5,96C 229.098,99.3774 227.098,102.377 224.5,105C 220.806,105.801 217.306,106.968 214,108.5C 213.624,111.975 212.291,114.975 210,117.5C 209.294,122.176 208.96,126.843 209,131.5C 210.393,134.366 212.726,135.699 216,135.5C 220.667,133.5 225.333,131.5 230,129.5C 237.432,131.566 244.932,133.4 252.5,135C 256.547,139.327 258.714,144.493 259,150.5C 266.239,156.317 272.573,162.984 278,170.5C 278.111,175.53 280.111,179.53 284,182.5C 287.701,212.554 296.035,241.22 309,268.5C 311.261,285.329 316.094,301.329 323.5,316.5C 321.759,324.76 320.426,333.093 319.5,341.5C 316.551,340.987 313.718,340.987 311,341.5C 306.761,347.312 303.594,353.645 301.5,360.5C 304.652,365.462 307.819,370.462 311,375.5C 316.23,381.726 321.73,387.56 327.5,393C 325.278,396.888 322.112,399.721 318,401.5C 314.093,398.457 310.259,395.291 306.5,392C 304.393,391.146 303.059,391.812 302.5,394C 303.773,397.482 305.607,400.649 308,403.5C 308.909,407.54 309.909,411.54 311,415.5C 322.858,430.537 335.191,445.204 348,459.5C 352.11,464.759 355.944,470.092 359.5,475.5C 359.5,477.167 359.5,478.833 359.5,480.5C 356.916,482.96 353.916,484.127 350.5,484C 334.285,462.443 317.285,441.443 299.5,421C 298.216,420.316 297.049,420.483 296,421.5C 293.303,426.871 289.803,431.704 285.5,436C 279.374,438.81 273.041,439.31 266.5,437.5C 266.134,442.705 266.967,447.705 269,452.5C 269.333,461.833 269.667,471.167 270,480.5C 273.989,486.564 274.489,492.897 271.5,499.5C 273.036,503.539 275.536,506.872 279,509.5C 278.382,517.762 280.048,525.429 284,532.5C 286.386,547.442 286.386,562.442 284,577.5C 281.766,580.749 278.766,582.749 275,583.5C 274.667,590.833 274.333,598.167 274,605.5C 269.725,608.783 268.391,613.116 270,618.5C 273.252,624.589 275.918,630.922 278,637.5C 279.557,649.178 281.224,660.844 283,672.5C 288.597,684.697 293.93,697.03 299,709.5C 299.667,714.833 299.667,720.167 299,725.5C 296.212,737 294.712,748.667 294.5,760.5C 290.67,759.889 286.837,759.223 283,758.5C 282.167,758.833 281.333,759.167 280.5,759.5C 278.646,766.127 279.646,772.294 283.5,778C 281.968,781.386 280.635,784.886 279.5,788.5C 281.411,793.982 283.578,799.315 286,804.5C 294.009,810.513 301.343,817.18 308,824.5C 312.306,831.904 313.639,839.904 312,848.5C 311.5,849 311,849.5 310.5,850C 304.742,851.253 299.075,852.42 293.5,853.5C 286.5,853.5 279.5,853.5 272.5,853.5C 263.794,847.97 255.794,841.47 248.5,834C 243.456,830.291 237.956,827.458 232,825.5C 233.471,809.242 233.805,792.908 233,776.5C 230.039,769.378 229.039,762.045 230,754.5C 227.847,750.346 224.514,747.68 220,746.5C 217.938,744.099 216.271,741.433 215,738.5C 214.817,726.256 213.984,714.089 212.5,702C 213.323,688.781 214.656,675.614 216.5,662.5C 215.153,651.202 214.153,639.868 213.5,628.5C 209.659,627.837 206.825,625.837 205,622.5C 202.476,606.569 199.976,590.736 197.5,575C 194.758,573.93 192.258,572.43 190,570.5C 180.176,559.519 173.509,546.853 170,532.5C 159.746,550.673 149.746,569.007 140,587.5C 137.77,591.962 136.103,596.628 135,601.5C 134.388,609.171 133.722,616.838 133,624.5C 127.885,630.284 123.552,636.618 120,643.5C 119.667,647.5 119.333,651.5 119,655.5C 115.722,667.206 112.889,679.039 110.5,691C 112.537,694.91 113.537,699.077 113.5,703.5C 113.067,712.029 111.567,720.363 109,728.5C 105.672,734.464 102.339,740.464 99,746.5C 93.5597,750.618 88.7264,755.285 84.5,760.5C 85.5,763.833 86.5,767.167 87.5,770.5C 86.1867,778.583 83.6867,786.249 80,793.5C 79.8266,804.546 78.8266,815.546 77,826.5C 72.2511,829.958 67.0845,832.458 61.5,834C 54.4378,841.621 45.9378,847.121 36,850.5C 24.7357,848.079 13.569,845.246 2.5,842C 1.30943,841.302 0.309426,840.469 -0.5,839.5C -0.5,838.5 -0.5,837.5 -0.5,836.5C 1.2883,829.643 3.7883,822.977 7,816.5C 11,813.833 15,811.167 19,808.5C 21.9504,803.882 25.2838,799.548 29,795.5C 33.7909,786.988 36.2909,777.821 36.5,768C 33.8862,759.909 28.2195,755.742 19.5,755.5C 19.3338,749.491 19.5005,743.491 20,737.5C 24.8872,734.063 29.5538,730.397 34,726.5C 37.1615,721.357 39.3282,715.857 40.5,710C 35.4562,697.892 35.2895,685.726 40,673.5C 43.4203,671.749 45.7536,669.082 47,665.5C 48.5827,654.336 50.916,643.336 54,632.5C 53.4907,621.205 55.6574,610.538 60.5,600.5C 58.6526,595.159 56.1526,590.159 53,585.5C 52.0806,581.13 51.0806,576.797 50,572.5C 49.3333,554.833 49.3333,537.167 50,519.5C 50.7293,514.979 52.0626,510.646 54,506.5C 54.2415,500.116 54.9082,493.782 56,487.5C 59.3961,484.768 62.0628,481.435 64,477.5C 68.1141,465.938 72.7808,454.605 78,443.5C 79.7046,439.357 80.2046,435.191 79.5,431C 77.2381,430.358 75.0715,429.525 73,428.5C 72.8335,398.824 73.3335,369.158 74.5,339.5C 78.1817,339.335 81.8484,339.501 85.5,340C 86.4162,340.374 87.2496,340.874 88,341.5C 89.637,349.458 90.9704,357.458 92,365.5C 94.8198,363.875 95.1532,361.875 93,359.5C 91.7771,355.795 92.6104,352.795 95.5,350.5C 93.2783,347.173 92.1116,343.506 92,339.5C 88.14,337.327 83.9733,336.327 79.5,336.5C 78.8513,326.494 78.0179,316.494 77,306.5C 75.0503,301.69 73.8836,296.69 73.5,291.5C 72.0222,291.238 70.6888,291.571 69.5,292.5C 68.7178,295.076 67.2178,297.076 65,298.5C 63.8263,302.046 63.1596,305.713 63,309.5C 60.5,312.667 58,315.833 55.5,319C 50.2399,319.325 45.0732,320.158 40,321.5C 38.0326,321.458 36.1992,320.958 34.5,320C 27.8419,314.17 20.1752,310.17 11.5,308C 7.08147,301.318 3.08147,294.484 -0.5,287.5C -0.5,282.5 -0.5,277.5 -0.5,272.5C 0.977278,268.767 1.81061,264.767 2,260.5C 7.36526,252.718 11.6986,244.385 15,235.5C 17.7371,232.167 20.7371,229.167 24,226.5C 25.3402,219.794 27.6736,213.46 31,207.5C 33.9853,203.548 36.9853,199.548 40,195.5C 40.2065,192.377 40.8732,189.377 42,186.5C 48.7118,180.456 54.7118,173.789 60,166.5C 65.7823,161.391 71.6156,156.224 77.5,151C 80.9502,149.97 84.2835,148.637 87.5,147C 93.2702,141.294 100.27,138.294 108.5,138C 113.029,136.486 117.195,134.319 121,131.5C 120.103,127.608 119.269,123.608 118.5,119.5C 119.8,113.181 120.634,106.848 121,100.5C 117.579,98.5392 114.079,96.7059 110.5,95C 108.148,90.5983 107.982,86.0983 110,81.5C 117.575,76.6449 121.075,69.6449 120.5,60.5C 105.492,62.9911 100.325,56.9911 105,42.5C 106.424,35.4174 108.091,28.4174 110,21.5C 113.254,16.8928 116.754,16.5594 120.5,20.5C 122.931,16.565 125.931,13.065 129.5,10C 137.879,6.33829 146.213,2.83829 154.5,-0.5 Z M 228.5,50.5 C 229.693,50.9704 230.36,51.9704 230.5,53.5C 230.308,55.5767 229.808,57.5767 229,59.5C 227.182,56.5839 227.016,53.5839 228.5,50.5 Z M 82.5,243.5 C 83.4682,245.607 83.8016,247.941 83.5,250.5C 82.1266,250.343 80.7932,250.51 79.5,251C 78.8448,252.487 77.8448,253.653 76.5,254.5C 74.4648,253.959 72.4648,253.292 70.5,252.5C 74.2104,248.993 78.2104,245.993 82.5,243.5 Z M 88.5,402.5 C 89.958,407.221 89.458,411.887 87,416.5C 86.3492,411.707 86.8492,407.04 88.5,402.5 Z"/></g>
</svg>
