<?xml version="1.0" encoding="UTF-8"?>
<!DOCTYPE svg PUBLIC "-//W3C//DTD SVG 1.1//EN" "http://www.w3.org/Graphics/SVG/1.1/DTD/svg11.dtd">
<svg xmlns="http://www.w3.org/2000/svg" version="1.1" width="512px" height="512px" style="shape-rendering:geometricPrecision; text-rendering:geometricPrecision; image-rendering:optimizeQuality; fill-rule:evenodd; clip-rule:evenodd" xmlns:xlink="http://www.w3.org/1999/xlink">
<g><path style="opacity:1" fill="#e8eae9" d="M 255.5,151.5 C 260.862,151.472 266.195,151.806 271.5,152.5C 275.156,154.059 277.322,152.726 278,148.5C 290.718,133.222 305.551,130.722 322.5,141C 329.063,146.399 335.063,152.232 340.5,158.5C 354.408,159.639 367.075,164.139 378.5,172C 391.052,182.726 403.719,193.226 416.5,203.5C 431.562,217.467 440.062,234.8 442,255.5C 442.759,267.712 441.426,279.712 438,291.5C 427.132,317.039 408.632,334.206 382.5,343C 346.777,349.683 317.611,339.183 295,311.5C 292.252,306.334 289.252,301.334 286,296.5C 283.759,289.549 281.759,282.549 280,275.5C 278.065,277.102 275.899,278.269 273.5,279C 269.805,279.318 266.138,279.818 262.5,280.5C 255.831,280.491 249.664,278.825 244,275.5C 240.118,297.348 229.618,315.181 212.5,329C 207.5,332 202.5,335 197.5,338C 193.234,339.087 189.234,340.754 185.5,343C 171.497,344.905 157.497,344.905 143.5,343C 119.692,335.746 101.858,321.246 90,299.5C 80.7764,276.79 80.1097,253.79 88,230.5C 91.9396,223.564 96.273,216.897 101,210.5C 113.871,198.627 127.037,187.127 140.5,176C 153.625,165.439 168.625,159.939 185.5,159.5C 186.139,157.24 187.306,155.24 189,153.5C 195.387,146.213 202.887,140.38 211.5,136C 228.502,132.251 241.002,138.085 249,153.5C 251.087,152.603 253.254,151.936 255.5,151.5 Z M 215.5,259.5 C 215.46,264.193 215.127,268.859 214.5,273.5C 209.515,295.319 196.182,309.152 174.5,315C 148.573,318.452 129.073,308.952 116,286.5C 105.655,257.104 113.155,233.937 138.5,217C 167.829,205.174 191.496,212.007 209.5,237.5C 213.141,244.365 215.141,251.698 215.5,259.5 Z M 354.5,211.5 C 381.646,210.139 400.479,221.806 411,246.5C 418.076,277.373 407.576,299.54 379.5,313C 350.069,321.026 327.902,311.859 313,285.5C 304.572,260.267 310.072,238.767 329.5,221C 337.488,216.662 345.822,213.495 354.5,211.5 Z M 259.5,222.5 C 267.073,222.203 272.907,225.203 277,231.5C 279.75,242.043 276.25,249.543 266.5,254C 256.654,255.168 250.154,251.001 247,241.5C 246.193,237.814 246.693,234.314 248.5,231C 250.519,229.312 252.186,227.312 253.5,225C 255.723,224.434 257.723,223.6 259.5,222.5 Z"/></g>
<g><path style="opacity:1" fill="#9b9c9c" d="M 255.5,151.5 C 259.981,150.352 264.648,150.185 269.5,151C 270.416,151.278 271.082,151.778 271.5,152.5C 266.195,151.806 260.862,151.472 255.5,151.5 Z"/></g>
<g><path style="opacity:1" fill="#aeb0af" d="M 215.5,259.5 C 216.161,261.134 216.494,262.967 216.5,265C 216.64,268.15 215.973,270.983 214.5,273.5C 215.127,268.859 215.46,264.193 215.5,259.5 Z"/></g>
</svg>
