<?xml version="1.0" encoding="UTF-8"?>
<!DOCTYPE svg PUBLIC "-//W3C//DTD SVG 1.1//EN" "http://www.w3.org/Graphics/SVG/1.1/DTD/svg11.dtd">
<svg xmlns="http://www.w3.org/2000/svg" version="1.1" width="512px" height="512px" style="shape-rendering:geometricPrecision; text-rendering:geometricPrecision; image-rendering:optimizeQuality; fill-rule:evenodd; clip-rule:evenodd" xmlns:xlink="http://www.w3.org/1999/xlink">
<g><path style="opacity:0.025" fill="#babbbe" d="M 72.5,60.5 C 74.3547,60.272 75.1881,60.9387 75,62.5C 70.9819,67.3518 66.4819,71.6851 61.5,75.5C 61.1667,75 60.8333,74.5 60.5,74C 63.2965,68.3735 67.2965,63.8735 72.5,60.5 Z"/></g>
<g><path style="opacity:0.034" fill="#babbbe" d="M 87.5,60.5 C 88.8734,60.3433 90.2068,60.51 91.5,61C 81.3333,71.1667 71.1667,81.3333 61,91.5C 60.2619,88.788 60.9286,86.4547 63,84.5C 71.0618,76.2703 79.2285,68.2703 87.5,60.5 Z"/></g>
<g><path style="opacity:0.038" fill="#babbbe" d="M 102.5,60.5 C 103.873,60.3433 105.207,60.51 106.5,61C 92,76.8333 76.8333,92 61,106.5C 60.2619,103.788 60.9286,101.455 63,99.5C 76.0617,86.2708 89.2284,73.2708 102.5,60.5 Z"/></g>
<g><path style="opacity:0.038" fill="#babbbe" d="M 117.5,60.5 C 121.195,59.8738 122.029,60.8738 120,63.5C 100.638,83.1954 80.9717,102.529 61,121.5C 60.6531,118.839 61.4864,116.505 63.5,114.5C 81.8918,96.7748 99.8918,78.7748 117.5,60.5 Z"/></g>
<g><path style="opacity:0.04" fill="#babbbe" d="M 133.5,60.5 C 134.873,60.3433 136.207,60.51 137.5,61C 112,86.5 86.5,112 61,137.5C 60.2619,134.788 60.9286,132.455 63,130.5C 86.395,106.938 109.895,83.6046 133.5,60.5 Z"/></g>
<g><path style="opacity:0.04" fill="#babbbe" d="M 148.5,60.5 C 149.873,60.3433 151.207,60.51 152.5,61C 122.333,91.8333 91.8333,122.333 61,152.5C 60.2619,149.788 60.9286,147.455 63,145.5C 91.395,116.938 119.895,88.6047 148.5,60.5 Z"/></g>
<g><path style="opacity:0.04" fill="#babbbe" d="M 163.5,60.5 C 167.195,59.8738 168.029,60.8738 166,63.5C 131.306,98.528 96.3056,133.195 61,167.5C 60.8333,166.833 60.6667,166.167 60.5,165.5C 61.4214,163.87 62.2547,162.203 63,160.5C 97.0887,127.577 130.589,94.2441 163.5,60.5 Z"/></g>
<g><path style="opacity:0.042" fill="#babbbe" d="M 179.5,60.5 C 180.675,60.281 181.675,60.6143 182.5,61.5C 142.5,102.167 102.167,142.5 61.5,182.5C 60.4173,181.635 60.2506,180.635 61,179.5C 100.034,139.299 139.534,99.6327 179.5,60.5 Z"/></g>
<g><path style="opacity:0.041" fill="#babbbe" d="M 194.5,60.5 C 195.873,60.3433 197.207,60.51 198.5,61C 153,107.167 107.167,153 61,198.5C 60.2619,195.788 60.9286,193.455 63,191.5C 106.728,147.605 150.562,103.938 194.5,60.5 Z"/></g>
<g><path style="opacity:0.042" fill="#babbbe" d="M 209.5,60.5 C 210.873,60.3433 212.207,60.51 213.5,61C 163.333,112.5 112.5,163.333 61,213.5C 60.2619,210.788 60.9286,208.455 63,206.5C 112.006,157.932 160.839,109.265 209.5,60.5 Z"/></g>
<g><path style="opacity:0.041" fill="#babbbe" d="M 224.5,60.5 C 228.195,59.8738 229.029,60.8738 227,63.5C 171.973,118.861 116.639,173.861 61,228.5C 60.6531,225.839 61.4864,223.505 63.5,221.5C 117.225,167.775 170.892,114.108 224.5,60.5 Z"/></g>
<g><path style="opacity:0.043" fill="#bbbbbf" d="M 133.5,172.5 C 130.993,173.892 128.327,174.892 125.5,175.5C 163.326,136.84 201.66,98.6736 240.5,61C 241.833,60.3333 243.167,60.3333 244.5,61C 207.551,98.4485 170.551,135.615 133.5,172.5 Z"/></g>
<g><path style="opacity:0.042" fill="#babbbe" d="M 153.5,167.5 C 151.485,168.924 149.152,169.59 146.5,169.5C 182.245,132.922 218.579,96.7549 255.5,61C 256.833,60.3333 258.167,60.3333 259.5,61C 224.327,96.7342 188.994,132.234 153.5,167.5 Z"/></g>
<g><path style="opacity:0.041" fill="#bbbbbf" d="M 173.5,163.5 C 171.299,164.566 168.965,165.233 166.5,165.5C 167.693,163.946 168.86,162.279 170,160.5C 202.833,128.333 235.333,95.8333 267.5,63C 269.203,62.2547 270.87,61.4214 272.5,60.5C 273.167,60.6667 273.833,60.8333 274.5,61C 241.02,95.3133 207.354,129.48 173.5,163.5 Z"/></g>
<g><path style="opacity:0.043" fill="#babbbe" d="M 191.5,160.5 C 190.833,160.5 190.5,160.833 190.5,161.5C 188.435,161.517 186.435,161.85 184.5,162.5C 216.452,130.214 248.452,97.8811 280.5,65.5C 290.558,58.5328 291.558,59.5328 283.5,68.5C 252.479,98.8543 221.812,129.521 191.5,160.5 Z"/></g>
<g><path style="opacity:0.041" fill="#babbbe" d="M 208.5,159.5 C 206.5,159.5 204.5,159.5 202.5,159.5C 234.299,127.201 266.299,95.0346 298.5,63C 300.455,60.9286 302.788,60.2619 305.5,61C 273.658,93.5428 241.491,125.709 209,157.5C 208.536,158.094 208.369,158.761 208.5,159.5 Z"/></g>
<g><path style="opacity:0.042" fill="#bbbbbf" d="M 224.5,157.5 C 222.5,157.833 220.5,158.167 218.5,158.5C 250.326,126.841 281.993,95.0072 313.5,63C 315.455,60.9286 317.788,60.2619 320.5,61C 288.966,93.7004 256.966,125.867 224.5,157.5 Z"/></g>
<g><path style="opacity:0.042" fill="#babbbe" d="M 241.5,156.5 C 239.833,156.5 238.167,156.5 236.5,156.5C 267.146,125.521 297.812,94.5209 328.5,63.5C 330.505,61.4864 332.839,60.6531 335.5,61C 304.326,93.0067 272.993,124.84 241.5,156.5 Z"/></g>
<g><path style="opacity:0.042" fill="#babbbe" d="M 257.5,156.5 C 255.5,156.5 253.5,156.5 251.5,156.5C 282.298,125.201 313.298,94.0346 344.5,63C 346.455,60.9286 348.788,60.2619 351.5,61C 319.5,92.4977 288.166,124.331 257.5,156.5 Z"/></g>
<g><path style="opacity:0.042" fill="#babbbe" d="M 272.5,156.5 C 270.5,156.5 268.5,156.5 266.5,156.5C 297.345,125.44 328.345,94.2737 359.5,63C 361.455,60.9286 363.788,60.2619 366.5,61C 338,90.1667 309.167,119 280,147.5C 277.492,150.531 274.992,153.531 272.5,156.5 Z"/></g>
<g><path style="opacity:0.041" fill="#babbbe" d="M 286.5,157.5 C 284.5,157.5 282.5,157.5 280.5,157.5C 312.299,126.534 343.633,95.0338 374.5,63C 376.203,62.2547 377.87,61.4214 379.5,60.5C 380.167,60.6667 380.833,60.8333 381.5,61C 349.958,93.2112 318.292,125.378 286.5,157.5 Z"/></g>
<g><path style="opacity:0.043" fill="#babbbe" d="M 299.5,159.5 C 298.292,158.766 296.959,158.433 295.5,158.5C 326.173,127.494 356.839,96.494 387.5,65.5C 397.558,58.5328 398.558,59.5328 390.5,68.5C 359.785,98.548 329.452,128.881 299.5,159.5 Z"/></g>
<g><path style="opacity:0.041" fill="#babbbe" d="M 313.5,160.5 C 312.292,159.766 310.959,159.433 309.5,159.5C 341.299,127.201 373.299,95.0346 405.5,63C 407.455,60.9286 409.788,60.2619 412.5,61C 410.304,63.5253 408.138,66.0253 406,68.5C 374.966,99.0344 344.132,129.701 313.5,160.5 Z"/></g>
<g><path style="opacity:0.042" fill="#babbbe" d="M 327.5,162.5 C 325.708,162.634 324.042,162.301 322.5,161.5C 354.992,128.508 387.659,95.6743 420.5,63C 422.455,60.9286 424.788,60.2619 427.5,61C 394.272,95.0605 360.939,128.894 327.5,162.5 Z"/></g>
<g><path style="opacity:0.042" fill="#babbbe" d="M 340.5,164.5 C 339.041,164.567 337.708,164.234 336.5,163.5C 369.452,130.214 402.452,96.8811 435.5,63.5C 437.505,61.4864 439.839,60.6531 442.5,61C 408.66,95.6735 374.66,130.173 340.5,164.5 Z"/></g>
<g><path style="opacity:0.042" fill="#babbbe" d="M 353.5,166.5 C 351.833,166.5 350.167,166.5 348.5,166.5C 382.16,132.007 416.326,98.0069 451,64.5C 451.854,67.4066 451.021,69.7399 448.5,71.5C 416.452,102.881 384.785,134.548 353.5,166.5 Z"/></g>
<g><path style="opacity:0.042" fill="#babbbe" d="M 366.5,169.5 C 364.5,169.5 362.5,169.5 360.5,169.5C 390.439,139.395 420.606,109.395 451,79.5C 451.667,80.8333 451.667,82.1667 451,83.5C 449.615,84.5505 448.615,85.8839 448,87.5C 420.298,114.369 393.131,141.702 366.5,169.5 Z"/></g>
<g><path style="opacity:0.04" fill="#babbbe" d="M 377.5,172.5 C 376.167,172.5 374.833,172.5 373.5,172.5C 398.75,146.083 424.583,120.083 451,94.5C 451.738,97.212 451.071,99.5453 449,101.5C 425.326,125.341 401.492,149.008 377.5,172.5 Z"/></g>
<g><path style="opacity:0.042" fill="#babbbe" d="M 389.5,176.5 C 387.901,176.768 386.568,176.434 385.5,175.5C 406.827,153.34 428.66,131.673 451,110.5C 451.51,112.829 450.844,114.829 449,116.5C 428.911,136.422 409.077,156.422 389.5,176.5 Z"/></g>
<g><path style="opacity:0.04" fill="#bbbbbf" d="M 398.5,182.5 C 396.973,182.573 395.973,181.906 395.5,180.5C 413.494,161.673 431.994,143.34 451,125.5C 451.667,126.833 451.667,128.167 451,129.5C 433.605,147.394 416.105,165.061 398.5,182.5 Z"/></g>
<g><path style="opacity:0.041" fill="#bbbbbf" d="M 405.5,190.5 C 404.094,190.027 403.427,189.027 403.5,187.5C 418.925,171.514 434.759,155.848 451,140.5C 451.667,141.833 451.667,143.167 451,144.5C 436.3,160.366 421.133,175.7 405.5,190.5 Z"/></g>
<g><path style="opacity:0.986" fill="#fdfdfd" d="M 236.5,156.5 C 238.167,156.5 239.833,156.5 241.5,156.5C 244.833,156.5 248.167,156.5 251.5,156.5C 253.5,156.5 255.5,156.5 257.5,156.5C 260.5,156.5 263.5,156.5 266.5,156.5C 268.5,156.5 270.5,156.5 272.5,156.5C 275.167,156.833 277.833,157.167 280.5,157.5C 282.5,157.5 284.5,157.5 286.5,157.5C 289.455,158.159 292.455,158.492 295.5,158.5C 296.959,158.433 298.292,158.766 299.5,159.5C 302.833,159.5 306.167,159.5 309.5,159.5C 310.959,159.433 312.292,159.766 313.5,160.5C 316.518,160.704 319.518,161.037 322.5,161.5C 324.042,162.301 325.708,162.634 327.5,162.5C 330.391,163.403 333.391,163.736 336.5,163.5C 337.708,164.234 339.041,164.567 340.5,164.5C 343.067,165.475 345.733,166.142 348.5,166.5C 350.167,166.5 351.833,166.5 353.5,166.5C 355.679,167.677 358.013,168.677 360.5,169.5C 362.5,169.5 364.5,169.5 366.5,169.5C 368.649,170.736 370.982,171.736 373.5,172.5C 374.833,172.5 376.167,172.5 377.5,172.5C 379.936,173.871 382.603,174.871 385.5,175.5C 386.568,176.434 387.901,176.768 389.5,176.5C 391.118,178.316 393.118,179.649 395.5,180.5C 395.973,181.906 396.973,182.573 398.5,182.5C 399.973,184.395 401.64,186.061 403.5,187.5C 403.427,189.027 404.094,190.027 405.5,190.5C 406.145,192.826 407.478,194.493 409.5,195.5C 409.216,197.415 409.549,199.081 410.5,200.5C 413.003,201.371 415.67,202.037 418.5,202.5C 419.436,203.974 420.77,204.974 422.5,205.5C 424.194,206.527 425.527,207.861 426.5,209.5C 427.167,210.833 428.167,211.833 429.5,212.5C 429.963,215.221 430.629,217.888 431.5,220.5C 431.833,221.833 432.167,223.167 432.5,224.5C 432.5,227.833 432.5,231.167 432.5,234.5C 432.5,236.167 432.5,237.833 432.5,239.5C 432.5,242.833 432.5,246.167 432.5,249.5C 432.5,251.167 432.5,252.833 432.5,254.5C 432.5,257.833 432.5,261.167 432.5,264.5C 432.5,266.5 432.5,268.5 432.5,270.5C 432.5,273.5 432.5,276.5 432.5,279.5C 432.5,281.5 432.5,283.5 432.5,285.5C 432.5,288.833 432.5,292.167 432.5,295.5C 431.434,297.701 430.767,300.035 430.5,302.5C 427.812,308.522 423.478,312.855 417.5,315.5C 415.5,315.833 413.5,316.167 411.5,316.5C 410.833,316.5 410.5,316.833 410.5,317.5C 409.172,320.497 407.839,323.497 406.5,326.5C 402.86,330.806 398.86,334.806 394.5,338.5C 391.807,339.552 389.14,340.552 386.5,341.5C 385.833,341.5 385.5,341.833 385.5,342.5C 380.784,343.709 376.118,345.042 371.5,346.5C 368.99,346.927 366.657,347.593 364.5,348.5C 360.12,349.293 355.786,350.293 351.5,351.5C 349.097,351.448 346.764,351.781 344.5,352.5C 340.618,353.803 336.618,354.47 332.5,354.5C 330.833,354.5 329.167,354.5 327.5,354.5C 324.833,353.833 322.167,353.167 319.5,352.5C 318.292,351.766 316.959,351.433 315.5,351.5C 313.483,350.471 311.483,349.471 309.5,348.5C 308.205,347.512 306.872,346.512 305.5,345.5C 303.828,344.13 302.161,342.797 300.5,341.5C 300.144,339.81 299.144,338.81 297.5,338.5C 296.833,335.833 295.167,334.167 292.5,333.5C 292.5,332.167 291.833,331.5 290.5,331.5C 289.034,329.284 287.367,327.284 285.5,325.5C 284.5,325.167 283.833,324.5 283.5,323.5C 281.481,321.81 279.481,320.144 277.5,318.5C 277.144,316.81 276.144,315.81 274.5,315.5C 273.833,313.5 272.5,312.167 270.5,311.5C 270.19,309.856 269.19,308.856 267.5,308.5C 265.909,306.367 263.909,304.701 261.5,303.5C 260.292,302.766 258.959,302.433 257.5,302.5C 252.623,301.812 248.29,302.979 244.5,306C 230.581,320.422 216.248,334.255 201.5,347.5C 198.621,349.438 195.621,351.105 192.5,352.5C 188.246,353.646 183.913,354.313 179.5,354.5C 177.833,354.5 176.167,354.5 174.5,354.5C 171.733,354.142 169.067,353.475 166.5,352.5C 165.041,352.567 163.708,352.234 162.5,351.5C 159.455,351.492 156.455,351.159 153.5,350.5C 152.432,349.566 151.099,349.232 149.5,349.5C 146.829,347.882 143.829,347.215 140.5,347.5C 139.791,346.596 138.791,346.263 137.5,346.5C 135.162,344.96 132.495,344.294 129.5,344.5C 128.486,343.326 127.153,342.66 125.5,342.5C 122.944,341.949 120.611,340.949 118.5,339.5C 117.609,338.89 116.609,338.557 115.5,338.5C 114.109,336.11 112.109,334.443 109.5,333.5C 109.167,332.5 108.5,331.833 107.5,331.5C 106.14,329.46 104.807,327.46 103.5,325.5C 102.833,324.167 102.167,322.833 101.5,321.5C 100.931,318.665 99.2639,316.999 96.5,316.5C 95.0813,315.549 93.4147,315.216 91.5,315.5C 90.4206,313.457 88.754,312.124 86.5,311.5C 86.573,309.973 85.9063,308.973 84.5,308.5C 82.7104,306.728 81.3771,304.728 80.5,302.5C 80.3713,300.784 80.038,299.117 79.5,297.5C 78.612,294.946 78.2786,292.279 78.5,289.5C 78.5,287.5 78.5,285.5 78.5,283.5C 78.5,280.167 78.5,276.833 78.5,273.5C 78.5,271.833 78.5,270.167 78.5,268.5C 78.5,265.167 78.5,261.833 78.5,258.5C 78.5,256.833 78.5,255.167 78.5,253.5C 78.5,250.167 78.5,246.833 78.5,243.5C 78.5,241.5 78.5,239.5 78.5,237.5C 78.5,234.167 78.5,230.833 78.5,227.5C 78.5,225.833 78.5,224.167 78.5,222.5C 81.3786,211.287 88.3786,203.954 99.5,200.5C 104.218,188.117 112.884,179.783 125.5,175.5C 128.327,174.892 130.993,173.892 133.5,172.5C 137.891,171.808 142.224,170.808 146.5,169.5C 149.152,169.59 151.485,168.924 153.5,167.5C 157.854,166.914 162.188,166.248 166.5,165.5C 168.965,165.233 171.299,164.566 173.5,163.5C 177.215,163.577 180.881,163.244 184.5,162.5C 186.435,161.85 188.435,161.517 190.5,161.5C 191.167,161.5 191.5,161.167 191.5,160.5C 195.198,160.448 198.865,160.114 202.5,159.5C 204.5,159.5 206.5,159.5 208.5,159.5C 211.786,158.793 215.119,158.46 218.5,158.5C 220.5,158.167 222.5,157.833 224.5,157.5C 228.548,157.605 232.548,157.272 236.5,156.5 Z"/></g>
<g><path style="opacity:0.04" fill="#bbbbbf" d="M 410.5,200.5 C 409.549,199.081 409.216,197.415 409.5,195.5C 423.121,183.547 436.121,170.88 448.5,157.5C 449.325,156.614 450.325,156.281 451.5,156.5C 451.392,158.783 450.559,160.783 449,162.5C 436.298,175.369 423.465,188.035 410.5,200.5 Z"/></g>
<g><path style="opacity:0.039" fill="#babbbe" d="M 422.5,205.5 C 420.77,204.974 419.436,203.974 418.5,202.5C 429.161,192.006 439.995,181.672 451,171.5C 451.854,174.407 451.021,176.74 448.5,178.5C 440,186.833 431.5,195.167 423,203.5C 422.536,204.094 422.369,204.761 422.5,205.5 Z"/></g>
<g><path style="opacity:1" fill="#e6e6e6" d="M 224.5,183.5 C 277.142,180.587 328.642,186.587 379,201.5C 382.258,203.344 384.591,206.011 386,209.5C 391.958,242.165 391.958,274.831 386,307.5C 384.395,313.438 380.562,316.938 374.5,318C 360.51,321.997 346.344,325.164 332,327.5C 328.233,327.384 324.733,326.384 321.5,324.5C 307.286,309.118 292.286,294.618 276.5,281C 269.673,277.129 262.339,275.629 254.5,276.5C 250.5,276.667 246.5,276.833 242.5,277C 237.734,278.584 233.4,280.917 229.5,284C 215.386,297.236 201.719,310.903 188.5,325C 186.5,325.667 184.5,326.333 182.5,327C 175.108,327.208 167.775,326.541 160.5,325C 151.872,322.453 143.206,320.119 134.5,318C 129.755,316.885 126.588,314.052 125,309.5C 121.065,293.424 119.565,277.091 120.5,260.5C 119.601,242.944 121.101,225.611 125,208.5C 127.553,203.297 131.72,200.13 137.5,199C 166.3,191.975 195.3,186.808 224.5,183.5 Z"/></g>
<g><path style="opacity:0.038" fill="#babbbe" d="M 429.5,212.5 C 428.167,211.833 427.167,210.833 426.5,209.5C 434.469,201.7 442.636,194.033 451,186.5C 451.667,187.833 451.667,189.167 451,190.5C 443.854,197.961 436.687,205.295 429.5,212.5 Z"/></g>
<g><path style="opacity:0.035" fill="#bbbbbf" d="M 432.5,224.5 C 432.167,223.167 431.833,221.833 431.5,220.5C 437.8,214.034 444.3,207.701 451,201.5C 451.738,204.212 451.071,206.545 449,208.5C 443.658,214.009 438.158,219.342 432.5,224.5 Z"/></g>
<g><path style="opacity:0.037" fill="#babbbe" d="M 432.5,239.5 C 432.5,237.833 432.5,236.167 432.5,234.5C 438.223,228.429 444.39,222.762 451,217.5C 451.167,218.167 451.333,218.833 451.5,219.5C 445.848,226.819 439.515,233.485 432.5,239.5 Z"/></g>
<g><path style="opacity:0.036" fill="#babbbe" d="M 78.5,222.5 C 78.5,224.167 78.5,225.833 78.5,227.5C 72.6897,233.047 66.8564,238.713 61,244.5C 60.2619,241.788 60.9286,239.455 63,237.5C 68.0354,232.297 73.202,227.297 78.5,222.5 Z"/></g>
<g><path style="opacity:0.035" fill="#babbbe" d="M 432.5,254.5 C 432.5,252.833 432.5,251.167 432.5,249.5C 438.496,243.671 444.663,238.004 451,232.5C 451.167,233.167 451.333,233.833 451.5,234.5C 449.824,237.851 447.657,240.851 445,243.5C 440.827,247.202 436.661,250.868 432.5,254.5 Z"/></g>
<g><path style="opacity:0.036" fill="#babbbe" d="M 78.5,237.5 C 78.5,239.5 78.5,241.5 78.5,243.5C 72.511,248.655 66.6777,253.989 61,259.5C 60.2619,256.788 60.9286,254.455 63,252.5C 68.1033,247.378 73.27,242.378 78.5,237.5 Z"/></g>
<g><path style="opacity:0.036" fill="#babbbe" d="M 432.5,270.5 C 432.5,268.5 432.5,266.5 432.5,264.5C 438.653,258.912 444.819,253.245 451,247.5C 451.167,248.167 451.333,248.833 451.5,249.5C 450.57,251.606 449.404,253.606 448,255.5C 442.854,260.631 437.688,265.631 432.5,270.5 Z"/></g>
<g><path style="opacity:0.035" fill="#babbbe" d="M 78.5,253.5 C 78.5,255.167 78.5,256.833 78.5,258.5C 72.8366,263.996 67.0033,269.329 61,274.5C 60.8333,273.833 60.6667,273.167 60.5,272.5C 61.4214,270.87 62.2547,269.203 63,267.5C 68.177,262.692 73.3437,258.025 78.5,253.5 Z"/></g>
<g><path style="opacity:0.036" fill="#babbbe" d="M 432.5,285.5 C 432.5,283.5 432.5,281.5 432.5,279.5C 438.422,275.249 443.755,270.249 448.5,264.5C 449.325,263.614 450.325,263.281 451.5,263.5C 451.392,265.783 450.559,267.783 449,269.5C 443.631,275.036 438.131,280.37 432.5,285.5 Z"/></g>
<g><path style="opacity:0.037" fill="#babbbe" d="M 78.5,268.5 C 78.5,270.167 78.5,271.833 78.5,273.5C 73.0087,278.491 67.6754,283.658 62.5,289C 61.5165,289.591 60.8499,289.257 60.5,288C 65.5891,280.741 71.5891,274.241 78.5,268.5 Z"/></g>
<g><path style="opacity:0.037" fill="#babbbe" d="M 430.5,302.5 C 430.767,300.035 431.434,297.701 432.5,295.5C 438.496,289.671 444.663,284.004 451,278.5C 451.667,279.833 451.667,281.167 451,282.5C 444.251,289.418 437.417,296.085 430.5,302.5 Z"/></g>
<g><path style="opacity:0.035" fill="#babbbe" d="M 78.5,283.5 C 78.5,285.5 78.5,287.5 78.5,289.5C 72.5829,294.577 66.7496,299.91 61,305.5C 60.2619,302.788 60.9286,300.455 63,298.5C 68.0354,293.297 73.202,288.297 78.5,283.5 Z"/></g>
<g><path style="opacity:0.042" fill="#babbbe" d="M 450.5,293.5 C 451.598,294.601 451.765,295.934 451,297.5C 401.458,348.008 351.624,398.175 301.5,448C 299.884,448.615 298.551,449.615 297.5,451C 296.167,451.667 294.833,451.667 293.5,451C 345.368,397.966 397.701,345.466 450.5,293.5 Z"/></g>
<g><path style="opacity:0.037" fill="#babbbe" d="M 79.5,297.5 C 80.038,299.117 80.3713,300.784 80.5,302.5C 74.2166,308.612 67.7166,314.612 61,320.5C 60.2619,317.788 60.9286,315.455 63,313.5C 68.629,308.275 74.129,302.941 79.5,297.5 Z"/></g>
<g><path style="opacity:0.043" fill="#babbbe" d="M 257.5,302.5 C 258.959,302.433 260.292,302.766 261.5,303.5C 212.439,353.561 162.772,402.895 112.5,451.5C 111.833,451.333 111.167,451.167 110.5,451C 159.449,401.219 208.449,351.719 257.5,302.5 Z"/></g>
<g><path style="opacity:0.038" fill="#bbbbbf" d="M 84.5,308.5 C 85.9063,308.973 86.573,309.973 86.5,311.5C 78.1713,319.661 69.6713,327.661 61,335.5C 60.6531,332.839 61.4864,330.505 63.5,328.5C 70.3411,321.595 77.3411,314.929 84.5,308.5 Z"/></g>
<g><path style="opacity:0.041" fill="#babbbe" d="M 267.5,308.5 C 269.19,308.856 270.19,309.856 270.5,311.5C 269.527,311.987 268.527,312.487 267.5,313C 221.728,359.194 175.728,405.194 129.5,451C 128.167,451.667 126.833,451.667 125.5,451C 172.34,402.993 219.674,355.493 267.5,308.5 Z"/></g>
<g><path style="opacity:0.04" fill="#babbbe" d="M 448.5,309.5 C 449.5,309.5 450.5,309.5 451.5,309.5C 451.392,311.783 450.559,313.783 449,315.5C 404.5,360 360,404.5 315.5,449C 313.783,450.559 311.783,451.392 309.5,451.5C 311.151,448.228 313.317,445.228 316,442.5C 360.236,399.053 404.236,355.386 448,311.5C 448.464,310.906 448.631,310.239 448.5,309.5 Z"/></g>
<g><path style="opacity:0.04" fill="#babbbe" d="M 91.5,315.5 C 93.4147,315.216 95.0813,315.549 96.5,316.5C 84.508,327.992 72.6747,339.659 61,351.5C 60.2619,348.788 60.9286,346.455 63,344.5C 72.7022,334.965 82.2022,325.298 91.5,315.5 Z"/></g>
<g><path style="opacity:0.043" fill="#babbbe" d="M 274.5,315.5 C 276.144,315.81 277.144,316.81 277.5,318.5C 233.54,362.796 189.207,406.962 144.5,451C 143.167,451.667 141.833,451.667 140.5,451C 185.287,406.046 229.954,360.879 274.5,315.5 Z"/></g>
<g><path style="opacity:0.044" fill="#bbbbbf" d="M 417.5,315.5 C 414.167,319.5 410.5,323.167 406.5,326.5C 407.839,323.497 409.172,320.497 410.5,317.5C 411.167,317.5 411.5,317.167 411.5,316.5C 413.5,316.167 415.5,315.833 417.5,315.5 Z"/></g>
<g><path style="opacity:0.04" fill="#bbbbbf" d="M 101.5,321.5 C 102.167,322.833 102.833,324.167 103.5,325.5C 88.9113,338.622 74.7446,352.289 61,366.5C 60.2619,363.788 60.9286,361.455 63,359.5C 75.7015,346.631 88.5348,333.965 101.5,321.5 Z"/></g>
<g><path style="opacity:0.042" fill="#babbbe" d="M 283.5,323.5 C 283.833,324.5 284.5,325.167 285.5,325.5C 244.701,366.799 203.701,407.965 162.5,449C 160.783,450.559 158.783,451.392 156.5,451.5C 156.281,450.325 156.614,449.325 157.5,448.5C 199.575,406.758 241.575,365.091 283.5,323.5 Z"/></g>
<g><path style="opacity:0.042" fill="#babbbe" d="M 450.5,324.5 C 451.124,324.917 451.457,325.584 451.5,326.5C 411.682,367.818 371.348,408.652 330.5,449C 328.829,450.844 326.829,451.51 324.5,451C 365.7,407.966 407.7,365.8 450.5,324.5 Z"/></g>
<g><path style="opacity:0.04" fill="#babbbe" d="M 107.5,331.5 C 108.5,331.833 109.167,332.5 109.5,333.5C 93.8664,349.967 77.6997,365.967 61,381.5C 60.8333,380.833 60.6667,380.167 60.5,379.5C 61.4214,377.87 62.2547,376.203 63,374.5C 77.8333,361 92,346.833 105.5,332C 106.094,331.536 106.761,331.369 107.5,331.5 Z"/></g>
<g><path style="opacity:0.042" fill="#babbbe" d="M 290.5,331.5 C 291.833,331.5 292.5,332.167 292.5,333.5C 254.035,373.132 215.035,412.298 175.5,451C 174.167,451.667 172.833,451.667 171.5,451C 210.674,410.66 250.34,370.826 290.5,331.5 Z"/></g>
<g><path style="opacity:0.042" fill="#babbbe" d="M 115.5,338.5 C 116.609,338.557 117.609,338.89 118.5,339.5C 99.8273,358.839 80.8273,377.839 61.5,396.5C 60.4173,395.635 60.2506,394.635 61,393.5C 78.7002,374.633 96.8669,356.3 115.5,338.5 Z"/></g>
<g><path style="opacity:0.042" fill="#babbbe" d="M 297.5,338.5 C 299.144,338.81 300.144,339.81 300.5,341.5C 264.145,378.204 227.479,414.704 190.5,451C 189.167,451.667 187.833,451.667 186.5,451C 223.395,413.273 260.395,375.773 297.5,338.5 Z"/></g>
<g><path style="opacity:0.042" fill="#babbbe" d="M 394.5,338.5 C 357.507,376.3 320.174,413.8 282.5,451C 278.84,452.114 278.007,451.28 280,448.5C 315.368,413.299 350.535,377.965 385.5,342.5C 386.167,342.5 386.5,342.167 386.5,341.5C 389.14,340.552 391.807,339.552 394.5,338.5 Z"/></g>
<g><path style="opacity:0.04" fill="#babbbe" d="M 450.5,339.5 C 451.598,340.601 451.765,341.934 451,343.5C 415.167,379.333 379.333,415.167 343.5,451C 342.167,451.667 340.833,451.667 339.5,451C 376.034,413.299 413.034,376.133 450.5,339.5 Z"/></g>
<g><path style="opacity:0.041" fill="#bbbbbf" d="M 125.5,342.5 C 127.153,342.66 128.486,343.326 129.5,344.5C 106.562,366.938 83.7283,389.605 61,412.5C 60.2619,409.788 60.9286,407.455 63,405.5C 84.035,384.632 104.868,363.632 125.5,342.5 Z"/></g>
<g><path style="opacity:0.041" fill="#babbbe" d="M 305.5,345.5 C 306.872,346.512 308.205,347.512 309.5,348.5C 274.98,382.854 240.313,417.02 205.5,451C 204.167,451.667 202.833,451.667 201.5,451C 234.333,416.833 267.833,383.333 302,350.5C 303.14,348.721 304.307,347.054 305.5,345.5 Z"/></g>
<g><path style="opacity:0.042" fill="#babbbe" d="M 137.5,346.5 C 138.791,346.263 139.791,346.596 140.5,347.5C 140.631,348.239 140.464,348.906 140,349.5C 114.026,375.807 87.6925,401.807 61,427.5C 60.2619,424.788 60.9286,422.455 63,420.5C 87.9631,395.941 112.796,371.274 137.5,346.5 Z"/></g>
<g><path style="opacity:0.041" fill="#bbbbbf" d="M 201.5,347.5 C 168.03,382.804 133.696,417.304 98.5,451C 97.1667,451.667 95.8333,451.667 94.5,451C 127.068,417.994 159.734,385.161 192.5,352.5C 195.621,351.105 198.621,349.438 201.5,347.5 Z"/></g>
<g><path style="opacity:0.042" fill="#bbbbbf" d="M 371.5,346.5 C 337.701,380.799 303.701,414.965 269.5,449C 267.783,450.559 265.783,451.392 263.5,451.5C 263.281,450.325 263.614,449.325 264.5,448.5C 298.269,415.398 331.602,382.065 364.5,348.5C 366.657,347.593 368.99,346.927 371.5,346.5 Z"/></g>
<g><path style="opacity:0.042" fill="#babbbe" d="M 149.5,349.5 C 151.099,349.232 152.432,349.566 153.5,350.5C 123.173,381.66 92.3401,412.327 61,442.5C 60.6531,439.839 61.4864,437.505 63.5,435.5C 92.548,407.119 121.215,378.452 149.5,349.5 Z"/></g>
<g><path style="opacity:0.042" fill="#babbbe" d="M 162.5,351.5 C 163.708,352.234 165.041,352.567 166.5,352.5C 134.903,384.431 103.236,416.431 71.5,448.5C 69.7399,451.021 67.4066,451.854 64.5,451C 97.0069,417.66 129.674,384.493 162.5,351.5 Z"/></g>
<g><path style="opacity:0.043" fill="#babbbe" d="M 315.5,351.5 C 316.959,351.433 318.292,351.766 319.5,352.5C 287.185,386.481 253.852,419.481 219.5,451.5C 218.833,451.333 218.167,451.167 217.5,451C 249.83,417.511 282.497,384.344 315.5,351.5 Z"/></g>
<g><path style="opacity:0.042" fill="#babbbe" d="M 351.5,351.5 C 319.468,383.407 287.468,415.574 255.5,448C 253.606,449.404 251.606,450.57 249.5,451.5C 248.833,451.333 248.167,451.167 247.5,451C 248.667,449.5 249.833,448 251,446.5C 282.524,415.495 313.691,384.162 344.5,352.5C 346.764,351.781 349.097,351.448 351.5,351.5 Z"/></g>
<g><path style="opacity:0.042" fill="#babbbe" d="M 174.5,354.5 C 176.167,354.5 177.833,354.5 179.5,354.5C 179.631,355.239 179.464,355.906 179,356.5C 148.395,386.86 117.895,417.36 87.5,448C 85.6061,449.404 83.6061,450.57 81.5,451.5C 80.8333,451.333 80.1667,451.167 79.5,451C 80.1258,450.25 80.6258,449.416 81,448.5C 112.393,417.37 143.56,386.036 174.5,354.5 Z"/></g>
<g><path style="opacity:0.041" fill="#babbbe" d="M 327.5,354.5 C 329.167,354.5 330.833,354.5 332.5,354.5C 302.867,384.66 273.2,414.827 243.5,445C 240.851,447.657 237.851,449.824 234.5,451.5C 233.833,451.333 233.167,451.167 232.5,451C 264.007,418.66 295.674,386.493 327.5,354.5 Z"/></g>
<g><path style="opacity:0.041" fill="#babbbe" d="M 450.5,354.5 C 451.598,355.601 451.765,356.934 451,358.5C 420.833,390 390,420.833 358.5,451C 357.167,451.667 355.833,451.667 354.5,451C 386.701,418.965 418.701,386.799 450.5,354.5 Z"/></g>
<g><path style="opacity:0.04" fill="#babbbe" d="M 448.5,370.5 C 449.5,370.5 450.5,370.5 451.5,370.5C 451.392,372.783 450.559,374.783 449,376.5C 424.833,400.667 400.667,424.833 376.5,449C 374.783,450.559 372.783,451.392 370.5,451.5C 370.281,450.325 370.614,449.325 371.5,448.5C 396.82,423.013 422.32,397.68 448,372.5C 448.464,371.906 448.631,371.239 448.5,370.5 Z"/></g>
<g><path style="opacity:0.039" fill="#babbbe" d="M 450.5,385.5 C 451.598,386.601 451.765,387.934 451,389.5C 430.5,410 410,430.5 389.5,451C 388.167,451.667 386.833,451.667 385.5,451C 406.7,428.633 428.367,406.8 450.5,385.5 Z"/></g>
<g><path style="opacity:0.038" fill="#babbbe" d="M 450.5,400.5 C 451.598,401.601 451.765,402.934 451,404.5C 436.167,420.667 420.667,436.167 404.5,451C 403.167,451.667 401.833,451.667 400.5,451C 416.7,433.634 433.367,416.8 450.5,400.5 Z"/></g>
<g><path style="opacity:0.035" fill="#babbbe" d="M 448.5,416.5 C 449.5,416.5 450.5,416.5 451.5,416.5C 451.392,418.783 450.559,420.783 449,422.5C 440.167,431.333 431.333,440.167 422.5,449C 420.783,450.559 418.783,451.392 416.5,451.5C 416.281,450.325 416.614,449.325 417.5,448.5C 427.487,438.346 437.654,428.346 448,418.5C 448.464,417.906 448.631,417.239 448.5,416.5 Z"/></g>
<g><path style="opacity:0.029" fill="#babbbe" d="M 450.5,431.5 C 451.124,431.917 451.457,432.584 451.5,433.5C 446.5,440.5 440.5,446.5 433.5,451.5C 432.833,451.333 432.167,451.167 431.5,451C 437.365,443.969 443.698,437.469 450.5,431.5 Z"/></g>
<g><path style="opacity:0.008" fill="#babbbe" d="M 450.5,446.5 C 452.349,450.494 451.015,451.994 446.5,451C 447.357,448.981 448.691,447.481 450.5,446.5 Z"/></g>
</svg>
