<?xml version="1.0" encoding="UTF-8"?>
<!DOCTYPE svg PUBLIC "-//W3C//DTD SVG 1.1//EN" "http://www.w3.org/Graphics/SVG/1.1/DTD/svg11.dtd">
<svg xmlns="http://www.w3.org/2000/svg" version="1.1" width="1024px" height="1024px" style="shape-rendering:geometricPrecision; text-rendering:geometricPrecision; image-rendering:optimizeQuality; fill-rule:evenodd; clip-rule:evenodd" xmlns:xlink="http://www.w3.org/1999/xlink">
<g><path style="opacity:0.979" fill="#fefefe" d="M 520.5,120.5 C 557.835,120.333 595.168,120.5 632.5,121C 634.333,121.5 635.5,122.667 636,124.5C 637.026,129.785 637.693,135.118 638,140.5C 640.374,142.539 642.374,144.872 644,147.5C 644.333,155.833 644.667,164.167 645,172.5C 647.293,174.49 649.626,176.49 652,178.5C 652.758,228.172 653.758,277.838 655,327.5C 664.144,522.3 635.477,711.3 569,894.5C 567.211,900.589 564.045,905.756 559.5,910C 552.894,913.975 545.894,916.808 538.5,918.5C 525.133,915.155 512.133,910.655 499.5,905C 495.5,904.667 491.5,904.333 487.5,904C 477.245,899.804 466.912,895.804 456.5,892C 454.586,890.587 453.253,888.753 452.5,886.5C 416.988,871.716 381.321,857.216 345.5,843C 341.562,841.271 337.562,841.104 333.5,842.5C 324.54,841.363 317.54,837.197 312.5,830C 309.044,828.519 305.711,826.852 302.5,825C 300.556,823.278 299.556,821.111 299.5,818.5C 305.766,796.536 312.933,774.869 321,753.5C 352.009,653.785 370.676,551.785 377,447.5C 377.832,347.93 377.665,248.43 376.5,149C 376.654,142.51 379.988,138.843 386.5,138C 416.486,136.845 446.486,136.179 476.5,136C 488.984,134.09 500.317,129.424 510.5,122C 514.025,121.821 517.359,121.321 520.5,120.5 Z"/></g>
</svg>
