<?xml version="1.0" encoding="UTF-8"?>
<!DOCTYPE svg PUBLIC "-//W3C//DTD SVG 1.1//EN" "http://www.w3.org/Graphics/SVG/1.1/DTD/svg11.dtd">
<svg xmlns="http://www.w3.org/2000/svg" version="1.1" width="1024px" height="1024px" style="shape-rendering:geometricPrecision; text-rendering:geometricPrecision; image-rendering:optimizeQuality; fill-rule:evenodd; clip-rule:evenodd" xmlns:xlink="http://www.w3.org/1999/xlink">
<g><path style="opacity:0.991" fill="#fefffe" d="M 387.5,318.5 C 406.163,319.392 424.83,320.558 443.5,322C 445.388,324.19 447.555,326.023 450,327.5C 452.836,332.685 455.669,337.851 458.5,343C 466.777,348.973 475.777,353.639 485.5,357C 501.552,359.197 517.552,358.864 533.5,356C 537.76,354.692 541.926,353.192 546,351.5C 546.333,351.833 546.667,352.167 547,352.5C 558.926,341.904 571.426,332.071 584.5,323C 603.703,322.123 622.536,324.623 641,330.5C 644.681,332.499 646.015,335.499 645,339.5C 633.562,338.756 622.062,338.09 610.5,337.5C 608.192,337.365 606.192,338.031 604.5,339.5C 600.935,336.549 599.601,337.549 600.5,342.5C 599.5,342.5 598.5,342.5 597.5,342.5C 597.5,341.167 597.5,339.833 597.5,338.5C 595.857,338.48 594.524,339.147 593.5,340.5C 592.914,340.291 592.414,339.957 592,339.5C 590.681,341.25 590.181,343.25 590.5,345.5C 587.95,345.561 586.45,346.894 586,349.5C 584.935,358.802 584.268,368.135 584,377.5C 583.333,457.167 583.333,536.833 584,616.5C 584.741,622.132 586.407,627.465 589,632.5C 591.071,633.525 593.238,634.358 595.5,635C 612.163,635.5 628.83,635.667 645.5,635.5C 644.81,642.026 641.143,645.86 634.5,647C 619.993,650.209 605.326,651.542 590.5,651C 585.457,649.822 580.457,648.489 575.5,647C 565.459,637.957 555.126,629.29 544.5,621C 529.413,618.011 514.247,616.177 499,615.5C 491.873,616.664 484.706,617.831 477.5,619C 470.39,622.637 463.89,627.137 458,632.5C 454.615,640.448 449.448,646.948 442.5,652C 423.651,652.726 404.818,653.56 386,654.5C 383.141,653.524 381.141,651.524 380,648.5C 379.333,539.167 379.333,429.833 380,320.5C 382.607,319.877 385.107,319.21 387.5,318.5 Z"/></g>
<g><path style="opacity:0.921" fill="#fefffe" d="M 324.5,320.5 C 341.167,320.5 357.833,320.5 374.5,320.5C 374.5,429.5 374.5,538.5 374.5,647.5C 356.497,647.667 338.497,647.5 320.5,647C 317.716,646.108 315.05,644.942 312.5,643.5C 311.571,642.311 311.238,640.978 311.5,639.5C 329.17,639.667 346.836,639.5 364.5,639C 366.329,638.727 367.829,637.893 369,636.5C 369.115,537.833 368.782,439.167 368,340.5C 367.167,339.667 366.333,338.833 365.5,338C 346.836,337.5 328.17,337.333 309.5,337.5C 308.251,330.834 310.584,326.001 316.5,323C 319.31,322.218 321.977,321.384 324.5,320.5 Z"/></g>
<g><path style="opacity:0.795" fill="#fefffe" d="M 473.5,327.5 C 495.787,326.204 516.12,331.704 534.5,344C 510.829,339.733 487.162,335.066 463.5,330C 466.834,328.916 470.168,328.082 473.5,327.5 Z"/></g>
<g><path style="opacity:0.959" fill="#fefffe" d="M 876.5,330.5 C 894.882,330.266 913.215,331.099 931.5,333C 938.951,335.539 946.284,338.372 953.5,341.5C 954.325,345.122 954.825,348.789 955,352.5C 955.5,353 956,353.5 956.5,354C 963.747,354.185 970.913,354.685 978,355.5C 979.919,437.506 979.586,519.506 977,601.5C 976.535,602.931 975.701,604.097 974.5,605C 967.5,605.333 960.5,605.667 953.5,606C 952.231,609.622 952.231,613.288 953.5,617C 952.993,619.541 952.326,622.041 951.5,624.5C 943.838,628.25 935.838,631.083 927.5,633C 909.388,635.545 891.221,636.378 873,635.5C 870.667,636.5 868.333,637.5 866,638.5C 864.289,638.561 862.956,637.894 862,636.5C 858.227,637.517 854.394,637.517 850.5,636.5C 850.5,635.5 850.5,634.5 850.5,633.5C 844.721,633.245 839.221,631.912 834,629.5C 832.776,624.614 832.109,619.614 832,614.5C 831.058,591.343 830.558,568.177 830.5,545C 831.015,502.167 831.515,459.334 832,416.5C 832.38,389.807 833.38,363.14 835,336.5C 848.869,334.067 862.703,332.067 876.5,330.5 Z M 860.5,346.5 C 890.771,344.991 920.771,346.991 950.5,352.5C 951.5,439.497 951.833,526.497 951.5,613.5C 943.493,614.261 935.493,614.761 927.5,615C 932.102,610.114 937.602,606.614 944,604.5C 944.822,523.835 945.322,443.168 945.5,362.5C 939.074,363.62 934.074,361.453 930.5,356C 908.944,352.556 887.277,351.722 865.5,353.5C 865.183,440.837 864.516,528.17 863.5,615.5C 874.167,615.5 884.833,615.5 895.5,615.5C 895.5,616.5 895.5,617.5 895.5,618.5C 883.351,619.368 871.351,620.702 859.5,622.5C 858.914,622.291 858.414,621.957 858,621.5C 857.512,529.756 858.345,438.089 860.5,346.5 Z M 958.5,358.5 C 963.418,359.281 968.418,359.781 973.5,360C 975.074,361.826 975.907,363.993 976,366.5C 976.167,403.833 976.333,441.167 976.5,478.5C 976.643,518.525 976.143,558.525 975,598.5C 974.626,599.416 974.126,600.25 973.5,601C 968.816,601.35 964.149,601.85 959.5,602.5C 958.228,602.43 957.062,602.097 956,601.5C 955.745,521.166 956.078,440.832 957,360.5C 957.717,359.956 958.217,359.289 958.5,358.5 Z"/></g>
<g><path style="opacity:0.967" fill="#fefffe" d="M 202.5,331.5 C 212.172,331.334 221.839,331.5 231.5,332C 232.444,334.719 232.777,337.552 232.5,340.5C 224.913,340.186 217.413,340.519 210,341.5C 210.114,435.832 210.448,530.165 211,624.5C 212.698,625.733 214.698,626.4 217,626.5C 223.148,627.217 229.314,627.55 235.5,627.5C 235.958,630.394 235.291,632.894 233.5,635C 225.29,635.534 217.124,636.367 209,637.5C 195.601,635.681 182.268,633.681 169,631.5C 168.5,533.167 168.333,434.834 168.5,336.5C 180.046,335.375 191.38,333.708 202.5,331.5 Z"/></g>
<g><path style="opacity:0.992" fill="#fefffe" d="M 603.5,344.5 C 606.528,346.14 609.861,346.974 613.5,347C 624.68,347.271 635.847,347.771 647,348.5C 651.122,347.759 655.122,346.759 659,345.5C 715.154,348.154 771.321,350.488 827.5,352.5C 824.425,441.473 823.759,530.473 825.5,619.5C 769.149,621.723 712.815,624.39 656.5,627.5C 637.499,626.927 618.499,626.26 599.5,625.5C 598.756,622.557 598.256,619.557 598,616.5C 597.132,527.827 597.465,439.161 599,350.5C 599.639,347.788 601.139,345.788 603.5,344.5 Z"/></g>
<g><path style="opacity:0.991" fill="#fefffe" d="M 269.5,345.5 C 296.835,345.837 324.168,346.337 351.5,347C 352.667,347.5 353.5,348.333 354,349.5C 355.822,410.959 356.655,472.459 356.5,534C 356.167,564.5 355.833,595 355.5,625.5C 353.833,626.333 352.167,627.167 350.5,628C 343.185,628.998 335.851,629.831 328.5,630.5C 301.505,628.6 274.505,626.767 247.5,625C 245.423,624.808 243.423,624.308 241.5,623.5C 240.91,622.201 239.91,621.368 238.5,621C 231.508,620.5 224.508,620.334 217.5,620.5C 216.904,529.501 216.571,438.501 216.5,347.5C 234.336,347.119 252.002,346.452 269.5,345.5 Z"/></g>
<g><path style="opacity:0.056" fill="#fefffe" d="M 590.5,346.5 C 591.289,346.783 591.956,347.283 592.5,348C 591.184,348.528 590.517,348.028 590.5,346.5 Z"/></g>
<g><path style="opacity:0.986" fill="#fefffe" d="M 154.5,353.5 C 156.833,353.5 159.167,353.5 161.5,353.5C 162.283,440.498 162.617,527.498 162.5,614.5C 125.704,609.09 89.0371,602.923 52.5,596C 48.6119,593.778 45.7786,590.612 44,586.5C 40.9282,516.533 39.9282,446.533 41,376.5C 42.7932,373.705 44.9598,371.205 47.5,369C 53.1324,367.54 58.799,366.207 64.5,365C 94.5282,360.256 124.528,356.422 154.5,353.5 Z"/></g>
<g><path style="opacity:0.856" fill="#fefffe" d="M 963.5,368.5 C 965.796,370.401 967.629,372.734 969,375.5C 969.718,446.171 969.385,516.838 968,587.5C 966.374,590.128 964.374,592.461 962,594.5C 962.234,519.169 962.734,443.836 963.5,368.5 Z"/></g>
<g><path style="opacity:0.779" fill="#fefffe" d="M 528.5,627.5 C 531.718,627.651 532.051,628.484 529.5,630C 513.21,637.864 496.043,642.364 478,643.5C 473.338,643.543 468.838,642.709 464.5,641C 486.003,636.667 507.336,632.167 528.5,627.5 Z"/></g>
<g><path style="opacity:0.13" fill="#fefffe" d="M 648.5,635.5 C 650.225,635.843 650.725,636.843 650,638.5C 648.961,637.756 648.461,636.756 648.5,635.5 Z"/></g>
</svg>
