<?xml version="1.0" encoding="UTF-8"?>
<!DOCTYPE svg PUBLIC "-//W3C//DTD SVG 1.1//EN" "http://www.w3.org/Graphics/SVG/1.1/DTD/svg11.dtd">
<svg xmlns="http://www.w3.org/2000/svg" version="1.1" width="512px" height="512px" style="shape-rendering:geometricPrecision; text-rendering:geometricPrecision; image-rendering:optimizeQuality; fill-rule:evenodd; clip-rule:evenodd" xmlns:xlink="http://www.w3.org/1999/xlink">
<g><path style="opacity:0.004" fill="#000000" d="M 285.5,-0.5 C 286.833,-0.5 288.167,-0.5 289.5,-0.5C 192.606,95.6395 95.939,191.973 -0.5,288.5C -0.5,287.5 -0.5,286.5 -0.5,285.5C 94.8333,190.167 190.167,94.8333 285.5,-0.5 Z"/></g>
<g><path style="opacity:0.004" fill="#000000" d="M 442.5,-0.5 C 443.833,-0.5 445.167,-0.5 446.5,-0.5C 468.167,21.1667 489.833,42.8333 511.5,64.5C 511.5,65.5 511.5,66.5 511.5,67.5C 488.307,45.0621 465.307,22.3955 442.5,-0.5 Z"/></g>
<g><path style="opacity:0.946" fill="#fefefe" d="M 362.5,122.5 C 362.5,121.833 362.5,121.167 362.5,120.5C 371.8,109.535 382.134,99.5347 393.5,90.5C 391.004,89.4196 388.67,88.0862 386.5,86.5C 380.363,79.6086 374.029,72.9419 367.5,66.5C 363.689,65.2624 363.689,64.5958 367.5,64.5C 367.5,63.1667 367.5,61.8333 367.5,60.5C 368.833,60.5 370.167,60.5 371.5,60.5C 371.238,59.0222 371.571,57.6888 372.5,56.5C 373.318,58.1083 373.985,59.7749 374.5,61.5C 382.167,69.1667 389.833,76.8333 397.5,84.5C 404.945,76.1367 411.112,77.1367 416,87.5C 418.756,85.9089 420.589,83.5755 421.5,80.5C 428.096,89.0997 435.43,97.0997 443.5,104.5C 444.386,105.325 444.719,106.325 444.5,107.5C 445.978,107.238 447.311,107.571 448.5,108.5C 450.086,110.67 451.42,113.004 452.5,115.5C 454.973,117.061 456.973,119.061 458.5,121.5C 455.663,126.346 451.663,129.679 446.5,131.5C 446.762,132.978 446.429,134.311 445.5,135.5C 437.5,143.5 429.5,151.5 421.5,159.5C 417.276,161.311 414.276,164.311 412.5,168.5C 409.848,170.495 407.182,172.495 404.5,174.5C 403.248,176.001 402.248,177.668 401.5,179.5C 393.306,187.614 384.64,195.28 375.5,202.5C 373.438,204.901 371.771,207.567 370.5,210.5C 358.9,218.767 348.9,228.767 340.5,240.5C 334.5,242.5 330.5,246.5 328.5,252.5C 321.264,257.729 314.597,263.729 308.5,270.5C 307.59,274.126 305.257,276.126 301.5,276.5C 299.914,278.67 298.58,281.004 297.5,283.5C 295.774,285.03 293.774,286.03 291.5,286.5C 288.87,290.132 285.87,293.465 282.5,296.5C 281.614,297.325 281.281,298.325 281.5,299.5C 280.325,299.281 279.325,299.614 278.5,300.5C 273.822,305.843 269.155,311.177 264.5,316.5C 262.775,317.015 261.108,317.682 259.5,318.5C 257.269,324.4 253.269,328.734 247.5,331.5C 243.398,335.49 239.731,339.824 236.5,344.5C 234.602,345.734 232.935,345.401 231.5,343.5C 199.973,375.939 167.973,407.939 135.5,439.5C 136.833,440.167 138.167,440.833 139.5,441.5C 137.892,442.318 136.225,442.985 134.5,443.5C 133.407,445.349 132.074,447.016 130.5,448.5C 128.5,449.833 126.5,449.833 124.5,448.5C 121.74,445.152 119.073,441.819 116.5,438.5C 107.855,431.855 99.8551,424.521 92.5,416.5C 91.1667,414.833 91.1667,413.167 92.5,411.5C 94.1667,409.833 95.8333,408.167 97.5,406.5C 91.4659,399.799 84.7992,393.799 77.5,388.5C 87.1768,379.489 96.8435,370.489 106.5,361.5C 110.183,364.187 113.517,367.187 116.5,370.5C 117.748,373.579 119.581,376.246 122,378.5C 124.687,374.979 127.853,371.979 131.5,369.5C 161.805,338.194 192.472,307.194 223.5,276.5C 220.86,274.696 218.36,272.696 216,270.5C 212.598,273.081 209.765,272.414 207.5,268.5C 206.548,266.955 206.215,265.288 206.5,263.5C 205.325,263.719 204.325,263.386 203.5,262.5C 199.139,257.807 194.805,253.141 190.5,248.5C 191.569,245.297 193.569,244.297 196.5,245.5C 198.795,248.797 201.462,251.797 204.5,254.5C 205.386,255.325 205.719,256.325 205.5,257.5C 208.986,258.953 212.653,259.619 216.5,259.5C 216.343,260.873 216.51,262.207 217,263.5C 220.706,259.295 224.54,255.295 228.5,251.5C 227.675,250.614 226.675,250.281 225.5,250.5C 225.5,249.167 225.5,247.833 225.5,246.5C 224.022,246.762 222.689,246.429 221.5,245.5C 223.108,244.682 224.775,244.015 226.5,243.5C 228.445,239.227 231.778,236.894 236.5,236.5C 241.167,231.833 245.833,227.167 250.5,222.5C 253.068,221.132 255.401,221.466 257.5,223.5C 260.488,219.843 263.488,216.176 266.5,212.5C 267.167,213.5 267.833,214.5 268.5,215.5C 269.334,213.166 270.667,211.166 272.5,209.5C 275.641,208.926 278.641,208.926 281.5,209.5C 284.016,206.817 286.683,204.317 289.5,202C 287.639,200.972 286.305,199.472 285.5,197.5C 287.842,193.79 290.842,190.79 294.5,188.5C 296.167,189.5 297.833,190.5 299.5,191.5C 320.457,170.675 341.457,149.842 362.5,129C 361.692,128.692 361.025,128.192 360.5,127.5C 362.005,126.158 362.672,124.492 362.5,122.5 Z"/></g>
<g><path style="opacity:0.004" fill="#fefffe" d="M 360.5,120.5 C 360.5,121.167 360.5,121.833 360.5,122.5C 357.833,121.833 357.833,121.167 360.5,120.5 Z"/></g>
<g><path style="opacity:0.004" fill="#dbdcdb" d="M 360.5,120.5 C 361.167,120.5 361.833,120.5 362.5,120.5C 362.5,121.167 362.5,121.833 362.5,122.5C 361.833,122.5 361.167,122.5 360.5,122.5C 360.5,121.833 360.5,121.167 360.5,120.5 Z"/></g>
<g><path style="opacity:0.004" fill="#000000" d="M 511.5,210.5 C 511.5,211.5 511.5,212.5 511.5,213.5C 412.145,312.521 313.145,411.855 214.5,511.5C 213.167,511.5 211.833,511.5 210.5,511.5C 310.173,410.494 410.506,310.161 511.5,210.5 Z"/></g>
<g><path style="opacity:0.004" fill="#000000" d="M -0.5,427.5 C 27.5221,455.189 55.1888,483.189 82.5,511.5C 81.5,511.5 80.5,511.5 79.5,511.5C 52.8273,484.827 26.1606,458.161 -0.5,431.5C -0.5,430.167 -0.5,428.833 -0.5,427.5 Z"/></g>
</svg>
