<?xml version="1.0" encoding="UTF-8"?>
<!DOCTYPE svg PUBLIC "-//W3C//DTD SVG 1.1//EN" "http://www.w3.org/Graphics/SVG/1.1/DTD/svg11.dtd">
<svg xmlns="http://www.w3.org/2000/svg" version="1.1" width="512px" height="512px" style="shape-rendering:geometricPrecision; text-rendering:geometricPrecision; image-rendering:optimizeQuality; fill-rule:evenodd; clip-rule:evenodd" xmlns:xlink="http://www.w3.org/1999/xlink">
<g><path style="opacity:1" fill="#fdfdfd" d="M 334.5,231.5 C 346.086,232.478 357.753,232.811 369.5,232.5C 369.5,247.167 369.5,261.833 369.5,276.5C 358.167,276.5 346.833,276.5 335.5,276.5C 335.378,280.838 335.045,281.172 334.5,277.5C 315.341,276.503 296.007,276.17 276.5,276.5C 276.5,294.5 276.5,312.5 276.5,330.5C 277.091,331.151 277.757,331.818 278.5,332.5C 278.154,333.696 277.654,333.696 277,332.5C 276.5,344.162 276.333,355.829 276.5,367.5C 261.833,367.5 247.167,367.5 232.5,367.5C 232.5,337.5 232.5,307.5 232.5,277.5C 214.923,277.825 197.423,277.492 180,276.5C 179.692,277.308 179.192,277.975 178.5,278.5C 177.304,278.154 177.304,277.654 178.5,277C 166.838,276.5 155.171,276.333 143.5,276.5C 143.5,261.833 143.5,247.167 143.5,232.5C 173.167,232.5 202.833,232.5 232.5,232.5C 232.83,213.659 232.497,194.993 231.5,176.5C 232.478,164.914 232.811,153.247 232.5,141.5C 247.167,141.5 261.833,141.5 276.5,141.5C 276.5,152.833 276.5,164.167 276.5,175.5C 280.838,175.622 281.172,175.955 277.5,176.5C 277.5,195.167 277.5,213.833 277.5,232.5C 296.674,232.83 315.674,232.497 334.5,231.5 Z"/></g>
<g><path style="opacity:0.004" fill="#000000" d="M 231.5,176.5 C 230.833,177.167 230.833,177.167 231.5,176.5 Z"/></g>
<g><path style="opacity:0.004" fill="#575857" d="M 278.5,217.5 C 279.833,218.167 279.833,218.167 278.5,217.5 Z"/></g>
<g><path style="opacity:0.004" fill="#000000" d="M 334.5,231.5 C 333.833,230.167 333.833,230.167 334.5,231.5 Z"/></g>
<g><path style="opacity:0.004" fill="#575857" d="M 292.5,278.5 C 293.833,279.167 293.833,279.167 292.5,278.5 Z"/></g>
<g><path style="opacity:0.179" fill="#252525" d="M 334.5,277.5 C 315.5,277.5 296.5,277.5 277.5,277.5C 277.83,295.341 277.497,313.008 276.5,330.5C 276.5,312.5 276.5,294.5 276.5,276.5C 296.007,276.17 315.341,276.503 334.5,277.5 Z"/></g>
</svg>
