<?xml version="1.0" encoding="UTF-8"?>
<!DOCTYPE svg PUBLIC "-//W3C//DTD SVG 1.1//EN" "http://www.w3.org/Graphics/SVG/1.1/DTD/svg11.dtd">
<svg xmlns="http://www.w3.org/2000/svg" version="1.1" width="1024px" height="1024px" style="shape-rendering:geometricPrecision; text-rendering:geometricPrecision; image-rendering:optimizeQuality; fill-rule:evenodd; clip-rule:evenodd" xmlns:xlink="http://www.w3.org/1999/xlink">
<g><path style="opacity:0.984" fill="#fefffe" d="M 495.5,135.5 C 618.411,133.228 720.244,177.895 801,269.5C 875.05,362.023 902.05,467.023 882,584.5C 857.44,695.671 796.606,780.505 699.5,839C 639.863,872.785 575.696,889.285 507,888.5C 399.589,885.058 308.922,844.725 235,767.5C 144.299,663.01 115.965,543.343 150,408.5C 183.278,300.557 250.445,221.391 351.5,171C 381.515,156.996 412.848,146.996 445.5,141C 462.33,139.306 478.997,137.473 495.5,135.5 Z M 543.5,168.5 C 596.662,171.832 645.996,187.332 691.5,215C 703.5,223.333 715.5,231.667 727.5,240C 734.077,245.414 734.077,250.747 727.5,256C 701.727,268.436 684.56,288.269 676,315.5C 674,324.167 674,332.833 676,341.5C 683.322,358.146 690.655,374.813 698,391.5C 699.483,400.628 698.149,409.295 694,417.5C 687.225,426.319 678.725,428.486 668.5,424C 663.884,421.44 659.718,418.273 656,414.5C 649.256,403.521 641.423,393.355 632.5,384C 610.993,370.804 591.493,373.304 574,391.5C 554.96,422.662 559.127,450.495 586.5,475C 597.549,483.692 609.883,490.025 623.5,494C 639.466,497.793 655.466,501.46 671.5,505C 704.451,512.617 723.618,533.117 729,566.5C 730.266,592.135 730.933,617.802 731,643.5C 732.333,678.049 748.5,702.549 779.5,717C 783.126,719.251 784.293,722.418 783,726.5C 768.241,745.927 751.408,763.427 732.5,779C 729.783,781.076 726.783,781.743 723.5,781C 722.874,780.25 722.374,779.416 722,778.5C 724.275,753.553 715.109,734.053 694.5,720C 670.37,707.629 648.37,710.629 628.5,729C 619.233,739.598 610.733,750.765 603,762.5C 596.207,771.3 587.707,777.8 577.5,782C 564.13,787.003 553.296,783.836 545,772.5C 541.521,759.34 538.854,746.007 537,732.5C 528.526,717.835 515.693,710.169 498.5,709.5C 474.879,710.947 460.545,723.114 455.5,746C 455.523,748.925 456.023,751.759 457,754.5C 461.925,763.353 467.591,771.686 474,779.5C 478.105,785.291 478.772,791.291 476,797.5C 469.48,803.843 461.647,807.676 452.5,809C 435.88,812.682 422.047,808.182 411,795.5C 403.699,782.86 394.865,771.36 384.5,761C 370.529,750.592 354.862,746.925 337.5,750C 329.478,751.345 322.145,754.345 315.5,759C 310.167,764.333 304.833,769.667 299.5,775C 296.634,776.457 293.634,776.79 290.5,776C 273.293,763.127 258.46,747.96 246,730.5C 244.835,726.316 246.335,723.483 250.5,722C 262.565,717.134 274.231,711.468 285.5,705C 308.315,688.421 331.982,673.088 356.5,659C 389.261,644.054 422.595,642.72 456.5,655C 464.578,657.803 472.578,660.803 480.5,664C 494.708,671.604 509.042,678.937 523.5,686C 539.617,693.394 555.95,694.061 572.5,688C 593.517,675.983 600.684,658.15 594,634.5C 586.528,610.698 572.028,592.531 550.5,580C 516.18,560.48 480.847,558.48 444.5,574C 430.287,580.94 415.953,587.607 401.5,594C 377.91,603.728 355.243,602.061 333.5,589C 316.143,572.376 314.976,554.543 330,535.5C 335.334,529.262 341.501,524.096 348.5,520C 363.31,513.097 377.643,505.43 391.5,497C 400.336,490.485 407.169,482.318 412,472.5C 417.416,456.076 412.916,443.242 398.5,434C 380.471,433.505 363.137,436.838 346.5,444C 313.942,458.358 288.109,480.524 269,510.5C 263.507,521.49 257.507,532.157 251,542.5C 240.472,558.681 225.638,565.514 206.5,563C 199.39,560.7 194.223,556.2 191,549.5C 186.714,537.549 186.714,525.549 191,513.5C 195.066,502.637 198.732,491.637 202,480.5C 204.659,469.121 202.992,458.455 197,448.5C 191.355,442.523 185.355,436.857 179,431.5C 178.598,430.128 178.098,428.795 177.5,427.5C 183.734,400.966 193.234,375.633 206,351.5C 207.765,349.226 209.932,347.559 212.5,346.5C 214.383,346.876 215.883,347.876 217,349.5C 230.487,381.329 253.987,401.163 287.5,409C 311.642,413.49 330.809,405.99 345,386.5C 347.219,382.729 348.885,378.729 350,374.5C 352.333,363.167 354.667,351.833 357,340.5C 360.121,327.396 367.621,317.896 379.5,312C 385.253,311.149 390.92,311.483 396.5,313C 401.728,315.497 404.061,319.663 403.5,325.5C 395.699,358.319 406.365,382.819 435.5,399C 467.676,406.331 491.176,395.164 506,365.5C 509.171,357.776 510.171,349.776 509,341.5C 505.962,325.309 502.795,309.142 499.5,293C 500.165,281.314 504.499,271.314 512.5,263C 514.717,261.725 517.051,260.725 519.5,260C 526.833,259.333 534.167,259.333 541.5,260C 555.234,265.134 568.901,270.468 582.5,276C 599.538,279.986 611.371,273.819 618,257.5C 620.956,241.562 616.123,228.395 603.5,218C 593.36,210.615 582.027,205.949 569.5,204C 562.458,203.731 555.458,203.064 548.5,202C 538.504,197.849 534.338,190.349 536,179.5C 537.043,174.721 539.543,171.054 543.5,168.5 Z M 423.5,176.5 C 427.902,176.228 432.235,176.561 436.5,177.5C 437.724,179.898 437.558,182.231 436,184.5C 421.24,202.631 402.073,212.465 378.5,214C 369.105,214.886 359.772,214.553 350.5,213C 348.06,210.626 348.394,208.459 351.5,206.5C 374.501,193.949 398.501,183.949 423.5,176.5 Z M 803.5,339.5 C 806.649,339.211 809.649,339.711 812.5,341C 816.208,344.91 819.042,349.41 821,354.5C 826.528,366.751 831.861,379.084 837,391.5C 838.592,395.223 838.592,398.89 837,402.5C 832.076,405.857 826.576,407.524 820.5,407.5C 804.684,407.845 792.517,401.511 784,388.5C 779.93,367.971 786.43,351.638 803.5,339.5 Z M 838.5,483.5 C 843.587,483.822 848.587,484.655 853.5,486C 856.473,488.448 857.973,491.614 858,495.5C 858.99,517.592 857.99,539.592 855,561.5C 853.904,572.933 848.071,576.433 837.5,572C 817.677,563.842 803.51,550.009 795,530.5C 792.692,509.293 801.525,494.793 821.5,487C 827.199,485.311 832.865,484.144 838.5,483.5 Z"/></g>
</svg>
