<?xml version="1.0" encoding="UTF-8"?>
<!DOCTYPE svg PUBLIC "-//W3C//DTD SVG 1.1//EN" "http://www.w3.org/Graphics/SVG/1.1/DTD/svg11.dtd">
<svg xmlns="http://www.w3.org/2000/svg" version="1.1" width="512px" height="512px" style="shape-rendering:geometricPrecision; text-rendering:geometricPrecision; image-rendering:optimizeQuality; fill-rule:evenodd; clip-rule:evenodd" xmlns:xlink="http://www.w3.org/1999/xlink">
<g><path style="opacity:0.984" fill="#fefffe" d="M 185.5,61.5 C 193.694,60.4236 199.694,63.4236 203.5,70.5C 214.743,106.255 226.409,141.755 238.5,177C 240.167,177.667 241.833,177.667 243.5,177C 244.022,176.439 244.355,175.772 244.5,175C 236.847,145.083 229.513,115.083 222.5,85C 223.071,80.7588 225.238,77.5921 229,75.5C 236.43,73.7268 241.264,76.5602 243.5,84C 253.152,117.45 263.486,150.616 274.5,183.5C 272.506,187.494 270.172,191.328 267.5,195C 262.324,208.527 255.491,221.027 247,232.5C 245.989,233.337 244.822,233.67 243.5,233.5C 237.533,220.202 231.533,206.869 225.5,193.5C 220.014,187.734 213.347,184.067 205.5,182.5C 195.728,146.875 186.061,111.208 176.5,75.5C 176.786,72.733 177.453,70.0663 178.5,67.5C 180.904,65.4177 183.237,63.4177 185.5,61.5 Z"/></g>
<g><path style="opacity:0.987" fill="#fefffe" d="M 137.5,64.5 C 142.214,64.1734 146.88,64.5067 151.5,65.5C 153.333,67.1667 155.167,68.8333 157,70.5C 169.553,104.797 182.386,138.964 195.5,173C 196.756,176.796 197.756,180.63 198.5,184.5C 192.157,185.175 186.823,187.842 182.5,192.5C 178.504,197.82 176.504,203.82 176.5,210.5C 182.21,237.301 188.543,263.967 195.5,290.5C 199.073,305.981 200.239,321.648 199,337.5C 188.481,327.136 176.981,318.136 164.5,310.5C 135.982,295.923 107.316,281.423 78.5,267C 74.6809,261.806 73.5143,255.972 75,249.5C 76.2659,246.28 78.4326,243.947 81.5,242.5C 86.1667,241.167 90.8333,241.167 95.5,242.5C 111.269,247.074 127.102,251.408 143,255.5C 146.5,255.333 148.333,253.5 148.5,250C 145.508,235.2 141.508,220.7 136.5,206.5C 122.142,174.919 107.309,143.585 92,112.5C 88.8898,101.182 92.8898,94.182 104,91.5C 108.024,91.9103 111.691,93.2436 115,95.5C 132.935,129.704 150.602,164.038 168,198.5C 168.827,197.338 169.66,196.171 170.5,195C 157.398,157.763 144.064,120.596 130.5,83.5C 129.292,79.0045 129.792,74.6712 132,70.5C 134.431,68.9084 136.265,66.9084 137.5,64.5 Z"/></g>
<g><path style="opacity:0.992" fill="#fefffe" d="M 323.5,112.5 C 335.042,110.821 341.709,115.654 343.5,127C 329.837,159.985 316.171,192.985 302.5,226C 301.167,228 299.833,230 298.5,232C 299.319,233.319 300.319,234.485 301.5,235.5C 323.125,200.484 344.292,165.151 365,129.5C 378.106,121.445 386.606,124.778 390.5,139.5C 387.514,145.984 384.514,152.484 381.5,159C 363.585,188.216 346.251,217.883 329.5,248C 328.851,249.69 328.851,251.523 329.5,253.5C 332.157,253.838 334.49,253.171 336.5,251.5C 350.161,230.857 364.327,210.524 379,190.5C 384.829,180.196 391.662,170.529 399.5,161.5C 404.169,159.284 409.003,158.951 414,160.5C 415.44,162.369 417.107,164.035 419,165.5C 419.653,168.218 420.487,170.884 421.5,173.5C 418.312,181.277 414.479,188.61 410,195.5C 405.309,201.179 401.476,207.345 398.5,214C 396.343,217.061 394.01,220.061 391.5,223C 381.098,240.598 370.431,257.931 359.5,275C 361.384,278.446 364.051,279.28 367.5,277.5C 368.81,274.003 370.476,270.67 372.5,267.5C 389.608,246.005 406.275,224.171 422.5,202C 433.974,200.469 438.474,205.302 436,216.5C 413.625,251.775 390.792,286.775 367.5,321.5C 362.012,328.459 356.512,335.459 351,342.5C 346.259,346.072 342.425,350.405 339.5,355.5C 328.367,367.108 317.701,379.108 307.5,391.5C 303.226,398.927 299.226,406.594 295.5,414.5C 292.657,421.556 291.324,428.89 291.5,436.5C 292.675,436.281 293.675,436.614 294.5,437.5C 295.171,439.507 296.171,441.34 297.5,443C 296.293,444.3 295.626,445.8 295.5,447.5C 293.723,447.786 292.056,448.453 290.5,449.5C 288.164,448.082 285.664,447.082 283,446.5C 252.27,429.927 221.27,413.927 190,398.5C 187.493,396.59 184.993,394.59 182.5,392.5C 181.484,389.866 181.484,387.2 182.5,384.5C 184.367,384.045 186.2,383.378 188,382.5C 189.667,383.167 191.333,383.833 193,384.5C 193.833,384.167 194.667,383.833 195.5,383.5C 206.804,367.71 212.47,349.876 212.5,330C 211.782,316.715 210.115,303.548 207.5,290.5C 201.576,263.397 195.243,236.397 188.5,209.5C 190.956,197.645 198.123,193.311 210,196.5C 211.887,196.969 213.387,197.969 214.5,199.5C 223.103,217.266 231.103,235.266 238.5,253.5C 240.143,253.48 241.476,254.147 242.5,255.5C 250.159,247.265 257.325,238.599 264,229.5C 265.273,227.286 266.273,224.953 267,222.5C 268.844,220.989 270.344,219.155 271.5,217C 285.828,184.842 300.495,152.842 315.5,121C 318.097,117.862 320.763,115.029 323.5,112.5 Z"/></g>
</svg>
