<?xml version="1.0" encoding="UTF-8"?>
<!DOCTYPE svg PUBLIC "-//W3C//DTD SVG 1.1//EN" "http://www.w3.org/Graphics/SVG/1.1/DTD/svg11.dtd">
<svg xmlns="http://www.w3.org/2000/svg" version="1.1" width="512px" height="512px" style="shape-rendering:geometricPrecision; text-rendering:geometricPrecision; image-rendering:optimizeQuality; fill-rule:evenodd; clip-rule:evenodd" xmlns:xlink="http://www.w3.org/1999/xlink">
<g><path style="opacity:0.004" fill="#070807" d="M 74.5,30.5 C 195.167,30.5 315.833,30.5 436.5,30.5C 436.5,180.833 436.5,331.167 436.5,481.5C 315.833,481.5 195.167,481.5 74.5,481.5C 74.5,331.167 74.5,180.833 74.5,30.5 Z M 75.5,31.5 C 195.5,31.5 315.5,31.5 435.5,31.5C 435.5,181.167 435.5,330.833 435.5,480.5C 315.5,480.5 195.5,480.5 75.5,480.5C 75.5,330.833 75.5,181.167 75.5,31.5 Z"/></g>
<g><path style="opacity:1" fill="#fefefe" d="M 210.5,48.5 C 211.34,50.8525 212.674,52.8525 214.5,54.5C 214.427,56.0269 215.094,57.0269 216.5,57.5C 216.5,58.8333 217.167,59.5 218.5,59.5C 219.401,60.2905 220.068,61.2905 220.5,62.5C 220.5,63.8333 221.167,64.5 222.5,64.5C 222.5,66.5 223.5,67.5 225.5,67.5C 225.5,69.5 226.5,70.5 228.5,70.5C 229.71,70.9321 230.71,71.5987 231.5,72.5C 232.733,74.7964 234.733,76.1298 237.5,76.5C 239.403,76.7959 241.07,77.4625 242.5,78.5C 242.918,79.2216 243.584,79.7216 244.5,80C 251.833,82 259.167,82 266.5,80C 267.416,79.7216 268.082,79.2216 268.5,78.5C 269.209,77.596 270.209,77.2627 271.5,77.5C 273.38,77.7709 274.713,77.1042 275.5,75.5C 275.842,74.6618 276.508,74.3284 277.5,74.5C 279.795,73.8645 281.461,72.5311 282.5,70.5C 284.404,70.2624 285.738,69.2624 286.5,67.5C 286.5,66.8333 286.833,66.5 287.5,66.5C 289.914,65.0892 291.581,63.0892 292.5,60.5C 292.5,59.8333 292.833,59.5 293.5,59.5C 294.906,59.0269 295.573,58.0269 295.5,56.5C 296.906,56.0269 297.573,55.0269 297.5,53.5C 298.906,53.0269 299.573,52.0269 299.5,50.5C 300.872,49.4884 302.205,48.4884 303.5,47.5C 306.293,46.254 308.96,46.5873 311.5,48.5C 313.684,50.5848 316.351,51.5848 319.5,51.5C 322.744,52.4629 325.744,53.7962 328.5,55.5C 332.444,57.9637 336.777,59.6303 341.5,60.5C 343.403,60.7959 345.07,61.4625 346.5,62.5C 350.459,64.9734 354.793,66.6401 359.5,67.5C 362.744,68.4629 365.744,69.7962 368.5,71.5C 372.444,73.9637 376.777,75.6303 381.5,76.5C 383.403,76.7959 385.07,77.4625 386.5,78.5C 387.78,79.9313 389.447,80.5979 391.5,80.5C 392.514,81.6737 393.847,82.3404 395.5,82.5C 397.262,83.2623 398.262,84.5956 398.5,86.5C 398.69,90.0318 398.023,93.3652 396.5,96.5C 395.07,100.354 393.403,104.021 391.5,107.5C 389.787,108.635 389.12,110.302 389.5,112.5C 386.952,115.996 385.619,119.996 385.5,124.5C 383.158,132.355 381.825,140.521 381.5,149C 381.486,153.411 382.153,157.578 383.5,161.5C 383.434,167.279 384.767,172.613 387.5,177.5C 388.338,177.842 388.672,178.508 388.5,179.5C 388.66,181.153 389.326,182.486 390.5,183.5C 391.674,184.514 392.34,185.847 392.5,187.5C 392.427,189.027 393.094,190.027 394.5,190.5C 394.427,192.027 395.094,193.027 396.5,193.5C 397.08,195.749 398.413,197.415 400.5,198.5C 401.167,201.167 402.833,202.833 405.5,203.5C 406.167,206.167 407.833,207.833 410.5,208.5C 411.833,209.167 412.833,210.167 413.5,211.5C 413.427,213.027 414.094,214.027 415.5,214.5C 415.5,226.167 415.5,237.833 415.5,249.5C 416.5,249.5 417.5,249.5 418.5,249.5C 420.027,249.427 421.027,250.094 421.5,251.5C 421.461,252.756 421.961,253.756 423,254.5C 423.5,268.163 423.667,281.829 423.5,295.5C 423.5,296.167 423.167,296.5 422.5,296.5C 421.167,297.167 420.167,298.167 419.5,299.5C 418.167,299.5 416.833,299.5 415.5,299.5C 415.5,310.833 415.5,322.167 415.5,333.5C 416.5,333.5 417.5,333.5 418.5,333.5C 419.795,334.488 421.128,335.488 422.5,336.5C 423.466,350.785 423.8,365.118 423.5,379.5C 423.068,380.71 422.401,381.71 421.5,382.5C 419.5,382.833 417.5,383.167 415.5,383.5C 415.803,399.214 415.469,414.881 414.5,430.5C 413.167,431.167 412.167,432.167 411.5,433.5C 407.206,435.816 402.54,437.15 397.5,437.5C 392.651,438.216 387.985,439.216 383.5,440.5C 377.903,440.77 372.57,441.77 367.5,443.5C 316.03,449.959 264.364,452.292 212.5,450.5C 203.016,449.372 193.349,448.705 183.5,448.5C 170.375,446.294 157.042,444.628 143.5,443.5C 141.585,443.784 139.919,443.451 138.5,442.5C 135.054,441.313 131.387,440.646 127.5,440.5C 119.846,439.751 112.513,438.084 105.5,435.5C 102.965,433.983 100.298,432.65 97.5,431.5C 97.2914,430.078 96.7914,428.745 96,427.5C 95.5001,412.837 95.3334,398.17 95.5,383.5C 94.5,383.5 93.5,383.5 92.5,383.5C 89.909,382.746 88.0757,381.079 87,378.5C 86.173,364.994 86.3396,351.66 87.5,338.5C 88.9063,338.027 89.573,337.027 89.5,335.5C 91.0269,335.573 92.0269,334.906 92.5,333.5C 93.5,333.5 94.5,333.5 95.5,333.5C 95.8279,322.321 95.4946,311.321 94.5,300.5C 93.1007,299.11 91.4341,298.11 89.5,297.5C 88.2101,296.942 87.3768,295.942 87,294.5C 86.173,280.994 86.3396,267.66 87.5,254.5C 88.9063,254.027 89.573,253.027 89.5,251.5C 91.0269,251.573 92.0269,250.906 92.5,249.5C 93.5,249.5 94.5,249.5 95.5,249.5C 95.5,237.5 95.5,225.5 95.5,213.5C 95.6596,211.847 96.3263,210.514 97.5,209.5C 99.1788,209.715 100.179,209.048 100.5,207.5C 100.5,206.833 100.833,206.5 101.5,206.5C 103.404,206.262 104.738,205.262 105.5,203.5C 108.5,202.5 110.5,200.5 111.5,197.5C 112.5,195.833 113.833,194.5 115.5,193.5C 116.906,193.027 117.573,192.027 117.5,190.5C 119.048,190.179 119.715,189.179 119.5,187.5C 121.25,186.341 122.25,184.674 122.5,182.5C 122.328,181.508 122.662,180.842 123.5,180.5C 125.293,178.574 126.293,176.241 126.5,173.5C 126.232,171.901 126.566,170.568 127.5,169.5C 128.268,168.737 128.768,167.737 129,166.5C 131.148,155.647 130.982,144.98 128.5,134.5C 128.213,127.7 126.546,121.367 123.5,115.5C 122.597,111.111 120.931,107.111 118.5,103.5C 117.892,100.594 116.559,98.2604 114.5,96.5C 113.662,96.1583 113.328,95.4916 113.5,94.5C 113.38,92.8014 113.046,91.1347 112.5,89.5C 113.178,87.484 113.844,85.484 114.5,83.5C 114.842,82.6618 115.508,82.3284 116.5,82.5C 118.027,82.573 119.027,81.9063 119.5,80.5C 122.54,78.6541 125.873,77.3208 129.5,76.5C 131.786,76.405 133.786,75.7384 135.5,74.5C 136.514,73.3263 137.847,72.6596 139.5,72.5C 145.267,71.469 150.601,69.469 155.5,66.5C 157.153,66.3404 158.486,65.6737 159.5,64.5C 160.93,63.4625 162.597,62.7959 164.5,62.5C 168.533,61.9751 172.2,60.6418 175.5,58.5C 176.514,57.3263 177.847,56.6596 179.5,56.5C 185.987,55.2503 191.987,52.917 197.5,49.5C 201.658,46.1292 205.992,45.7959 210.5,48.5 Z"/></g>
<g><path style="opacity:0.004" fill="#181818" d="M 311.5,48.5 C 314.443,48.9802 317.11,49.9802 319.5,51.5C 316.351,51.5848 313.684,50.5848 311.5,48.5 Z"/></g>
<g><path style="opacity:0.004" fill="#1e1e1e" d="M 303.5,47.5 C 302.205,48.4884 300.872,49.4884 299.5,50.5C 299.694,48.0882 301.027,47.0882 303.5,47.5 Z"/></g>
<g><path style="opacity:0.996" fill="#6a6a6a" d="M 299.5,50.5 C 299.573,52.0269 298.906,53.0269 297.5,53.5C 297.427,51.9731 298.094,50.9731 299.5,50.5 Z"/></g>
<g><path style="opacity:0.004" fill="#181818" d="M 197.5,49.5 C 191.987,52.917 185.987,55.2503 179.5,56.5C 185.22,53.6472 191.22,51.3138 197.5,49.5 Z"/></g>
<g><path style="opacity:0.004" fill="#212121" d="M 210.5,48.5 C 212.822,49.8021 214.155,51.8021 214.5,54.5C 212.674,52.8525 211.34,50.8525 210.5,48.5 Z"/></g>
<g><path style="opacity:0.004" fill="#282828" d="M 297.5,53.5 C 297.573,55.0269 296.906,56.0269 295.5,56.5C 295.427,54.9731 296.094,53.9731 297.5,53.5 Z"/></g>
<g><path style="opacity:0.004" fill="#282828" d="M 214.5,54.5 C 215.906,54.9731 216.573,55.9731 216.5,57.5C 215.094,57.0269 214.427,56.0269 214.5,54.5 Z"/></g>
<g><path style="opacity:0.004" fill="#171717" d="M 328.5,55.5 C 333.207,56.3599 337.541,58.0266 341.5,60.5C 336.777,59.6303 332.444,57.9637 328.5,55.5 Z"/></g>
<g><path style="opacity:0.996" fill="#333333" d="M 216.5,57.5 C 217.5,57.8333 218.167,58.5 218.5,59.5C 217.167,59.5 216.5,58.8333 216.5,57.5 Z"/></g>
<g><path style="opacity:0.004" fill="#1b1b1b" d="M 295.5,56.5 C 295.573,58.0269 294.906,59.0269 293.5,59.5C 293.427,57.9731 294.094,56.9731 295.5,56.5 Z"/></g>
<g><path style="opacity:0.004" fill="#191919" d="M 175.5,58.5 C 172.2,60.6418 168.533,61.9751 164.5,62.5C 167.8,60.3582 171.467,59.0249 175.5,58.5 Z"/></g>
<g><path style="opacity:0.78" fill="#191919" d="M 220.5,62.5 C 221.5,62.8333 222.167,63.5 222.5,64.5C 221.167,64.5 220.5,63.8333 220.5,62.5 Z"/></g>
<g><path style="opacity:0.996" fill="#1c1c1c" d="M 159.5,64.5 C 158.486,65.6737 157.153,66.3404 155.5,66.5C 156.287,64.8958 157.62,64.2291 159.5,64.5 Z"/></g>
<g><path style="opacity:0.004" fill="#1b1b1b" d="M 292.5,60.5 C 291.581,63.0892 289.914,65.0892 287.5,66.5C 288.419,63.9108 290.086,61.9108 292.5,60.5 Z"/></g>
<g><path style="opacity:0.004" fill="#191919" d="M 346.5,62.5 C 351.223,63.3697 355.556,65.0363 359.5,67.5C 354.793,66.6401 350.459,64.9734 346.5,62.5 Z"/></g>
<g><path style="opacity:0.004" fill="#242424" d="M 222.5,64.5 C 223.833,65.1667 224.833,66.1667 225.5,67.5C 223.5,67.5 222.5,66.5 222.5,64.5 Z"/></g>
<g><path style="opacity:0.004" fill="#121212" d="M 286.5,67.5 C 285.738,69.2624 284.404,70.2624 282.5,70.5C 283.262,68.7376 284.596,67.7376 286.5,67.5 Z"/></g>
<g><path style="opacity:0.004" fill="#1b1b1b" d="M 155.5,66.5 C 150.601,69.469 145.267,71.469 139.5,72.5C 144.555,69.9239 149.888,67.9239 155.5,66.5 Z"/></g>
<g><path style="opacity:0.996" fill="#353535" d="M 225.5,67.5 C 226.833,68.1667 227.833,69.1667 228.5,70.5C 226.5,70.5 225.5,69.5 225.5,67.5 Z"/></g>
<g><path style="opacity:0.996" fill="#343434" d="M 282.5,70.5 C 281.461,72.5311 279.795,73.8645 277.5,74.5C 278.579,72.457 280.246,71.1237 282.5,70.5 Z"/></g>
<g><path style="opacity:0.004" fill="#171717" d="M 368.5,71.5 C 373.207,72.3599 377.541,74.0266 381.5,76.5C 376.777,75.6303 372.444,73.9637 368.5,71.5 Z"/></g>
<g><path style="opacity:0.004" fill="#0f0f0f" d="M 135.5,74.5 C 133.786,75.7384 131.786,76.405 129.5,76.5C 131.102,74.9261 133.102,74.2594 135.5,74.5 Z"/></g>
<g><path style="opacity:0.004" fill="#262626" d="M 231.5,72.5 C 233.882,73.3507 235.882,74.684 237.5,76.5C 234.733,76.1298 232.733,74.7964 231.5,72.5 Z"/></g>
<g><path style="opacity:0.004" fill="#181818" d="M 275.5,75.5 C 274.713,77.1042 273.38,77.7709 271.5,77.5C 272.514,76.3263 273.847,75.6596 275.5,75.5 Z"/></g>
<g><path style="opacity:0.004" fill="#111111" d="M 386.5,78.5 C 388.553,78.4021 390.22,79.0687 391.5,80.5C 389.447,80.5979 387.78,79.9313 386.5,78.5 Z"/></g>
<g><path style="opacity:0.004" fill="#1e1e1e" d="M 242.5,78.5 C 251.167,79.8333 259.833,79.8333 268.5,78.5C 268.082,79.2216 267.416,79.7216 266.5,80C 259.167,82 251.833,82 244.5,80C 243.584,79.7216 242.918,79.2216 242.5,78.5 Z"/></g>
<g><path style="opacity:0.004" fill="#1b1b1b" d="M 391.5,80.5 C 393.38,80.2291 394.713,80.8958 395.5,82.5C 393.847,82.3404 392.514,81.6737 391.5,80.5 Z"/></g>
<g><path style="opacity:0.996" fill="#585858" d="M 119.5,80.5 C 119.027,81.9063 118.027,82.573 116.5,82.5C 116.973,81.0937 117.973,80.427 119.5,80.5 Z"/></g>
<g><path style="opacity:0.004" fill="#1b1b1b" d="M 114.5,83.5 C 113.844,85.484 113.178,87.484 112.5,89.5C 113.046,91.1347 113.38,92.8014 113.5,94.5C 112.102,93.2233 111.436,91.5566 111.5,89.5C 111.467,86.8984 112.467,84.8984 114.5,83.5 Z"/></g>
<g><path style="opacity:0.004" fill="#1a1a1a" d="M 398.5,86.5 C 399.629,88.6282 399.796,90.9615 399,93.5C 398.623,94.9423 397.79,95.9423 396.5,96.5C 398.023,93.3652 398.69,90.0318 398.5,86.5 Z"/></g>
<g><path style="opacity:0.004" fill="#1c1c1c" d="M 114.5,96.5 C 116.559,98.2604 117.892,100.594 118.5,103.5C 116.428,101.65 115.095,99.3171 114.5,96.5 Z"/></g>
<g><path style="opacity:0.004" fill="#171717" d="M 118.5,103.5 C 120.931,107.111 122.597,111.111 123.5,115.5C 121.069,111.889 119.403,107.889 118.5,103.5 Z"/></g>
<g><path style="opacity:0.004" fill="#121212" d="M 391.5,107.5 C 391.204,109.403 390.537,111.07 389.5,112.5C 389.12,110.302 389.787,108.635 391.5,107.5 Z"/></g>
<g><path style="opacity:0.004" fill="#141414" d="M 389.5,112.5 C 388.46,116.685 387.127,120.685 385.5,124.5C 385.619,119.996 386.952,115.996 389.5,112.5 Z"/></g>
<g><path style="opacity:0.004" fill="#141414" d="M 123.5,115.5 C 126.546,121.367 128.213,127.7 128.5,134.5C 126.668,128.315 125.001,121.982 123.5,115.5 Z"/></g>
<g><path style="opacity:0.004" fill="#101010" d="M 385.5,124.5 C 382.926,136.747 382.26,149.08 383.5,161.5C 382.153,157.578 381.486,153.411 381.5,149C 381.825,140.521 383.158,132.355 385.5,124.5 Z"/></g>
<g><path style="opacity:0.004" fill="#191919" d="M 128.5,134.5 C 130.982,144.98 131.148,155.647 129,166.5C 128.768,167.737 128.268,168.737 127.5,169.5C 129.628,157.883 129.962,146.217 128.5,134.5 Z"/></g>
<g><path style="opacity:0.004" fill="#131313" d="M 383.5,161.5 C 384.995,166.679 386.329,172.012 387.5,177.5C 384.767,172.613 383.434,167.279 383.5,161.5 Z"/></g>
<g><path style="opacity:0.004" fill="#1b1b1b" d="M 126.5,173.5 C 126.293,176.241 125.293,178.574 123.5,180.5C 123.707,177.759 124.707,175.426 126.5,173.5 Z"/></g>
<g><path style="opacity:0.004" fill="#171717" d="M 388.5,179.5 C 390.104,180.287 390.771,181.62 390.5,183.5C 389.326,182.486 388.66,181.153 388.5,179.5 Z"/></g>
<g><path style="opacity:0.004" fill="#202020" d="M 122.5,182.5 C 122.25,184.674 121.25,186.341 119.5,187.5C 119.75,185.326 120.75,183.659 122.5,182.5 Z"/></g>
<g><path style="opacity:0.996" fill="#686868" d="M 119.5,187.5 C 119.715,189.179 119.048,190.179 117.5,190.5C 117.932,189.29 118.599,188.29 119.5,187.5 Z"/></g>
<g><path style="opacity:0.004" fill="#2b2b2b" d="M 392.5,187.5 C 393.906,187.973 394.573,188.973 394.5,190.5C 393.094,190.027 392.427,189.027 392.5,187.5 Z"/></g>
<g><path style="opacity:0.996" fill="#585858" d="M 117.5,190.5 C 117.573,192.027 116.906,193.027 115.5,193.5C 115.427,191.973 116.094,190.973 117.5,190.5 Z"/></g>
<g><path style="opacity:0.004" fill="#181818" d="M 394.5,190.5 C 395.906,190.973 396.573,191.973 396.5,193.5C 395.094,193.027 394.427,192.027 394.5,190.5 Z"/></g>
<g><path style="opacity:0.004" fill="#2f2f2f" d="M 396.5,193.5 C 398.587,194.585 399.92,196.251 400.5,198.5C 398.413,197.415 397.08,195.749 396.5,193.5 Z"/></g>
<g><path style="opacity:0.996" fill="#4f4f4f" d="M 400.5,198.5 C 402.5,199.833 404.167,201.5 405.5,203.5C 402.833,202.833 401.167,201.167 400.5,198.5 Z"/></g>
<g><path style="opacity:0.996" fill="#7a7a7a" d="M 111.5,197.5 C 110.5,200.5 108.5,202.5 105.5,203.5C 107.167,201.167 109.167,199.167 111.5,197.5 Z"/></g>
<g><path style="opacity:0.004" fill="#0f0f0f" d="M 105.5,203.5 C 104.738,205.262 103.404,206.262 101.5,206.5C 102.262,204.738 103.596,203.738 105.5,203.5 Z"/></g>
<g><path style="opacity:0.996" fill="#333333" d="M 405.5,203.5 C 407.5,204.833 409.167,206.5 410.5,208.5C 407.833,207.833 406.167,206.167 405.5,203.5 Z"/></g>
<g><path style="opacity:0.996" fill="#5f5f5f" d="M 100.5,207.5 C 100.179,209.048 99.1788,209.715 97.5,209.5C 98.2905,208.599 99.2905,207.932 100.5,207.5 Z"/></g>
<g><path style="opacity:0.004" fill="#070807" d="M 95.5,213.5 C 95.5,225.5 95.5,237.5 95.5,249.5C 94.5,249.5 93.5,249.5 92.5,249.5C 94.125,237.572 95.125,225.572 95.5,213.5 Z"/></g>
<g><path style="opacity:0.004" fill="#2e2e2e" d="M 413.5,211.5 C 414.906,211.973 415.573,212.973 415.5,214.5C 414.094,214.027 413.427,213.027 413.5,211.5 Z"/></g>
<g><path style="opacity:0.004" fill="#070807" d="M 415.5,214.5 C 415.876,226.24 416.876,237.906 418.5,249.5C 417.5,249.5 416.5,249.5 415.5,249.5C 415.5,237.833 415.5,226.167 415.5,214.5 Z"/></g>
<g><path style="opacity:0.996" fill="#3b3b3b" d="M 92.5,249.5 C 92.0269,250.906 91.0269,251.573 89.5,251.5C 89.9731,250.094 90.9731,249.427 92.5,249.5 Z"/></g>
<g><path style="opacity:0.996" fill="#353535" d="M 89.5,251.5 C 89.573,253.027 88.9063,254.027 87.5,254.5C 87.427,252.973 88.0937,251.973 89.5,251.5 Z"/></g>
<g><path style="opacity:0.004" fill="#111111" d="M 421.5,251.5 C 422.458,251.953 423.292,252.619 424,253.5C 424.827,267.673 424.661,281.673 423.5,295.5C 423.667,281.829 423.5,268.163 423,254.5C 421.961,253.756 421.461,252.756 421.5,251.5 Z"/></g>
<g><path style="opacity:0.996" fill="#323232" d="M 89.5,297.5 C 91.4341,298.11 93.1007,299.11 94.5,300.5C 92.0672,300.727 90.4006,299.727 89.5,297.5 Z"/></g>
<g><path style="opacity:0.004" fill="#111111" d="M 422.5,296.5 C 422.5,298.5 421.5,299.5 419.5,299.5C 420.167,298.167 421.167,297.167 422.5,296.5 Z"/></g>
<g><path style="opacity:0.004" fill="#070807" d="M 94.5,300.5 C 95.4946,311.321 95.8279,322.321 95.5,333.5C 94.5,333.5 93.5,333.5 92.5,333.5C 94.4421,322.755 95.1088,311.755 94.5,300.5 Z"/></g>
<g><path style="opacity:0.004" fill="#0c0c0c" d="M 419.5,299.5 C 418.828,300.267 417.995,300.934 417,301.5C 416.833,306.667 416.667,311.833 416.5,317C 416.549,322.744 417.216,328.244 418.5,333.5C 417.5,333.5 416.5,333.5 415.5,333.5C 415.5,322.167 415.5,310.833 415.5,299.5C 416.833,299.5 418.167,299.5 419.5,299.5 Z"/></g>
<g><path style="opacity:0.004" fill="#0f0f0f" d="M 418.5,333.5 C 420.973,333.088 422.306,334.088 422.5,336.5C 421.128,335.488 419.795,334.488 418.5,333.5 Z"/></g>
<g><path style="opacity:0.996" fill="#5e5e5e" d="M 92.5,333.5 C 92.0269,334.906 91.0269,335.573 89.5,335.5C 89.9731,334.094 90.9731,333.427 92.5,333.5 Z"/></g>
<g><path style="opacity:0.004" fill="#191919" d="M 89.5,335.5 C 89.573,337.027 88.9063,338.027 87.5,338.5C 87.427,336.973 88.0937,335.973 89.5,335.5 Z"/></g>
<g><path style="opacity:0.004" fill="#0d0d0d" d="M 422.5,336.5 C 423.117,336.611 423.617,336.944 424,337.5C 424.827,351.673 424.661,365.673 423.5,379.5C 423.8,365.118 423.466,350.785 422.5,336.5 Z"/></g>
<g><path style="opacity:0.004" fill="#0c0c0c" d="M 92.5,383.5 C 93.5,383.5 94.5,383.5 95.5,383.5C 95.3334,398.17 95.5001,412.837 96,427.5C 96.7914,428.745 97.2914,430.078 97.5,431.5C 96.2101,430.942 95.3768,429.942 95,428.5C 95.1274,413.262 94.2941,398.262 92.5,383.5 Z"/></g>
<g><path style="opacity:0.004" fill="#0a0a0a" d="M 421.5,382.5 C 420.22,383.931 418.553,384.598 416.5,384.5C 416.667,399.504 416.5,414.504 416,429.5C 415.617,430.056 415.117,430.389 414.5,430.5C 415.469,414.881 415.803,399.214 415.5,383.5C 417.5,383.167 419.5,382.833 421.5,382.5 Z"/></g>
<g><path style="opacity:0.004" fill="#111111" d="M 414.5,430.5 C 414.5,432.5 413.5,433.5 411.5,433.5C 412.167,432.167 413.167,431.167 414.5,430.5 Z"/></g>
<g><path style="opacity:0.004" fill="#2d2d2d" d="M 97.5,431.5 C 100.298,432.65 102.965,433.983 105.5,435.5C 102.079,435.482 99.4121,434.149 97.5,431.5 Z"/></g>
<g><path style="opacity:0.004" fill="#141414" d="M 397.5,437.5 C 393.213,439.735 388.546,440.735 383.5,440.5C 387.985,439.216 392.651,438.216 397.5,437.5 Z"/></g>
<g><path style="opacity:0.004" fill="#111111" d="M 127.5,440.5 C 131.387,440.646 135.054,441.313 138.5,442.5C 134.542,442.749 130.876,442.082 127.5,440.5 Z"/></g>
<g><path style="opacity:0.004" fill="#111111" d="M 383.5,440.5 C 378.43,442.23 373.097,443.23 367.5,443.5C 372.57,441.77 377.903,440.77 383.5,440.5 Z"/></g>
<g><path style="opacity:0.004" fill="#161616" d="M 143.5,443.5 C 157.042,444.628 170.375,446.294 183.5,448.5C 169.897,447.935 156.564,446.269 143.5,443.5 Z"/></g>
<g><path style="opacity:0.004" fill="#181818" d="M 367.5,443.5 C 338.207,448.623 308.541,451.456 278.5,452C 256.312,452.851 234.312,452.351 212.5,450.5C 264.364,452.292 316.03,449.959 367.5,443.5 Z"/></g>
<g><path style="opacity:0.004" fill="#101010" d="M 183.5,448.5 C 193.349,448.705 203.016,449.372 212.5,450.5C 202.612,450.858 192.945,450.192 183.5,448.5 Z"/></g>
</svg>
