<?xml version="1.0" encoding="UTF-8"?>
<!DOCTYPE svg PUBLIC "-//W3C//DTD SVG 1.1//EN" "http://www.w3.org/Graphics/SVG/1.1/DTD/svg11.dtd">
<svg xmlns="http://www.w3.org/2000/svg" version="1.1" width="1024px" height="1024px" style="shape-rendering:geometricPrecision; text-rendering:geometricPrecision; image-rendering:optimizeQuality; fill-rule:evenodd; clip-rule:evenodd" xmlns:xlink="http://www.w3.org/1999/xlink">
<g><path style="opacity:1" fill="#fefffe" d="M 385.5,321.5 C 404.196,321.146 422.862,321.646 441.5,323C 448.948,324.939 455.281,328.773 460.5,334.5C 462.18,331.425 464.846,329.925 468.5,330C 486.138,327.472 503.138,329.805 519.5,337C 528.888,341.444 538.055,346.277 547,351.5C 555.155,344.68 563.322,337.847 571.5,331C 578.077,326.807 585.244,324.64 593,324.5C 606.979,325.746 620.812,327.913 634.5,331C 642.583,334.758 647.249,341.091 648.5,350C 656.131,351.04 663.798,351.706 671.5,352C 721.486,354.196 771.486,355.529 821.5,356C 821.583,352.638 821.75,349.138 822,345.5C 822.273,343.671 823.107,342.171 824.5,341C 862.136,332.773 899.469,333.773 936.5,344C 938.081,344.707 939.581,345.54 941,346.5C 941.584,350.095 942.418,353.595 943.5,357C 949.833,357.333 956.167,357.667 962.5,358C 964.317,359.8 965.484,361.966 966,364.5C 966.361,443.107 965.694,521.774 964,600.5C 963.293,602.081 962.46,603.581 961.5,605C 955.167,605.333 948.833,605.667 942.5,606C 941.697,610.414 941.197,614.914 941,619.5C 940.154,621.847 938.654,623.68 936.5,625C 916.587,631.791 896.087,635.291 875,635.5C 858.074,635.016 841.24,633.516 824.5,631C 823.069,630.535 821.903,629.701 821,628.5C 820.762,624.778 820.262,621.111 819.5,617.5C 814.667,617.167 809.833,616.833 805,616.5C 761.178,618.883 717.344,621.049 673.5,623C 665.115,623.559 656.781,624.393 648.5,625.5C 647.002,630.155 645.502,634.822 644,639.5C 641.736,642.433 638.902,644.6 635.5,646C 620.829,649.429 605.995,651.929 591,653.5C 584.357,653.261 578.19,651.428 572.5,648C 563.916,642.087 555.916,635.42 548.5,628C 546.487,626.743 544.321,625.909 542,625.5C 529.271,632.778 515.771,638.278 501.5,642C 487.91,645.441 474.41,645.274 461,641.5C 458.167,643 456,645.167 454.5,648C 450.951,650.878 446.951,652.878 442.5,654C 423.852,655.4 405.185,655.733 386.5,655C 384.5,653.333 382.5,651.667 380.5,650C 362.141,649.851 343.808,649.185 325.5,648C 314.345,645.519 309.845,638.686 312,627.5C 311.5,627 311,626.5 310.5,626C 291.031,624.064 271.531,622.564 252,621.5C 249.966,621.354 248.299,622.02 247,623.5C 246.667,626.167 246.333,628.833 246,631.5C 245.097,632.701 243.931,633.535 242.5,634C 234.629,634.594 226.796,635.427 219,636.5C 205.415,634.583 191.915,632.25 178.5,629.5C 177.732,625.555 177.232,621.555 177,617.5C 176.801,615.598 175.967,614.098 174.5,613C 145.085,608.85 115.751,604.184 86.5,599C 79.3185,597.606 72.3185,595.606 65.5,593C 59.9158,589 57.0825,583.5 57,576.5C 56.7671,519.33 56.2671,462.163 55.5,405C 55.5278,396.802 56.0278,388.635 57,380.5C 58.1217,378.376 59.6217,376.543 61.5,375C 68.8601,371.91 76.5268,369.91 84.5,369C 113.839,365.666 143.173,362.332 172.5,359C 173.416,358.626 174.25,358.126 175,357.5C 175.308,351.748 176.141,346.081 177.5,340.5C 190.854,338.664 204.187,336.664 217.5,334.5C 225.798,335.427 234.132,336.26 242.5,337C 243.701,337.903 244.535,339.069 245,340.5C 245.232,344.555 245.732,348.555 246.5,352.5C 267.828,352.725 289.161,351.892 310.5,350C 311.833,346 311.833,342 310.5,338C 311.092,334.968 312.426,332.302 314.5,330C 320.919,325.041 328.253,322.708 336.5,323C 353.005,322.831 369.338,322.331 385.5,321.5 Z M 352.5,343.5 C 358.093,343.193 363.593,343.527 369,344.5C 368.486,364.153 367.819,383.82 367,403.5C 365.333,404.833 363.667,404.833 362,403.5C 361.901,386.425 360.901,369.425 359,352.5C 356.538,351.35 354.204,350.017 352,348.5C 352.019,346.893 352.185,345.226 352.5,343.5 Z M 593.5,349.5 C 595.252,349.418 596.252,350.251 596.5,352C 595.796,355.128 595.296,358.294 595,361.5C 594.667,375.5 594.333,389.5 594,403.5C 591.791,405.706 589.291,406.04 586.5,404.5C 584.69,387.02 585.524,369.687 589,352.5C 590.409,351.219 591.909,350.219 593.5,349.5 Z M 919.5,359.5 C 923.161,359.426 923.828,360.426 921.5,362.5C 920.081,361.995 919.415,360.995 919.5,359.5 Z M 953.5,369.5 C 955.5,369.833 957.5,370.167 959.5,370.5C 959.76,432.883 959.093,495.383 957.5,558C 957.807,568.183 957.973,578.35 958,588.5C 956.31,592.191 954.476,592.357 952.5,589C 953.836,586.322 954.67,583.489 955,580.5C 956.561,514.509 956.895,448.509 956,382.5C 954.819,378.637 952.986,375.137 950.5,372C 951.571,371.148 952.571,370.315 953.5,369.5 Z M 585.5,547.5 C 588.711,547.012 591.544,547.679 594,549.5C 594.679,566.341 594.512,583.174 593.5,600C 593.547,608.308 594.547,616.475 596.5,624.5C 594.235,625.647 591.902,625.814 589.5,625C 587.242,620.471 586.075,615.637 586,610.5C 584.686,589.479 584.519,568.479 585.5,547.5 Z M 362.5,548.5 C 365.238,547.965 367.072,548.965 368,551.5C 368.529,576.508 368.862,601.508 369,626.5C 366.925,627.134 364.759,627.468 362.5,627.5C 359.963,627.603 357.629,627.103 355.5,626C 358,624.833 359.833,623 361,620.5C 361.186,596.457 361.686,572.457 362.5,548.5 Z"/></g>
</svg>
