<?xml version="1.0" encoding="UTF-8"?>
<!DOCTYPE svg PUBLIC "-//W3C//DTD SVG 1.1//EN" "http://www.w3.org/Graphics/SVG/1.1/DTD/svg11.dtd">
<svg xmlns="http://www.w3.org/2000/svg" version="1.1" width="1500px" height="1500px" style="shape-rendering:geometricPrecision; text-rendering:geometricPrecision; image-rendering:optimizeQuality; fill-rule:evenodd; clip-rule:evenodd" xmlns:xlink="http://www.w3.org/1999/xlink">
<g><path style="opacity:0.989" fill="#fefffe" d="M 713.5,325.5 C 754.97,322.892 795.303,328.392 834.5,342C 895.628,367.139 933.795,411.972 949,476.5C 960.805,528.518 958.472,579.851 942,630.5C 930.777,660.294 915.444,687.627 896,712.5C 869.727,745.107 845.394,779.107 823,814.5C 797.409,862.618 785.242,913.951 786.5,968.5C 746.167,968.5 705.833,968.5 665.5,968.5C 664.588,893.132 683.755,823.465 723,759.5C 750.667,719.833 778.333,680.167 806,640.5C 832.148,597.947 839.814,552.281 829,503.5C 817.339,465.505 791.839,443.672 752.5,438C 702.535,431.884 667.702,451.718 648,497.5C 639.511,521.423 635.344,546.089 635.5,571.5C 594.833,571.5 554.167,571.5 513.5,571.5C 513.436,519.089 525.603,469.756 550,423.5C 587.623,363.089 642.123,330.422 713.5,325.5 Z"/></g>
<g><path style="opacity:0.983" fill="#fefffe" d="M 662.5,1060.5 C 704.833,1060.5 747.167,1060.5 789.5,1060.5C 789.5,1102.5 789.5,1144.5 789.5,1186.5C 747.167,1186.5 704.833,1186.5 662.5,1186.5C 662.5,1144.5 662.5,1102.5 662.5,1060.5 Z"/></g>
</svg>
