<?xml version="1.0" encoding="UTF-8"?>
<!DOCTYPE svg PUBLIC "-//W3C//DTD SVG 1.1//EN" "http://www.w3.org/Graphics/SVG/1.1/DTD/svg11.dtd">
<svg xmlns="http://www.w3.org/2000/svg" version="1.1" width="512px" height="512px" style="shape-rendering:geometricPrecision; text-rendering:geometricPrecision; image-rendering:optimizeQuality; fill-rule:evenodd; clip-rule:evenodd" xmlns:xlink="http://www.w3.org/1999/xlink">
<g><path style="opacity:0.977" fill="#fefffe" d="M 334.5,141.5 C 335.303,142.423 335.47,143.423 335,144.5C 320.667,158.833 306.333,173.167 292,187.5C 290.206,191.551 288.04,195.384 285.5,199C 288.028,199.669 288.028,200.502 285.5,201.5C 282.436,212.339 284.103,222.339 290.5,231.5C 293.838,235.836 297.838,239.503 302.5,242.5C 299.438,248.73 296.604,255.063 294,261.5C 292.285,263.759 290.452,265.926 288.5,268C 288.833,268.333 289.167,268.667 289.5,269C 281.29,279.101 271.29,287.101 259.5,293C 253.033,300.233 253.033,307.9 259.5,316C 259.167,316.333 258.833,316.667 258.5,317C 263.566,324.438 268.899,331.771 274.5,339C 274.167,339.333 273.833,339.667 273.5,340C 278.261,346.734 282.928,353.401 287.5,360C 287.167,360.333 286.833,360.667 286.5,361C 291.814,366.994 297.647,372.161 304,376.5C 306.052,379.46 305.886,382.293 303.5,385C 288.685,396.981 274.019,409.147 259.5,421.5C 259.893,430.928 255.559,434.095 246.5,431C 245.333,429.833 244.167,428.667 243,427.5C 242.667,428.167 242.333,428.833 242,429.5C 235.475,423.543 229.142,417.209 223,410.5C 219.386,403.554 215.553,396.721 211.5,390C 211.835,388.497 211.835,387.164 211.5,386C 203.774,371.08 196.941,356.247 191,341.5C 188.678,340.163 187.178,338.663 186.5,337C 187.167,336.667 187.833,336.333 188.5,336C 186.578,334.54 185.911,332.873 186.5,331C 180.285,322.656 172.451,320.489 163,324.5C 162.439,323.978 161.772,323.645 161,323.5C 156.755,325.93 152.088,328.263 147,330.5C 140.331,329.33 139.664,326.33 145,321.5C 145.5,319.5 146,317.5 146.5,315.5C 146.484,312.316 145.984,308.983 145,305.5C 144.426,303.508 143.259,302.008 141.5,301C 142.634,299.984 142.301,299.317 140.5,299C 140.957,298.586 141.291,298.086 141.5,297.5C 140.846,295.885 140.346,294.218 140,292.5C 135.586,288.249 130.753,284.583 125.5,281.5C 122.637,278.397 122.304,275.231 124.5,272C 127.89,270.875 131.057,269.375 134,267.5C 134.743,265.559 134.576,263.726 133.5,262C 135.577,258.522 137.91,255.189 140.5,252C 135.888,241.617 138.721,239.117 149,244.5C 165.027,228.473 181.027,212.473 197,196.5C 197.333,196.833 197.667,197.167 198,197.5C 229.807,165.605 261.807,133.938 294,102.5C 295.635,100.757 295.802,98.9233 294.5,97C 294.905,96.0546 295.572,95.3879 296.5,95C 293.798,92.8822 293.131,90.3822 294.5,87.5C 297.48,85.5644 300.814,84.5644 304.5,84.5C 307.011,84.288 309.178,84.9546 311,86.5C 313.05,84.1122 315.384,82.1122 318,80.5C 320.245,81.1371 322.412,81.9704 324.5,83C 325.667,85.5 327.5,87.3333 330,88.5C 330.381,91.0411 331.214,93.3745 332.5,95.5C 331.103,98.4065 329.103,100.906 326.5,103C 333.833,110 341.167,117 348.5,124C 343.15,129.216 338.15,134.716 333.5,140.5C 333.624,141.107 333.957,141.44 334.5,141.5 Z M 268.5,226.5 C 272.911,226.203 276.911,227.369 280.5,230C 290.623,236.781 293.456,245.948 289,257.5C 280.865,270.305 270.198,280.305 257,287.5C 241.99,289.406 233.156,282.406 230.5,266.5C 231.266,258.922 235.1,254.589 242,253.5C 246.734,261.058 253.401,264.392 262,263.5C 262.667,266.167 263.333,266.167 264,263.5C 266.312,263.955 268.312,264.955 270,266.5C 274.005,264.908 278.171,262.741 282.5,260C 281.809,258.933 281.309,257.766 281,256.5C 273.812,259.236 266.312,259.069 258.5,256C 252.821,253.03 249.654,248.53 249,242.5C 252.5,239 256,235.5 259.5,232C 262.263,229.626 265.263,227.792 268.5,226.5 Z M 126.5,273.5 C 127.688,274.048 128.855,274.381 130,274.5C 130.562,278.3 129.562,278.967 127,276.5C 126.667,276.833 126.333,277.167 126,277.5C 125.421,276.072 125.588,274.738 126.5,273.5 Z M 251.5,418.5 C 257.62,424.761 256.287,427.594 247.5,427C 246.833,426.333 246.167,425.667 245.5,425C 247.706,422.963 249.706,420.797 251.5,418.5 Z"/></g>
<g><path style="opacity:0.004" fill="#fefffe" d="M 334.5,140.5 C 335.833,141.167 335.833,141.167 334.5,140.5 Z"/></g>
<g><path style="opacity:0.004" fill="#fefffe" d="M 125.5,285.5 C 126.833,286.167 126.833,286.167 125.5,285.5 Z"/></g>
<g><path style="opacity:0.004" fill="#fefffe" d="M 255.5,304.5 C 256.525,304.897 256.692,305.563 256,306.5C 255.536,305.906 255.369,305.239 255.5,304.5 Z"/></g>
<g><path style="opacity:0.004" fill="#fefffe" d="M 259.5,423.5 C 260.525,423.897 260.692,424.563 260,425.5C 259.536,424.906 259.369,424.239 259.5,423.5 Z"/></g>
<g><path style="opacity:0.008" fill="#fefffe" d="M 254.5,441.5 C 255.833,442.167 255.833,442.167 254.5,441.5 Z"/></g>
</svg>
