<?xml version="1.0" encoding="UTF-8"?>
<!DOCTYPE svg PUBLIC "-//W3C//DTD SVG 1.1//EN" "http://www.w3.org/Graphics/SVG/1.1/DTD/svg11.dtd">
<svg xmlns="http://www.w3.org/2000/svg" version="1.1" width="1024px" height="1024px" style="shape-rendering:geometricPrecision; text-rendering:geometricPrecision; image-rendering:optimizeQuality; fill-rule:evenodd; clip-rule:evenodd" xmlns:xlink="http://www.w3.org/1999/xlink">
<g><path style="opacity:0.985" fill="#fefffe" d="M 406.5,212.5 C 466.168,212.333 525.834,212.5 585.5,213C 591.667,215.167 595.833,219.333 598,225.5C 598.011,265.917 598.678,306.251 600,346.5C 628.939,366.439 651.939,391.772 669,422.5C 675.211,435.415 680.711,448.582 685.5,462C 695.833,462.333 706.167,462.667 716.5,463C 719.494,463.406 721.661,464.906 723,467.5C 724.121,478.612 724.621,489.779 724.5,501C 724.621,512.221 724.121,523.388 723,534.5C 721.421,536.041 719.587,537.208 717.5,538C 708.833,538.333 700.167,538.667 691.5,539C 690.584,539.374 689.75,539.874 689,540.5C 678.57,592.211 652.736,634.377 611.5,667C 608.167,669 604.833,671 601.5,673C 600.299,673.903 599.465,675.069 599,676.5C 598.667,716.833 598.333,757.167 598,797.5C 595.859,803.641 591.693,807.807 585.5,810C 525.833,810.667 466.167,810.667 406.5,810C 399.464,807.631 395.297,802.798 394,795.5C 393.667,755.833 393.333,716.167 393,676.5C 392.535,675.069 391.701,673.903 390.5,673C 333.13,633.953 303.796,579.619 302.5,510C 303.239,457.076 321.906,411.743 358.5,374C 369.417,363.745 380.917,354.245 393,345.5C 393.333,306.5 393.667,267.5 394,228.5C 395.099,220.588 399.266,215.255 406.5,212.5 Z M 480.5,365.5 C 522.263,363.079 559.263,374.912 591.5,401C 623.561,430.29 640.561,466.79 642.5,510.5C 637.769,578.026 604.102,624.193 541.5,649C 473.487,666.776 418.32,647.942 376,592.5C 341.803,537.316 342.136,482.316 377,427.5C 394.512,403.662 417.012,386.162 444.5,375C 456.47,371.326 468.47,368.159 480.5,365.5 Z"/></g>
<g><path style="opacity:0.942" fill="#fefffe" d="M 492.5,385.5 C 496.273,385.263 499.94,385.763 503.5,387C 504.701,387.903 505.535,389.069 506,390.5C 506.333,424.167 506.667,457.833 507,491.5C 508.929,496.412 511.262,501.078 514,505.5C 515.895,513.136 514.061,519.636 508.5,525C 503.315,527.836 498.149,530.669 493,533.5C 481.333,551.167 469.667,568.833 458,586.5C 453.174,592.901 448.174,592.901 443,586.5C 442.333,584.5 442.333,582.5 443,580.5C 455.764,561.298 468.264,541.965 480.5,522.5C 475.399,512.132 476.899,502.798 485,494.5C 485.333,460.833 485.667,427.167 486,393.5C 485.88,388.8 488.047,386.133 492.5,385.5 Z"/></g>
</svg>
