<?xml version="1.0" encoding="UTF-8"?>
<!DOCTYPE svg PUBLIC "-//W3C//DTD SVG 1.1//EN" "http://www.w3.org/Graphics/SVG/1.1/DTD/svg11.dtd">
<svg xmlns="http://www.w3.org/2000/svg" version="1.1" width="512px" height="512px" style="shape-rendering:geometricPrecision; text-rendering:geometricPrecision; image-rendering:optimizeQuality; fill-rule:evenodd; clip-rule:evenodd" xmlns:xlink="http://www.w3.org/1999/xlink">
<g><path style="opacity:0.999" fill="#fefffe" d="M 339.5,65.5 C 377.025,94.5103 415.025,123.01 453.5,151C 462.243,158.403 469.076,167.237 474,177.5C 474.841,182.531 475.841,187.531 477,192.5C 477.667,242.833 477.667,293.167 477,343.5C 476.348,345.723 474.848,346.89 472.5,347C 451.833,347.667 431.167,347.667 410.5,347C 408.671,346.727 407.171,345.893 406,344.5C 405.833,303.829 405.333,263.163 404.5,222.5C 396.922,216.358 389.255,210.191 381.5,204C 380.552,203.517 379.552,203.351 378.5,203.5C 378.833,281.836 378.5,360.17 377.5,438.5C 376.646,439.522 375.646,440.355 374.5,441C 295.167,441.667 215.833,441.667 136.5,441C 135.069,440.535 133.903,439.701 133,438.5C 132.5,360.167 132.333,281.834 132.5,203.5C 131.448,203.351 130.448,203.517 129.5,204C 121.947,210.395 114.28,216.561 106.5,222.5C 105.667,258.829 105.167,295.162 105,331.5C 103.829,332.893 102.329,333.727 100.5,334C 79.8333,334.667 59.1667,334.667 38.5,334C 36.1517,333.89 34.6517,332.723 34,330.5C 33.3333,284.5 33.3333,238.5 34,192.5C 35.1589,187.531 36.1589,182.531 37,177.5C 41.9235,167.237 48.7568,158.403 57.5,151C 78.2996,135.414 99.2996,120.081 120.5,105C 136.308,91.978 152.308,79.3113 168.5,67C 195.186,80.9114 223.853,87.4114 254.5,86.5C 283.376,87.6123 310.709,81.7789 336.5,69C 337.71,67.9609 338.71,66.7942 339.5,65.5 Z"/></g>
</svg>
