<?xml version="1.0" encoding="UTF-8"?>
<!DOCTYPE svg PUBLIC "-//W3C//DTD SVG 1.1//EN" "http://www.w3.org/Graphics/SVG/1.1/DTD/svg11.dtd">
<svg xmlns="http://www.w3.org/2000/svg" version="1.1" width="512px" height="512px" style="shape-rendering:geometricPrecision; text-rendering:geometricPrecision; image-rendering:optimizeQuality; fill-rule:evenodd; clip-rule:evenodd" xmlns:xlink="http://www.w3.org/1999/xlink">
<g><path style="opacity:0.999" fill="#fcfcfc" d="M 409.5,346.5 C 408.957,346.56 408.624,346.893 408.5,347.5C 409.689,348.429 411.022,348.762 412.5,348.5C 424.483,356.534 424.483,364.701 412.5,373C 374.167,373.667 335.833,373.667 297.5,373C 287.729,370.448 278.396,366.781 269.5,362C 263.726,355.914 258.226,349.747 253,343.5C 249.536,334.573 245.536,325.907 241,317.5C 239.57,314.647 238.737,311.647 238.5,308.5C 191.924,308.282 145.257,308.116 98.5,308C 86.0282,298.711 86.5282,290.545 100,283.5C 101.326,282.201 102.66,280.868 104,279.5C 108.997,271.193 113.997,262.86 119,254.5C 119.964,216.581 134.797,185.581 163.5,161.5C 181.608,147.295 202.274,138.795 225.5,136C 251.167,135.333 276.833,135.333 302.5,136C 349.484,143.148 382.65,168.315 402,211.5C 403.702,218.574 405.702,225.574 408,232.5C 408.333,235.833 408.667,239.167 409,242.5C 409.5,277.165 409.667,311.832 409.5,346.5 Z"/></g>
<g><path style="opacity:0.004" fill="#111111" d="M 409.5,346.5 C 410.5,347.167 411.5,347.833 412.5,348.5C 411.022,348.762 409.689,348.429 408.5,347.5C 408.624,346.893 408.957,346.56 409.5,346.5 Z"/></g>
</svg>
