<?xml version="1.0" encoding="UTF-8"?>
<!DOCTYPE svg PUBLIC "-//W3C//DTD SVG 1.1//EN" "http://www.w3.org/Graphics/SVG/1.1/DTD/svg11.dtd">
<svg xmlns="http://www.w3.org/2000/svg" version="1.1" width="512px" height="512px" style="shape-rendering:geometricPrecision; text-rendering:geometricPrecision; image-rendering:optimizeQuality; fill-rule:evenodd; clip-rule:evenodd" xmlns:xlink="http://www.w3.org/1999/xlink">
<g><path style="opacity:0.994" fill="#fefffe" d="M 135.5,32.5 C 215.833,32.5 296.167,32.5 376.5,32.5C 376.298,53.7714 377.631,74.9381 380.5,96C 384.005,141.397 387.671,186.897 391.5,232.5C 386.167,232.5 380.833,232.5 375.5,232.5C 375.5,275.167 375.5,317.833 375.5,360.5C 384.5,360.5 393.5,360.5 402.5,360.5C 405.051,384.112 406.551,407.779 407,431.5C 405.5,435.667 402.667,438.5 398.5,440C 374.167,440.667 349.833,440.667 325.5,440C 320.572,438.073 317.406,434.573 316,429.5C 308.333,381.5 300.667,333.5 293,285.5C 289.845,267.724 286.178,250.058 282,232.5C 280.861,226.357 277.694,221.524 272.5,218C 263.766,208.702 254.599,208.202 245,216.5C 237.921,224.655 232.921,233.989 230,244.5C 218.322,307.571 206.322,370.571 194,433.5C 191.795,436.04 189.295,438.207 186.5,440C 161.833,440.667 137.167,440.667 112.5,440C 105.014,436.362 102.014,430.362 103.5,422C 104.974,401.477 106.641,380.977 108.5,360.5C 117.5,360.5 126.5,360.5 135.5,360.5C 135.5,317.833 135.5,275.167 135.5,232.5C 130.167,232.5 124.833,232.5 119.5,232.5C 123.329,186.897 126.995,141.397 130.5,96C 132.963,74.9439 134.629,53.7772 135.5,32.5 Z"/></g>
<g><path style="opacity:0.994" fill="#fefffe" d="M 91.5,248.5 C 100.833,248.5 110.167,248.5 119.5,248.5C 119.5,259.167 119.5,269.833 119.5,280.5C 108.833,280.5 98.1667,280.5 87.5,280.5C 87.3335,271.161 87.5002,261.827 88,252.5C 88.6897,250.65 89.8564,249.316 91.5,248.5 Z"/></g>
<g><path style="opacity:0.994" fill="#fefffe" d="M 391.5,248.5 C 401.605,248.051 411.605,248.551 421.5,250C 422.126,250.75 422.626,251.584 423,252.5C 423.5,261.827 423.666,271.161 423.5,280.5C 412.833,280.5 402.167,280.5 391.5,280.5C 391.5,269.833 391.5,259.167 391.5,248.5 Z"/></g>
<g><path style="opacity:0.996" fill="#fefffe" d="M 87.5,296.5 C 98.1667,296.5 108.833,296.5 119.5,296.5C 119.5,312.5 119.5,328.5 119.5,344.5C 110.161,344.666 100.827,344.5 91.5,344C 90.5838,343.626 89.7504,343.126 89,342.5C 87.5318,327.263 87.0318,311.93 87.5,296.5 Z"/></g>
<g><path style="opacity:0.996" fill="#fefffe" d="M 391.5,296.5 C 402.167,296.5 412.833,296.5 423.5,296.5C 423.968,311.93 423.468,327.263 422,342.5C 421.25,343.126 420.416,343.626 419.5,344C 410.173,344.5 400.839,344.666 391.5,344.5C 391.5,328.5 391.5,312.5 391.5,296.5 Z"/></g>
<g><path style="opacity:0.995" fill="#fefffe" d="M 111.5,455.5 C 132.816,456.418 154.149,456.751 175.5,456.5C 175.5,461.833 175.5,467.167 175.5,472.5C 154.167,472.5 132.833,472.5 111.5,472.5C 111.5,466.833 111.5,461.167 111.5,455.5 Z"/></g>
<g><path style="opacity:0.995" fill="#fefffe" d="M 392.5,455.5 C 394.833,455.5 397.167,455.5 399.5,455.5C 399.5,461.167 399.5,466.833 399.5,472.5C 378.167,472.5 356.833,472.5 335.5,472.5C 335.5,467.167 335.5,461.833 335.5,456.5C 354.674,456.83 373.674,456.497 392.5,455.5 Z"/></g>
</svg>
