<?xml version="1.0" encoding="UTF-8"?>
<!DOCTYPE svg PUBLIC "-//W3C//DTD SVG 1.1//EN" "http://www.w3.org/Graphics/SVG/1.1/DTD/svg11.dtd">
<svg xmlns="http://www.w3.org/2000/svg" version="1.1" width="1024px" height="1024px" style="shape-rendering:geometricPrecision; text-rendering:geometricPrecision; image-rendering:optimizeQuality; fill-rule:evenodd; clip-rule:evenodd" xmlns:xlink="http://www.w3.org/1999/xlink">
<g><path style="opacity:0.994" fill="#fefffe" d="M 498.5,30.5 C 553.179,31.8979 607.845,33.7312 662.5,36C 677.337,41.4183 691.337,48.4183 704.5,57C 706.647,60.1149 709.147,62.9482 712,65.5C 712.667,67.1667 712.667,68.8333 712,70.5C 709.542,76.4123 707.375,82.4123 705.5,88.5C 709.304,101.381 712.637,114.381 715.5,127.5C 714.098,131.539 712.598,135.539 711,139.5C 707.833,142.667 704.667,145.833 701.5,149C 678.919,157.306 656.919,166.973 635.5,178C 612.732,196.816 603.898,220.983 609,250.5C 611.572,287.84 614.239,325.173 617,362.5C 621.041,447.852 625.374,533.185 630,618.5C 630.667,657.167 630.667,695.833 630,734.5C 627.925,777.513 625.592,820.513 623,863.5C 621.414,865.67 620.08,868.004 619,870.5C 615.464,896.919 611.464,923.252 607,949.5C 599.167,954.667 591.333,959.833 583.5,965C 534.621,983.91 485.954,983.243 437.5,963C 431.34,958.42 425.007,954.086 418.5,950C 413.596,923.675 409.429,897.175 406,870.5C 404.92,868.004 403.586,865.67 402,863.5C 397.749,801.229 395.249,738.895 394.5,676.5C 398.365,534.347 405.532,392.347 416,250.5C 421.102,220.983 412.268,196.816 389.5,178C 368.204,166.684 346.204,157.017 323.5,149C 320.333,145.833 317.167,142.667 314,139.5C 312.402,135.539 310.902,131.539 309.5,127.5C 312.363,114.381 315.696,101.381 319.5,88.5C 317.625,82.4123 315.458,76.4123 313,70.5C 312.333,68.8333 312.333,67.1667 313,65.5C 319.246,58.1186 326.746,52.2853 335.5,48C 344.382,43.7254 353.382,39.7254 362.5,36C 408.009,34.5449 453.342,32.7115 498.5,30.5 Z"/></g>
</svg>
