<?xml version="1.0" encoding="UTF-8"?>
<!DOCTYPE svg PUBLIC "-//W3C//DTD SVG 1.1//EN" "http://www.w3.org/Graphics/SVG/1.1/DTD/svg11.dtd">
<svg xmlns="http://www.w3.org/2000/svg" version="1.1" width="512px" height="512px" style="shape-rendering:geometricPrecision; text-rendering:geometricPrecision; image-rendering:optimizeQuality; fill-rule:evenodd; clip-rule:evenodd" xmlns:xlink="http://www.w3.org/1999/xlink">
<g><path style="opacity:0.034" fill="#fefffe" d="M 78.5,10.5 C 84.5092,10.3338 90.5092,10.5005 96.5,11C 75.6937,31.8063 54.8604,52.6396 34,73.5C 33.3333,67.5 33.3333,61.5 34,55.5C 48.6737,40.3264 63.5071,25.3264 78.5,10.5 Z"/></g>
<g><path style="opacity:0.027" fill="#fefffe" d="M 390.5,10.5 C 396.537,10.1707 402.537,10.5041 408.5,11.5C 404.548,15.7502 400.382,19.7502 396,23.5C 395.517,24.448 395.351,25.448 395.5,26.5C 389.521,27.8502 384.854,25.8502 381.5,20.5C 383.876,16.4652 386.876,13.1319 390.5,10.5 Z"/></g>
<g><path style="opacity:0.037" fill="#fefffe" d="M 468.5,10.5 C 471.5,10.5 474.5,10.5 477.5,10.5C 478.353,15.7816 477.186,20.4483 474,24.5C 460.232,39.1667 446.065,53.3333 431.5,67C 430.5,67.5 429.5,68 428.5,68.5C 426.738,64.3828 425.071,60.2162 423.5,56C 428.279,50.4261 433.279,45.0928 438.5,40C 439.448,39.5172 440.448,39.3505 441.5,39.5C 441.351,38.448 441.517,37.448 442,36.5C 451.067,27.9315 459.9,19.2649 468.5,10.5 Z"/></g>
<g><path style="opacity:0.943" fill="#fefffe" d="M 339.5,65.5 C 378.336,94.8295 417.336,123.996 456.5,153C 461.121,156.944 464.954,161.444 468,166.5C 471.646,164.518 474.646,161.851 477,158.5C 477.667,164.5 477.667,170.5 477,176.5C 475.764,177.399 474.93,178.566 474.5,180C 475.713,183.066 476.547,186.233 477,189.5C 477.829,241.541 477.662,293.541 476.5,345.5C 475.975,346.192 475.308,346.692 474.5,347C 470.5,347.333 466.5,347.667 462.5,348C 460.429,350.412 458.096,352.412 455.5,354C 454.833,357.333 452.833,359.333 449.5,360C 443.5,367.333 436.833,374 429.5,380C 428.833,383.333 426.833,385.333 423.5,386C 417.421,393.412 410.754,400.079 403.5,406C 397.145,413.57 390.145,420.737 382.5,427.5C 380.179,430.394 379.012,433.727 379,437.5C 376.356,440.719 372.856,442.219 368.5,442C 364.678,445.988 360.678,449.821 356.5,453.5C 350.167,454.833 343.833,454.833 337.5,453.5C 341.583,449.887 345.583,446.054 349.5,442C 329.833,441.333 310.167,441.333 290.5,442C 286.387,445.736 282.387,449.569 278.5,453.5C 272.167,454.833 265.833,454.833 259.5,453.5C 263.583,449.887 267.583,446.054 271.5,442C 251.833,441.333 232.167,441.333 212.5,442C 208.39,446.197 204.056,450.197 199.5,454C 193.472,454.83 187.472,454.664 181.5,453.5C 184.924,449.357 188.924,445.524 193.5,442C 173.833,441.333 154.167,441.333 134.5,442C 130.39,446.197 126.056,450.197 121.5,454C 115.472,454.83 109.472,454.664 103.5,453.5C 104.655,452.05 106.155,451.05 108,450.5C 108.333,449.5 108.667,448.5 109,447.5C 117,440.833 124.333,433.5 131,425.5C 131.667,406.167 131.667,386.833 131,367.5C 103.092,395.038 75.259,422.871 47.5,451C 43.4483,454.186 38.7816,455.353 33.5,454.5C 33.3354,451.482 33.502,448.482 34,445.5C 49.1664,430.099 64.3331,414.599 79.5,399C 80.448,398.517 81.448,398.351 82.5,398.5C 82.3505,397.448 82.5172,396.448 83,395.5C 91.1667,388.667 98.6667,381.167 105.5,373C 106.448,372.517 107.448,372.351 108.5,372.5C 108.351,371.448 108.517,370.448 109,369.5C 117,362.833 124.333,355.5 131,347.5C 131.667,328.167 131.667,308.833 131,289.5C 122.859,297.5 114.859,305.5 107,313.5C 106.667,319.167 106.333,324.833 106,330.5C 105.626,331.416 105.126,332.25 104.5,333C 97.9136,334.091 91.2469,334.925 84.5,335.5C 78.4492,342.254 72.1158,348.421 65.5,354C 64.1279,355.242 63.1279,356.742 62.5,358.5C 61.624,359.251 60.624,359.751 59.5,360C 51.5127,368.962 43.1793,377.462 34.5,385.5C 33.3364,379.528 33.1697,373.528 34,367.5C 40.4373,360.726 46.9373,353.893 53.5,347C 54.448,346.517 55.448,346.351 56.5,346.5C 56.3505,345.448 56.5172,344.448 57,343.5C 60.4981,340.964 63.6647,338.131 66.5,335C 56.5,334.667 46.5,334.333 36.5,334C 35.3333,333.5 34.5,332.667 34,331.5C 33.3333,283.833 33.3333,236.167 34,188.5C 37.0522,174.456 43.8855,162.623 54.5,153C 93.1324,124.769 131.299,95.9355 169,66.5C 177.5,71.3331 186.334,75.4997 195.5,79C 234.833,89 274.167,89 313.5,79C 321.283,75.9418 328.95,72.6084 336.5,69C 337.71,67.9609 338.71,66.7942 339.5,65.5 Z M 379.5,203.5 C 386.652,209.139 393.985,214.639 401.5,220C 405.231,224.371 405.398,228.871 402,233.5C 394,240.167 386.667,247.5 380,255.5C 379.5,238.17 379.333,220.837 379.5,203.5 Z M 130.5,211.5 C 131.662,230.662 131.829,249.996 131,269.5C 122.976,277.689 115.143,286.023 107.5,294.5C 106.334,274.842 106.167,255.175 107,235.5C 114.616,227.41 122.449,219.41 130.5,211.5 Z M 403.5,249.5 C 404.828,269.337 404.828,289.337 403.5,309.5C 395.178,316.989 387.344,324.989 380,333.5C 379.167,313.825 379.334,294.158 380.5,274.5C 387.263,266.855 394.43,259.855 402,253.5C 402.41,252.099 402.91,250.766 403.5,249.5 Z M 403.5,327.5 C 404.327,332.651 404.827,337.984 405,343.5C 405.374,344.416 405.874,345.25 406.5,346C 418.404,347.293 430.404,347.96 442.5,348C 441.415,350.883 439.415,352.883 436.5,354C 418.029,373.472 399.195,392.638 380,411.5C 379.333,392.167 379.333,372.833 380,353.5C 386.745,345.421 394.079,338.088 402,331.5C 402.41,330.099 402.91,328.766 403.5,327.5 Z"/></g>
<g><path style="opacity:0.036" fill="#fefffe" d="M 476.5,80.5 C 477.653,86.3188 477.819,92.3188 477,98.5C 468.081,108.427 458.748,117.76 449,126.5C 448.71,128.044 448.044,129.377 447,130.5C 444.3,125.405 442.633,120.071 442,114.5C 454.093,103.572 465.593,92.2388 476.5,80.5 Z"/></g>
<g><path style="opacity:0.036" fill="#fefffe" d="M 80.5,85.5 C 81.0431,85.56 81.3764,85.8933 81.5,86.5C 73.7465,98.0071 67.5798,110.34 63,123.5C 53.3333,132.833 43.6667,142.167 34,151.5C 33.3333,145.5 33.3333,139.5 34,133.5C 49.3396,117.327 64.8396,101.327 80.5,85.5 Z"/></g>
<g><path style="opacity:0.034" fill="#fefffe" d="M 476.5,392.5 C 477.653,398.653 477.82,404.986 477,411.5C 465.674,423.164 454.174,434.33 442.5,445C 440.176,448.323 437.509,451.323 434.5,454C 428.141,454.831 421.807,454.664 415.5,453.5C 416.381,452.029 417.714,451.196 419.5,451C 420.893,449.829 421.727,448.329 422,446.5C 428.343,440.989 434.509,435.323 440.5,429.5C 449.956,419.208 459.623,409.042 469.5,399C 470.5,398.667 471.5,398.333 472.5,398C 473.488,395.833 474.821,394 476.5,392.5 Z"/></g>
</svg>
