<?xml version="1.0" encoding="UTF-8"?>
<!DOCTYPE svg PUBLIC "-//W3C//DTD SVG 1.1//EN" "http://www.w3.org/Graphics/SVG/1.1/DTD/svg11.dtd">
<svg xmlns="http://www.w3.org/2000/svg" version="1.1" width="1024px" height="1024px" style="shape-rendering:geometricPrecision; text-rendering:geometricPrecision; image-rendering:optimizeQuality; fill-rule:evenodd; clip-rule:evenodd" xmlns:xlink="http://www.w3.org/1999/xlink">
<g><path style="opacity:0.978" fill="#fefffe" d="M 392.5,126.5 C 422.169,126.333 451.835,126.5 481.5,127C 482,127.5 482.5,128 483,128.5C 482.936,134.717 483.936,140.717 486,146.5C 487.333,147.833 488.667,149.167 490,150.5C 490.333,158.833 490.667,167.167 491,175.5C 493.043,178.842 495.71,181.509 499,183.5C 500.843,276.493 501.509,369.493 501,462.5C 495.35,611.429 466.683,755.763 415,895.5C 413.819,899.363 411.986,902.863 409.5,906C 402.98,909.426 396.314,912.593 389.5,915.5C 377.245,911.693 365.245,907.193 353.5,902C 350.179,900.562 346.846,900.395 343.5,901.5C 332.139,897.435 320.806,893.268 309.5,889C 307.763,884.264 304.429,881.264 299.5,880C 265.008,866.725 230.674,853.058 196.5,839C 190.5,838.333 184.5,837.667 178.5,837C 176.283,835.725 173.949,834.725 171.5,834C 170.415,831.828 169.081,829.828 167.5,828C 164.167,826.333 160.833,824.667 157.5,823C 156.02,821.701 155.354,820.034 155.5,818C 164.659,789.855 173.826,761.688 183,733.5C 210.409,641.785 226.742,548.119 232,452.5C 232.333,350.5 232.667,248.5 233,146.5C 235.266,145.044 237.766,144.21 240.5,144C 269.486,142.853 298.486,142.186 327.5,142C 333.351,141.454 339.018,140.121 344.5,138C 350.991,134.922 357.325,131.588 363.5,128C 373.342,127.83 383.009,127.33 392.5,126.5 Z"/></g>
<g><path style="opacity:0.964" fill="#fefffe" d="M 541.5,168.5 C 574.168,168.333 606.835,168.5 639.5,169C 640,169.5 640.5,170 641,170.5C 641.333,174.833 641.667,179.167 642,183.5C 642.736,186.32 644.402,188.32 647,189.5C 647.129,197.894 647.796,206.228 649,214.5C 650.683,216.514 652.683,218.18 655,219.5C 656.622,284.658 657.788,349.825 658.5,415C 659.204,573.612 631.704,727.112 576,875.5C 570.076,880.463 563.409,884.13 556,886.5C 544.284,882.928 532.784,878.761 521.5,874C 517.833,873.667 514.167,873.333 510.5,873C 501.99,869.274 493.323,865.941 484.5,863C 482.606,861.225 480.939,859.225 479.5,857C 466.581,851.471 453.581,846.138 440.5,841C 439.919,840.107 439.585,839.107 439.5,838C 478.776,714.181 500.942,587.348 506,457.5C 506.24,366.156 505.573,274.823 504,183.5C 513.898,179.969 523.398,175.469 532.5,170C 535.695,169.819 538.695,169.319 541.5,168.5 Z"/></g>
<g><path style="opacity:0.961" fill="#fefffe" d="M 700.5,205.5 C 728.502,205.333 756.502,205.5 784.5,206C 785.667,207.167 786.833,208.333 788,209.5C 788.273,214.229 788.939,218.896 790,223.5C 791.333,224.833 792.667,226.167 794,227.5C 794.333,234.833 794.667,242.167 795,249.5C 797.292,250.79 799.292,252.457 801,254.5C 803.304,336.819 803.971,419.152 803,501.5C 796.395,621.914 772.061,738.581 730,851.5C 728.167,854.667 725.667,857.167 722.5,859C 718.755,860.37 715.088,862.037 711.5,864C 707.095,864.696 702.761,864.363 698.5,863C 688.011,857.836 677.011,854.503 665.5,853C 656.833,849.667 648.167,846.333 639.5,843C 637.167,840.667 634.833,838.333 632.5,836C 622.088,832.196 611.755,828.196 601.5,824C 600.426,823.261 599.759,822.261 599.5,821C 628.236,732.551 647.403,642.051 657,549.5C 659.366,523.212 661.033,496.879 662,470.5C 661.941,386.498 661.608,302.498 661,218.5C 668.903,214.862 676.736,211.029 684.5,207C 690.016,206.827 695.349,206.327 700.5,205.5 Z"/></g>
</svg>
