<?xml version="1.0" encoding="UTF-8"?>
<!DOCTYPE svg PUBLIC "-//W3C//DTD SVG 1.1//EN" "http://www.w3.org/Graphics/SVG/1.1/DTD/svg11.dtd">
<svg xmlns="http://www.w3.org/2000/svg" version="1.1" width="1024px" height="1024px" style="shape-rendering:geometricPrecision; text-rendering:geometricPrecision; image-rendering:optimizeQuality; fill-rule:evenodd; clip-rule:evenodd" xmlns:xlink="http://www.w3.org/1999/xlink">
<g><path style="opacity:1" fill="#fefffe" d="M 592.5,300.5 C 637.835,300.333 683.168,300.5 728.5,301C 731.163,302.801 732.997,305.301 734,308.5C 735.315,313.425 736.148,318.425 736.5,323.5C 724.832,374.308 737.499,417.808 774.5,454C 780.01,457.588 785.343,461.422 790.5,465.5C 793.412,472.89 795.245,480.557 796,488.5C 796.759,491.785 798.092,494.785 800,497.5C 801.722,507.223 803.722,516.889 806,526.5C 809.888,530.06 812.554,534.393 814,539.5C 816.291,546.663 817.624,553.996 818,561.5C 819.893,564.618 821.226,567.951 822,571.5C 824.498,589.982 827.831,608.315 832,626.5C 832.895,636.561 832.562,646.561 831,656.5C 829.323,660.051 826.49,661.384 822.5,660.5C 822.666,669.173 822.5,677.84 822,686.5C 821.626,687.416 821.126,688.25 820.5,689C 808.523,690.039 796.523,690.706 784.5,691C 783.25,693.381 781.583,695.381 779.5,697C 702.47,698.154 625.47,700.321 548.5,703.5C 475.164,702.528 401.83,702.861 328.5,704.5C 289.46,703.468 250.46,702.968 211.5,703C 209.423,702.808 207.423,702.308 205.5,701.5C 208.341,700.025 211.341,698.859 214.5,698C 193.925,695.967 177.425,686.8 165,670.5C 161.529,664.225 159.195,657.559 158,650.5C 153.366,611.829 153.366,573.162 158,534.5C 160.167,527 165,522.167 172.5,520C 178.107,518.677 183.774,517.677 189.5,517C 253.499,510.667 317.499,504.333 381.5,498C 401.372,495.725 421.038,492.392 440.5,488C 442.049,486.786 443.215,485.286 444,483.5C 449.882,467.079 454.882,450.412 459,433.5C 464.416,403.168 469.749,372.835 475,342.5C 477.702,335.001 480.702,327.668 484,320.5C 484.955,314.724 486.288,309.057 488,303.5C 488.75,302.874 489.584,302.374 490.5,302C 524.669,301.832 558.669,301.332 592.5,300.5 Z"/></g>
</svg>
