<?xml version="1.0" encoding="UTF-8"?>
<!DOCTYPE svg PUBLIC "-//W3C//DTD SVG 1.1//EN" "http://www.w3.org/Graphics/SVG/1.1/DTD/svg11.dtd">
<svg xmlns="http://www.w3.org/2000/svg" version="1.1" width="1024px" height="1024px" style="shape-rendering:geometricPrecision; text-rendering:geometricPrecision; image-rendering:optimizeQuality; fill-rule:evenodd; clip-rule:evenodd" xmlns:xlink="http://www.w3.org/1999/xlink">
<g><path style="opacity:0.987" fill="#fefffe" d="M 163.5,424.5 C 421.167,424.333 678.834,424.5 936.5,425C 944.126,427.399 949.626,432.232 953,439.5C 958.59,459.429 961.09,479.763 960.5,500.5C 960.037,521.185 959.203,541.852 958,562.5C 956.598,571.441 954.265,580.108 951,588.5C 947.934,593.906 943.434,597.406 937.5,599C 679.478,599.993 421.478,599.66 163.5,598C 160.911,596.803 158.244,595.803 155.5,595C 152.536,591.034 149.203,587.367 145.5,584C 125.5,583.667 105.5,583.333 85.5,583C 72.2518,569.992 66.0852,554.159 67,535.5C 66.1314,513.143 66.4647,490.81 68,468.5C 70,462.5 72,456.5 74,450.5C 77.713,445.576 81.5463,440.742 85.5,436C 105.833,435.667 126.167,435.333 146.5,435C 148.833,432.667 151.167,430.333 153.5,428C 157.109,427.299 160.442,426.132 163.5,424.5 Z"/></g>
</svg>
