<?xml version="1.0" encoding="UTF-8"?>
<!DOCTYPE svg PUBLIC "-//W3C//DTD SVG 1.1//EN" "http://www.w3.org/Graphics/SVG/1.1/DTD/svg11.dtd">
<svg xmlns="http://www.w3.org/2000/svg" version="1.1" width="512px" height="512px" style="shape-rendering:geometricPrecision; text-rendering:geometricPrecision; image-rendering:optimizeQuality; fill-rule:evenodd; clip-rule:evenodd" xmlns:xlink="http://www.w3.org/1999/xlink">
<g><path style="opacity:0.004" fill="#0c0c0c" d="M 96.5,109.5 C 96.8333,110.167 97.1667,110.833 97.5,111.5C 91.9587,110.515 91.6253,109.848 96.5,109.5 Z"/></g>
<g><path style="opacity:1" fill="#6e6d6b" d="M 96.5,109.5 C 99.5,109.5 102.5,109.5 105.5,109.5C 105.167,110.167 104.833,110.833 104.5,111.5C 102.167,112.833 99.8333,112.833 97.5,111.5C 97.1667,110.833 96.8333,110.167 96.5,109.5 Z"/></g>
<g><path style="opacity:0.004" fill="#090909" d="M 105.5,109.5 C 197.167,109.5 288.833,109.5 380.5,109.5C 380.5,109.833 380.5,110.167 380.5,110.5C 288.459,110.172 196.459,110.505 104.5,111.5C 104.833,110.833 105.167,110.167 105.5,109.5 Z"/></g>
<g><path style="opacity:0.004" fill="#252524" d="M 380.5,109.5 C 393.171,109.333 405.838,109.5 418.5,110C 415.367,110.393 412.367,111.226 409.5,112.5C 401.192,109.872 392.859,109.872 384.5,112.5C 382.829,112.332 381.496,111.665 380.5,110.5C 380.5,110.167 380.5,109.833 380.5,109.5 Z"/></g>
<g><path style="opacity:0.004" fill="#262626" d="M 226.5,116.5 C 228.38,116.229 229.713,116.896 230.5,118.5C 228.847,118.34 227.514,117.674 226.5,116.5 Z"/></g>
<g><path style="opacity:1" fill="#fcfcfc" d="M 226.5,116.5 C 227.514,117.674 228.847,118.34 230.5,118.5C 230.833,118.5 231.167,118.5 231.5,118.5C 231.5,119.833 232.167,120.5 233.5,120.5C 233.427,122.027 234.094,123.027 235.5,123.5C 235.5,124.167 235.5,124.833 235.5,125.5C 235.229,130.434 235.896,135.1 237.5,139.5C 238.275,144.797 238.608,150.13 238.5,155.5C 238.5,157.167 238.5,158.833 238.5,160.5C 238.565,163.428 239.232,166.095 240.5,168.5C 240.215,171.829 240.882,174.829 242.5,177.5C 242.5,178.833 242.5,180.167 242.5,181.5C 234.5,181.5 226.5,181.5 218.5,181.5C 213.448,181.45 208.448,181.95 203.5,183C 201.881,183.236 200.881,184.069 200.5,185.5C 200.5,187.167 200.5,188.833 200.5,190.5C 202.347,194.001 204.68,194.335 207.5,191.5C 208.167,191.5 208.833,191.5 209.5,191.5C 213.04,191.247 216.373,190.581 219.5,189.5C 227.5,189.5 235.5,189.5 243.5,189.5C 243.884,194.01 244.551,198.343 245.5,202.5C 245.5,204.167 245.5,205.833 245.5,207.5C 245.5,210.833 245.5,214.167 245.5,217.5C 244.167,217.5 242.833,217.5 241.5,217.5C 232.95,217.29 224.616,217.957 216.5,219.5C 215.833,219.5 215.167,219.5 214.5,219.5C 213.167,219.5 212.5,220.167 212.5,221.5C 209.952,223.296 209.952,224.962 212.5,226.5C 213.152,227.725 214.319,228.392 216,228.5C 218.76,228.354 221.26,227.687 223.5,226.5C 225.167,226.5 226.833,226.5 228.5,226.5C 232.5,226.5 236.5,226.5 240.5,226.5C 242.167,226.5 243.833,226.5 245.5,226.5C 244.897,231.619 245.564,236.285 247.5,240.5C 247.759,242.989 246.759,244.656 244.5,245.5C 242.973,245.427 241.973,246.094 241.5,247.5C 241.5,248.167 241.167,248.5 240.5,248.5C 238.5,248.5 237.5,249.5 237.5,251.5C 237.158,252.338 236.492,252.672 235.5,252.5C 234.5,252.833 233.833,253.5 233.5,254.5C 232.5,254.833 231.833,255.5 231.5,256.5C 230.969,258.544 229.802,260.211 228,261.5C 227.36,263.265 227.527,264.932 228.5,266.5C 230.296,269.048 231.962,269.048 233.5,266.5C 236.5,262.167 240.167,258.5 244.5,255.5C 246.853,254.66 248.853,253.326 250.5,251.5C 251.5,251.5 252.5,251.5 253.5,251.5C 254.167,251.5 254.5,251.833 254.5,252.5C 254.833,253.5 255.5,254.167 256.5,254.5C 256.833,255.5 257.5,256.167 258.5,256.5C 260.89,257.512 262.556,259.179 263.5,261.5C 261.527,264.803 259.193,267.803 256.5,270.5C 255.094,270.973 254.427,271.973 254.5,273.5C 251.946,276.229 251.946,278.895 254.5,281.5C 256.128,282.853 257.462,282.519 258.5,280.5C 260.5,280.5 261.5,279.5 261.5,277.5C 262.906,277.027 263.573,276.027 263.5,274.5C 265.18,270.341 268.18,268.174 272.5,268C 273.252,268.671 273.586,269.504 273.5,270.5C 273.833,271.5 274.5,272.167 275.5,272.5C 278.55,274.549 280.883,277.216 282.5,280.5C 283.094,282.855 284.094,285.022 285.5,287C 285.257,287.902 284.923,288.735 284.5,289.5C 283.094,289.973 282.427,290.973 282.5,292.5C 281.109,294.792 280.109,297.292 279.5,300C 279.648,301.256 279.982,302.423 280.5,303.5C 280.866,304.695 281.699,305.361 283,305.5C 284.95,305.293 286.116,304.293 286.5,302.5C 286.557,301.391 286.89,300.391 287.5,299.5C 288.906,299.027 289.573,298.027 289.5,296.5C 290.5,296.167 291.167,295.5 291.5,294.5C 291.435,294.062 291.601,293.728 292,293.5C 296.877,300.223 303.044,305.223 310.5,308.5C 310.821,310.048 311.821,310.715 313.5,310.5C 313.833,310.5 314.167,310.5 314.5,310.5C 317.845,312.217 321.511,312.884 325.5,312.5C 335.987,313.494 346.654,313.828 357.5,313.5C 361.154,313.942 364.821,314.276 368.5,314.5C 371.059,314.198 373.393,314.532 375.5,315.5C 376.635,317.213 378.302,317.88 380.5,317.5C 381.167,317.5 381.833,317.5 382.5,317.5C 383.635,319.213 385.302,319.88 387.5,319.5C 387.973,320.906 388.973,321.573 390.5,321.5C 391.492,321.328 392.158,321.662 392.5,322.5C 392.973,323.906 393.973,324.573 395.5,324.5C 397.167,325.5 398.5,326.833 399.5,328.5C 399.427,330.027 400.094,331.027 401.5,331.5C 401.427,333.027 402.094,334.027 403.5,334.5C 404.404,335.209 404.737,336.209 404.5,337.5C 404.12,339.698 404.787,341.365 406.5,342.5C 406.5,345.167 406.5,347.833 406.5,350.5C 405.5,350.5 404.5,350.5 403.5,350.5C 401.973,350.427 400.973,351.094 400.5,352.5C 400.167,352.5 399.833,352.5 399.5,352.5C 397.973,352.427 396.973,353.094 396.5,354.5C 394.958,355.301 393.292,355.634 391.5,355.5C 389.517,355.157 388.183,355.824 387.5,357.5C 386.833,357.5 386.167,357.5 385.5,357.5C 383.447,357.402 381.78,358.069 380.5,359.5C 380.167,359.5 379.833,359.5 379.5,359.5C 377.102,359.259 375.102,359.926 373.5,361.5C 370.482,361.335 367.482,361.502 364.5,362C 363.584,362.278 362.918,362.778 362.5,363.5C 360.393,364.468 358.059,364.802 355.5,364.5C 351.295,364.717 347.295,365.383 343.5,366.5C 343.167,366.5 342.833,366.5 342.5,366.5C 325.158,367.667 307.824,367.667 290.5,366.5C 278.902,365.749 267.569,364.082 256.5,361.5C 254.162,359.96 251.495,359.294 248.5,359.5C 247.5,359.5 246.5,359.5 245.5,359.5C 244.01,357.72 242.01,357.054 239.5,357.5C 239.167,357.5 238.833,357.5 238.5,357.5C 236.485,356.076 234.152,355.41 231.5,355.5C 228.061,355.747 224.728,355.414 221.5,354.5C 218.727,353.343 215.727,352.676 212.5,352.5C 211.5,352.5 210.5,352.5 209.5,352.5C 206.781,351.087 203.781,350.42 200.5,350.5C 196.452,350.605 192.452,350.272 188.5,349.5C 182.75,347.85 176.75,347.184 170.5,347.5C 155.174,346.667 139.841,346 124.5,345.5C 116.074,345.825 107.74,345.825 99.5,345.5C 99.5,344.833 99.5,344.167 99.5,343.5C 98.6401,333.861 98.3068,324.194 98.5,314.5C 98.9504,309.798 99.617,305.132 100.5,300.5C 102.163,298.562 102.829,296.228 102.5,293.5C 103.931,292.22 104.598,290.553 104.5,288.5C 104.5,288.167 104.5,287.833 104.5,287.5C 106.104,286.713 106.771,285.38 106.5,283.5C 106.833,281.5 107.167,279.5 107.5,277.5C 108.674,276.486 109.34,275.153 109.5,273.5C 110.906,273.027 111.573,272.027 111.5,270.5C 111.5,269.833 111.5,269.167 111.5,268.5C 112.75,268.423 113.583,267.756 114,266.5C 114.494,264.866 114.66,263.199 114.5,261.5C 115.674,260.486 116.34,259.153 116.5,257.5C 116.5,257.167 116.5,256.833 116.5,256.5C 118.104,255.713 118.771,254.38 118.5,252.5C 118.5,252.167 118.5,251.833 118.5,251.5C 120.223,249.22 120.889,246.553 120.5,243.5C 122.953,234.472 123.953,225.139 123.5,215.5C 123.934,205.536 122.934,195.869 120.5,186.5C 120.665,183.482 120.498,180.482 120,177.5C 119.722,176.584 119.222,175.918 118.5,175.5C 118.5,175.167 118.5,174.833 118.5,174.5C 118.741,172.102 118.074,170.102 116.5,168.5C 116.5,168.167 116.5,167.833 116.5,167.5C 116.741,165.102 116.074,163.102 114.5,161.5C 113.549,160.081 113.216,158.415 113.5,156.5C 113.598,154.447 112.931,152.78 111.5,151.5C 110.37,149.685 109.704,147.685 109.5,145.5C 109.771,143.62 109.104,142.287 107.5,141.5C 106.962,139.883 106.629,138.216 106.5,136.5C 106.433,135.041 106.766,133.708 107.5,132.5C 109.153,132.34 110.486,131.674 111.5,130.5C 113.027,130.573 114.027,129.906 114.5,128.5C 114.842,127.662 115.508,127.328 116.5,127.5C 118.483,127.843 119.817,127.176 120.5,125.5C 122.898,125.741 124.898,125.074 126.5,123.5C 126.833,123.5 127.167,123.5 127.5,123.5C 130.228,123.829 132.562,123.163 134.5,121.5C 136.265,120.539 138.265,120.205 140.5,120.5C 153.504,120.667 166.504,120.5 179.5,120C 182.695,119.819 185.695,119.319 188.5,118.5C 198.814,117.368 209.147,116.368 219.5,115.5C 221.782,116.223 224.116,116.557 226.5,116.5 Z"/></g>
<g><path style="opacity:0.004" fill="#2c2c2c" d="M 188.5,118.5 C 185.695,119.319 182.695,119.819 179.5,120C 166.504,120.5 153.504,120.667 140.5,120.5C 145.401,118.948 150.568,118.281 156,118.5C 166.832,119.709 177.666,119.709 188.5,118.5 Z"/></g>
<g><path style="opacity:0.996" fill="#414141" d="M 231.5,118.5 C 232.833,118.5 233.5,119.167 233.5,120.5C 233.5,119.167 232.833,118.5 231.5,118.5 Z"/></g>
<g><path style="opacity:0.996" fill="#767676" d="M 134.5,121.5 C 132.562,123.163 130.228,123.829 127.5,123.5C 129.515,122.076 131.848,121.41 134.5,121.5 Z"/></g>
<g><path style="opacity:0.608" fill="#3a3a3a" d="M 233.5,120.5 C 234.906,120.973 235.573,121.973 235.5,123.5C 234.094,123.027 233.427,122.027 233.5,120.5 Z"/></g>
<g><path style="opacity:0.004" fill="#191919" d="M 126.5,123.5 C 124.898,125.074 122.898,125.741 120.5,125.5C 122.214,124.262 124.214,123.595 126.5,123.5 Z"/></g>
<g><path style="opacity:1" fill="#676767" d="M 120.5,125.5 C 119.817,127.176 118.483,127.843 116.5,127.5C 117.514,126.326 118.847,125.66 120.5,125.5 Z"/></g>
<g><path style="opacity:0.996" fill="#575757" d="M 114.5,128.5 C 114.027,129.906 113.027,130.573 111.5,130.5C 111.973,129.094 112.973,128.427 114.5,128.5 Z"/></g>
<g><path style="opacity:0.996" fill="#727272" d="M 111.5,130.5 C 110.486,131.674 109.153,132.34 107.5,132.5C 108.183,130.824 109.517,130.157 111.5,130.5 Z"/></g>
<g><path style="opacity:0.004" fill="#1a1a1a" d="M 235.5,125.5 C 236.801,129.943 237.468,134.609 237.5,139.5C 235.896,135.1 235.229,130.434 235.5,125.5 Z"/></g>
<g><path style="opacity:0.996" fill="#2d2d2d" d="M 107.5,132.5 C 106.766,133.708 106.433,135.041 106.5,136.5C 103.782,134.577 104.116,133.244 107.5,132.5 Z"/></g>
<g><path style="opacity:0.996" fill="#303030" d="M 107.5,141.5 C 109.104,142.287 109.771,143.62 109.5,145.5C 107.896,144.713 107.229,143.38 107.5,141.5 Z"/></g>
<g><path style="opacity:0.004" fill="#1a1a1a" d="M 111.5,151.5 C 112.931,152.78 113.598,154.447 113.5,156.5C 112.069,155.22 111.402,153.553 111.5,151.5 Z"/></g>
<g><path style="opacity:0.004" fill="#151515" d="M 238.5,155.5 C 239.768,157.905 240.435,160.572 240.5,163.5C 239.833,162.5 239.167,161.5 238.5,160.5C 238.5,158.833 238.5,157.167 238.5,155.5 Z"/></g>
<g><path style="opacity:0.004" fill="#292929" d="M 114.5,161.5 C 116.074,163.102 116.741,165.102 116.5,167.5C 114.926,165.898 114.259,163.898 114.5,161.5 Z"/></g>
<g><path style="opacity:0.996" fill="#8a8a8a" d="M 238.5,160.5 C 239.167,161.5 239.833,162.5 240.5,163.5C 240.5,164.833 240.5,166.167 240.5,167.5C 240.5,167.833 240.5,168.167 240.5,168.5C 239.232,166.095 238.565,163.428 238.5,160.5 Z"/></g>
<g><path style="opacity:0.004" fill="#1a1a1a" d="M 116.5,168.5 C 118.074,170.102 118.741,172.102 118.5,174.5C 116.926,172.898 116.259,170.898 116.5,168.5 Z"/></g>
<g><path style="opacity:0.996" fill="#262626" d="M 240.5,167.5 C 241.785,170.589 242.451,173.922 242.5,177.5C 240.882,174.829 240.215,171.829 240.5,168.5C 240.5,168.167 240.5,167.833 240.5,167.5 Z"/></g>
<g><path style="opacity:0.004" fill="#2a2a2a" d="M 118.5,175.5 C 119.222,175.918 119.722,176.584 120,177.5C 120.498,180.482 120.665,183.482 120.5,186.5C 119.313,183.054 118.646,179.387 118.5,175.5 Z"/></g>
<g><path style="opacity:0.996" fill="#4c4c4c" d="M 218.5,181.5 C 212.544,182.586 206.544,183.919 200.5,185.5C 200.881,184.069 201.881,183.236 203.5,183C 208.448,181.95 213.448,181.45 218.5,181.5 Z"/></g>
<g><path style="opacity:0.996" fill="#585858" d="M 219.5,189.5 C 227.65,188.507 235.983,188.174 244.5,188.5C 245.229,193.13 245.563,197.797 245.5,202.5C 244.551,198.343 243.884,194.01 243.5,189.5C 235.5,189.5 227.5,189.5 219.5,189.5 Z"/></g>
<g><path style="opacity:0.996" fill="#363636" d="M 219.5,189.5 C 216.373,190.581 213.04,191.247 209.5,191.5C 209.918,190.778 210.584,190.278 211.5,190C 214.146,189.503 216.813,189.336 219.5,189.5 Z"/></g>
<g><path style="opacity:0.004" fill="#424242" d="M 200.5,190.5 C 202.717,191.369 205.05,191.702 207.5,191.5C 204.68,194.335 202.347,194.001 200.5,190.5 Z"/></g>
<g><path style="opacity:0.004" fill="#2f2f2f" d="M 120.5,186.5 C 122.934,195.869 123.934,205.536 123.5,215.5C 123.953,225.139 122.953,234.472 120.5,243.5C 123.069,224.512 123.069,205.512 120.5,186.5 Z"/></g>
<g><path style="opacity:0.996" fill="#373737" d="M 245.5,207.5 C 246.466,209.792 247.133,212.292 247.5,215C 247.316,216.376 246.649,217.209 245.5,217.5C 245.5,214.167 245.5,210.833 245.5,207.5 Z"/></g>
<g><path style="opacity:0.004" fill="#1d1d1d" d="M 241.5,217.5 C 233.377,218.962 225.044,219.629 216.5,219.5C 224.616,217.957 232.95,217.29 241.5,217.5 Z"/></g>
<g><path style="opacity:0.004" fill="#363636" d="M 214.5,219.5 C 214.167,220.5 213.5,221.167 212.5,221.5C 212.5,220.167 213.167,219.5 214.5,219.5 Z"/></g>
<g><path style="opacity:0.004" fill="#333333" d="M 212.5,221.5 C 211.167,223.167 211.167,224.833 212.5,226.5C 209.952,224.962 209.952,223.296 212.5,221.5 Z"/></g>
<g><path style="opacity:0.996" fill="#272727" d="M 247.5,225.5 C 244.941,225.198 242.607,225.532 240.5,226.5C 236.5,226.5 232.5,226.5 228.5,226.5C 234.784,224.655 241.118,224.321 247.5,225.5 Z"/></g>
<g><path style="opacity:1" fill="#979797" d="M 240.5,226.5 C 242.607,225.532 244.941,225.198 247.5,225.5C 247.5,230.5 247.5,235.5 247.5,240.5C 245.564,236.285 244.897,231.619 245.5,226.5C 243.833,226.5 242.167,226.5 240.5,226.5 Z"/></g>
<g><path style="opacity:0.004" fill="#2f2f2f" d="M 212.5,226.5 C 216.046,226.915 219.713,226.915 223.5,226.5C 221.26,227.687 218.76,228.354 216,228.5C 214.319,228.392 213.152,227.725 212.5,226.5 Z"/></g>
<g><path style="opacity:0.004" fill="#292929" d="M 244.5,245.5 C 244.027,246.906 243.027,247.573 241.5,247.5C 241.973,246.094 242.973,245.427 244.5,245.5 Z"/></g>
<g><path style="opacity:0.004" fill="#2f2f2f" d="M 240.5,248.5 C 239.833,249.833 238.833,250.833 237.5,251.5C 237.5,249.5 238.5,248.5 240.5,248.5 Z"/></g>
<g><path style="opacity:0.996" fill="#333333" d="M 120.5,243.5 C 120.889,246.553 120.223,249.22 118.5,251.5C 118.565,248.572 119.232,245.905 120.5,243.5 Z"/></g>
<g><path style="opacity:0.996" fill="#383838" d="M 253.5,251.5 C 252.5,251.5 251.5,251.5 250.5,251.5C 251.5,248.833 252.5,248.833 253.5,251.5 Z"/></g>
<g><path style="opacity:0.004" fill="#1f1f1f" d="M 254.5,252.5 C 255.833,252.5 256.5,253.167 256.5,254.5C 255.5,254.167 254.833,253.5 254.5,252.5 Z"/></g>
<g><path style="opacity:0.004" fill="#313131" d="M 235.5,252.5 C 235.5,253.833 234.833,254.5 233.5,254.5C 233.833,253.5 234.5,252.833 235.5,252.5 Z"/></g>
<g><path style="opacity:1" fill="#747474" d="M 250.5,251.5 C 248.853,253.326 246.853,254.66 244.5,255.5C 245.802,253.178 247.802,251.845 250.5,251.5 Z"/></g>
<g><path style="opacity:0.004" fill="#191919" d="M 256.5,254.5 C 257.833,254.5 258.5,255.167 258.5,256.5C 257.5,256.167 256.833,255.5 256.5,254.5 Z"/></g>
<g><path style="opacity:0.996" fill="#363636" d="M 118.5,252.5 C 118.771,254.38 118.104,255.713 116.5,256.5C 116.66,254.847 117.326,253.514 118.5,252.5 Z"/></g>
<g><path style="opacity:0.004" fill="#212121" d="M 233.5,254.5 C 233.5,255.833 232.833,256.5 231.5,256.5C 231.833,255.5 232.5,254.833 233.5,254.5 Z"/></g>
<g><path style="opacity:0.996" fill="#2b2b2b" d="M 116.5,257.5 C 116.34,259.153 115.674,260.486 114.5,261.5C 114.229,259.62 114.896,258.287 116.5,257.5 Z"/></g>
<g><path style="opacity:0.996" fill="#424242" d="M 114.5,261.5 C 114.66,263.199 114.494,264.866 114,266.5C 113.583,267.756 112.75,268.423 111.5,268.5C 112.656,266.176 113.656,263.843 114.5,261.5 Z"/></g>
<g><path style="opacity:0.996" fill="#5b5b5b" d="M 228.5,266.5 C 230.167,266.5 231.833,266.5 233.5,266.5C 231.962,269.048 230.296,269.048 228.5,266.5 Z"/></g>
<g><path style="opacity:0.004" fill="#1c1c1c" d="M 273.5,270.5 C 274.833,270.5 275.5,271.167 275.5,272.5C 274.5,272.167 273.833,271.5 273.5,270.5 Z"/></g>
<g><path style="opacity:0.996" fill="#424242" d="M 111.5,270.5 C 111.573,272.027 110.906,273.027 109.5,273.5C 109.427,271.973 110.094,270.973 111.5,270.5 Z"/></g>
<g><path style="opacity:0.004" fill="#303030" d="M 256.5,270.5 C 256.573,272.027 255.906,273.027 254.5,273.5C 254.427,271.973 255.094,270.973 256.5,270.5 Z"/></g>
<g><path style="opacity:0.996" fill="#2f2f2f" d="M 109.5,273.5 C 109.34,275.153 108.674,276.486 107.5,277.5C 107.229,275.62 107.896,274.287 109.5,273.5 Z"/></g>
<g><path style="opacity:0.953" fill="#2d2d2d" d="M 263.5,274.5 C 263.573,276.027 262.906,277.027 261.5,277.5C 261.427,275.973 262.094,274.973 263.5,274.5 Z"/></g>
<g><path style="opacity:1" fill="#4e4e4e" d="M 261.5,277.5 C 261.5,279.5 260.5,280.5 258.5,280.5C 259.167,279.167 260.167,278.167 261.5,277.5 Z"/></g>
<g><path style="opacity:0.004" fill="#131313" d="M 258.5,280.5 C 257.462,282.519 256.128,282.853 254.5,281.5C 255.833,281.167 257.167,280.833 258.5,280.5 Z"/></g>
<g><path style="opacity:0.996" fill="#3d3d3d" d="M 106.5,283.5 C 106.771,285.38 106.104,286.713 104.5,287.5C 104.66,285.847 105.326,284.514 106.5,283.5 Z"/></g>
<g><path style="opacity:1" fill="#717171" d="M 282.5,280.5 C 284.303,282.481 285.97,284.648 287.5,287C 286.922,288.417 285.922,289.25 284.5,289.5C 284.923,288.735 285.257,287.902 285.5,287C 284.094,285.022 283.094,282.855 282.5,280.5 Z"/></g>
<g><path style="opacity:0.867" fill="#4b4b4b" d="M 284.5,289.5 C 284.573,291.027 283.906,292.027 282.5,292.5C 282.427,290.973 283.094,289.973 284.5,289.5 Z"/></g>
<g><path style="opacity:0.996" fill="#2c2c2c" d="M 104.5,288.5 C 104.598,290.553 103.931,292.22 102.5,293.5C 102.402,291.447 103.069,289.78 104.5,288.5 Z"/></g>
<g><path style="opacity:0.004" fill="#222222" d="M 102.5,293.5 C 102.829,296.228 102.163,298.562 100.5,300.5C 100.171,297.772 100.837,295.438 102.5,293.5 Z"/></g>
<g><path style="opacity:0.867" fill="#2b2b2b" d="M 291.5,294.5 C 291.167,295.5 290.5,296.167 289.5,296.5C 289.5,295.167 290.167,294.5 291.5,294.5 Z"/></g>
<g><path style="opacity:0.996" fill="#2b2b2b" d="M 289.5,296.5 C 289.573,298.027 288.906,299.027 287.5,299.5C 287.427,297.973 288.094,296.973 289.5,296.5 Z"/></g>
<g><path style="opacity:0.004" fill="#3e3e3e" d="M 286.5,302.5 C 286.116,304.293 284.95,305.293 283,305.5C 281.699,305.361 280.866,304.695 280.5,303.5C 282.621,303.675 284.621,303.341 286.5,302.5 Z"/></g>
<g><path style="opacity:0.996" fill="#2d2d2d" d="M 310.5,308.5 C 312.027,308.427 313.027,309.094 313.5,310.5C 311.821,310.715 310.821,310.048 310.5,308.5 Z"/></g>
<g><path style="opacity:0.996" fill="#353535" d="M 314.5,310.5 C 318.458,310.251 322.124,310.918 325.5,312.5C 321.511,312.884 317.845,312.217 314.5,310.5 Z"/></g>
<g><path style="opacity:1" fill="#848484" d="M 357.5,312.5 C 357.5,312.833 357.5,313.167 357.5,313.5C 346.654,313.828 335.987,313.494 325.5,312.5C 336.207,312.096 346.874,312.096 357.5,312.5 Z"/></g>
<g><path style="opacity:0.004" fill="#1c1c1c" d="M 357.5,313.5 C 357.5,313.167 357.5,312.833 357.5,312.5C 361.425,312.43 365.091,313.097 368.5,314.5C 364.821,314.276 361.154,313.942 357.5,313.5 Z"/></g>
<g><path style="opacity:0.996" fill="#4b4b4b" d="M 375.5,315.5 C 377.553,315.402 379.22,316.069 380.5,317.5C 378.302,317.88 376.635,317.213 375.5,315.5 Z"/></g>
<g><path style="opacity:0.996" fill="#585858" d="M 382.5,317.5 C 384.553,317.402 386.22,318.069 387.5,319.5C 385.302,319.88 383.635,319.213 382.5,317.5 Z"/></g>
<g><path style="opacity:0.004" fill="#171717" d="M 387.5,319.5 C 389.027,319.427 390.027,320.094 390.5,321.5C 388.973,321.573 387.973,320.906 387.5,319.5 Z"/></g>
<g><path style="opacity:0.004" fill="#262626" d="M 392.5,322.5 C 394.027,322.427 395.027,323.094 395.5,324.5C 393.973,324.573 392.973,323.906 392.5,322.5 Z"/></g>
<g><path style="opacity:0.996" fill="#373737" d="M 399.5,328.5 C 400.906,328.973 401.573,329.973 401.5,331.5C 400.094,331.027 399.427,330.027 399.5,328.5 Z"/></g>
<g><path style="opacity:0.996" fill="#484848" d="M 401.5,331.5 C 402.906,331.973 403.573,332.973 403.5,334.5C 402.094,334.027 401.427,333.027 401.5,331.5 Z"/></g>
<g><path style="opacity:0.004" fill="#414141" d="M 98.5,314.5 C 98.3068,324.194 98.6401,333.861 99.5,343.5C 98.7321,342.737 98.2321,341.737 98,340.5C 97.1764,331.657 97.3431,322.99 98.5,314.5 Z"/></g>
<g><path style="opacity:0.996" fill="#575757" d="M 404.5,337.5 C 405.931,338.78 406.598,340.447 406.5,342.5C 404.787,341.365 404.12,339.698 404.5,337.5 Z"/></g>
<g><path style="opacity:0.004" fill="#282828" d="M 99.5,345.5 C 107.74,345.825 116.074,345.825 124.5,345.5C 118.177,346.421 111.677,347.087 105,347.5C 102.705,347.453 100.871,346.787 99.5,345.5 Z"/></g>
<g><path style="opacity:0.996" fill="#3c3c3c" d="M 170.5,347.5 C 176.75,347.184 182.75,347.85 188.5,349.5C 182.25,349.816 176.25,349.15 170.5,347.5 Z"/></g>
<g><path style="opacity:1" fill="#f7f7f7" d="M 155.5,350.5 C 161.605,351.996 167.938,352.663 174.5,352.5C 175.5,352.5 176.5,352.5 177.5,352.5C 181.9,354.104 186.566,354.771 191.5,354.5C 192.833,354.5 194.167,354.5 195.5,354.5C 201.608,356.116 207.941,357.116 214.5,357.5C 218.557,357.848 222.557,358.514 226.5,359.5C 228.438,361.163 230.772,361.829 233.5,361.5C 235.167,361.5 236.833,361.5 238.5,361.5C 241.452,363.41 244.786,364.41 248.5,364.5C 249.5,364.5 250.5,364.5 251.5,364.5C 252.99,366.28 254.99,366.946 257.5,366.5C 258.167,366.5 258.833,366.5 259.5,366.5C 265.196,368.561 271.196,369.561 277.5,369.5C 278.167,369.5 278.833,369.5 279.5,369.5C 280.263,370.268 281.263,370.768 282.5,371C 286.152,371.499 289.818,371.665 293.5,371.5C 295.167,371.5 296.833,371.5 298.5,371.5C 311.5,374.167 324.5,374.167 337.5,371.5C 338.5,371.5 339.5,371.5 340.5,371.5C 344.817,371.917 348.817,371.25 352.5,369.5C 354.764,368.781 357.097,368.448 359.5,368.5C 362.833,368.167 366.167,367.833 369.5,367.5C 372.992,367.554 375.992,366.554 378.5,364.5C 378.833,364.5 379.167,364.5 379.5,364.5C 383.048,363.87 386.381,362.87 389.5,361.5C 389.833,361.5 390.167,361.5 390.5,361.5C 392.38,361.771 393.713,361.104 394.5,359.5C 396.05,358.559 397.716,357.893 399.5,357.5C 401.38,357.771 402.713,357.104 403.5,355.5C 404.568,354.566 405.901,354.232 407.5,354.5C 409.027,354.573 410.027,353.906 410.5,352.5C 414.09,352.544 416.59,354.211 418,357.5C 418.808,361.027 418.641,364.36 417.5,367.5C 416.5,367.833 415.833,368.5 415.5,369.5C 414.5,369.833 413.833,370.5 413.5,371.5C 411.973,371.427 410.973,372.094 410.5,373.5C 408.517,373.157 407.183,373.824 406.5,375.5C 405.292,376.234 403.959,376.567 402.5,376.5C 400.447,376.402 398.78,377.069 397.5,378.5C 395.62,378.229 394.287,378.896 393.5,380.5C 392.5,380.5 391.5,380.5 390.5,380.5C 388.447,380.402 386.78,381.069 385.5,382.5C 383.621,383.341 381.621,383.675 379.5,383.5C 377.102,383.259 375.102,383.926 373.5,385.5C 372.833,385.5 372.167,385.5 371.5,385.5C 367.295,385.717 363.295,386.383 359.5,387.5C 355.988,386.945 352.988,387.612 350.5,389.5C 343.857,390.212 337.191,390.546 330.5,390.5C 315.833,390.5 301.167,390.5 286.5,390.5C 277.028,390.649 267.695,389.649 258.5,387.5C 256.562,385.837 254.228,385.171 251.5,385.5C 249.562,383.837 247.228,383.171 244.5,383.5C 235.192,380.852 225.859,378.186 216.5,375.5C 213.155,373.783 209.489,373.116 205.5,373.5C 204.833,373.5 204.167,373.5 203.5,373.5C 201.513,372.657 199.346,371.99 197,371.5C 196.235,371.57 195.735,371.903 195.5,372.5C 195.5,372.833 195.5,373.167 195.5,373.5C 194.463,374.93 193.796,376.597 193.5,378.5C 192.918,379.931 192.085,381.264 191,382.5C 190.329,383.252 189.496,383.586 188.5,383.5C 184.265,384.436 179.931,384.769 175.5,384.5C 167.517,383.834 159.517,383.501 151.5,383.5C 143.804,383.646 136.138,383.313 128.5,382.5C 121.397,380.895 114.063,380.228 106.5,380.5C 101.901,380.8 97.4014,380.467 93,379.5C 92.2302,371.452 92.3968,363.452 93.5,355.5C 94.3127,353.739 95.3127,352.072 96.5,350.5C 97.2223,351.551 98.2223,352.218 99.5,352.5C 104.731,352.556 109.731,351.889 114.5,350.5C 128.039,349.194 141.706,349.194 155.5,350.5 Z"/></g>
<g><path style="opacity:0.004" fill="#303030" d="M 155.5,350.5 C 162.072,350.239 168.406,350.906 174.5,352.5C 167.938,352.663 161.605,351.996 155.5,350.5 Z"/></g>
<g><path style="opacity:0.004" fill="#151515" d="M 96.5,350.5 C 95.3127,352.072 94.3127,353.739 93.5,355.5C 93.3573,353.738 93.6906,352.071 94.5,350.5C 95.2565,349.227 95.9232,349.227 96.5,350.5 Z"/></g>
<g><path style="opacity:0.996" fill="#434343" d="M 114.5,350.5 C 109.731,351.889 104.731,352.556 99.5,352.5C 104.217,350.762 109.217,350.096 114.5,350.5 Z"/></g>
<g><path style="opacity:0.004" fill="#151515" d="M 200.5,350.5 C 203.781,350.42 206.781,351.087 209.5,352.5C 206.219,352.58 203.219,351.913 200.5,350.5 Z"/></g>
<g><path style="opacity:0.004" fill="#282828" d="M 403.5,350.5 C 403.027,351.906 402.027,352.573 400.5,352.5C 400.973,351.094 401.973,350.427 403.5,350.5 Z"/></g>
<g><path style="opacity:0.004" fill="#212121" d="M 177.5,352.5 C 182.414,352.362 187.081,353.028 191.5,354.5C 186.566,354.771 181.9,354.104 177.5,352.5 Z"/></g>
<g><path style="opacity:0.996" fill="#303030" d="M 212.5,352.5 C 215.727,352.676 218.727,353.343 221.5,354.5C 218.171,354.785 215.171,354.118 212.5,352.5 Z"/></g>
<g><path style="opacity:0.004" fill="#1b1b1b" d="M 399.5,352.5 C 399.027,353.906 398.027,354.573 396.5,354.5C 396.973,353.094 397.973,352.427 399.5,352.5 Z"/></g>
<g><path style="opacity:0.996" fill="#212121" d="M 410.5,352.5 C 410.027,353.906 409.027,354.573 407.5,354.5C 407.973,353.094 408.973,352.427 410.5,352.5 Z"/></g>
<g><path style="opacity:0.176" fill="#2e2e2e" d="M 195.5,354.5 C 202.124,354.492 208.457,355.492 214.5,357.5C 207.941,357.116 201.608,356.116 195.5,354.5 Z"/></g>
<g><path style="opacity:0.004" fill="#1d1d1d" d="M 231.5,355.5 C 234.152,355.41 236.485,356.076 238.5,357.5C 235.848,357.59 233.515,356.924 231.5,355.5 Z"/></g>
<g><path style="opacity:0.004" fill="#242424" d="M 391.5,355.5 C 390.486,356.674 389.153,357.34 387.5,357.5C 388.183,355.824 389.517,355.157 391.5,355.5 Z"/></g>
<g><path style="opacity:0.176" fill="#2f2f2f" d="M 403.5,355.5 C 402.713,357.104 401.38,357.771 399.5,357.5C 400.514,356.326 401.847,355.66 403.5,355.5 Z"/></g>
<g><path style="opacity:0.004" fill="#161616" d="M 239.5,357.5 C 242.01,357.054 244.01,357.72 245.5,359.5C 243.302,359.125 241.302,358.458 239.5,357.5 Z"/></g>
<g><path style="opacity:0.004" fill="#2a2a2a" d="M 385.5,357.5 C 384.22,358.931 382.553,359.598 380.5,359.5C 381.78,358.069 383.447,357.402 385.5,357.5 Z"/></g>
<g><path style="opacity:1" fill="#676767" d="M 248.5,359.5 C 251.495,359.294 254.162,359.96 256.5,361.5C 253.505,361.706 250.838,361.04 248.5,359.5 Z"/></g>
<g><path style="opacity:0.004" fill="#343434" d="M 379.5,359.5 C 377.786,360.738 375.786,361.405 373.5,361.5C 375.102,359.926 377.102,359.259 379.5,359.5 Z"/></g>
<g><path style="opacity:0.004" fill="#1a1a1a" d="M 226.5,359.5 C 229.152,359.41 231.485,360.076 233.5,361.5C 230.772,361.829 228.438,361.163 226.5,359.5 Z"/></g>
<g><path style="opacity:0.004" fill="#181818" d="M 394.5,359.5 C 393.713,361.104 392.38,361.771 390.5,361.5C 391.514,360.326 392.847,359.66 394.5,359.5 Z"/></g>
<g><path style="opacity:0.004" fill="#2a2a2a" d="M 373.5,361.5 C 370.003,362.402 366.337,363.069 362.5,363.5C 362.918,362.778 363.584,362.278 364.5,362C 367.482,361.502 370.482,361.335 373.5,361.5 Z"/></g>
<g><path style="opacity:0.996" fill="#3b3b3b" d="M 238.5,361.5 C 242.171,361.757 245.505,362.757 248.5,364.5C 244.786,364.41 241.452,363.41 238.5,361.5 Z"/></g>
<g><path style="opacity:0.435" fill="#3e3e3e" d="M 389.5,361.5 C 386.381,362.87 383.048,363.87 379.5,364.5C 382.381,362.32 385.714,361.32 389.5,361.5 Z"/></g>
<g><path style="opacity:0.996" fill="#393939" d="M 251.5,364.5 C 253.786,364.595 255.786,365.262 257.5,366.5C 254.99,366.946 252.99,366.28 251.5,364.5 Z"/></g>
<g><path style="opacity:0.263" fill="#323232" d="M 355.5,364.5 C 351.79,366.136 347.79,366.802 343.5,366.5C 347.295,365.383 351.295,364.717 355.5,364.5 Z"/></g>
<g><path style="opacity:1" fill="#7c7c7c" d="M 378.5,364.5 C 375.992,366.554 372.992,367.554 369.5,367.5C 369.5,367.167 369.5,366.833 369.5,366.5C 372.5,365.833 375.5,365.167 378.5,364.5 Z"/></g>
<g><path style="opacity:0.349" fill="#373737" d="M 259.5,366.5 C 265.725,366.9 271.725,367.9 277.5,369.5C 271.196,369.561 265.196,368.561 259.5,366.5 Z"/></g>
<g><path style="opacity:0.004" fill="#181818" d="M 290.5,366.5 C 307.824,367.667 325.158,367.667 342.5,366.5C 341.391,367.29 340.058,367.79 338.5,368C 323.833,368.667 309.167,368.667 294.5,368C 292.942,367.79 291.609,367.29 290.5,366.5 Z"/></g>
<g><path style="opacity:0.996" fill="#262626" d="M 369.5,366.5 C 369.5,366.833 369.5,367.167 369.5,367.5C 366.167,367.833 362.833,368.167 359.5,368.5C 362.507,366.825 365.84,366.159 369.5,366.5 Z"/></g>
<g><path style="opacity:0.004" fill="#282828" d="M 417.5,367.5 C 417.5,368.833 416.833,369.5 415.5,369.5C 415.833,368.5 416.5,367.833 417.5,367.5 Z"/></g>
<g><path style="opacity:0.004" fill="#2f2f2f" d="M 352.5,369.5 C 348.817,371.25 344.817,371.917 340.5,371.5C 344.267,370.205 348.267,369.539 352.5,369.5 Z"/></g>
<g><path style="opacity:0.996" fill="#353535" d="M 279.5,369.5 C 284.391,369.532 289.057,370.199 293.5,371.5C 289.818,371.665 286.152,371.499 282.5,371C 281.263,370.768 280.263,370.268 279.5,369.5 Z"/></g>
<g><path style="opacity:0.004" fill="#232323" d="M 415.5,369.5 C 415.5,370.833 414.833,371.5 413.5,371.5C 413.833,370.5 414.5,369.833 415.5,369.5 Z"/></g>
<g><path style="opacity:0.004" fill="#242424" d="M 195.5,372.5 C 195.735,371.903 196.235,371.57 197,371.5C 199.346,371.99 201.513,372.657 203.5,373.5C 200.763,373.599 198.096,373.265 195.5,372.5 Z"/></g>
<g><path style="opacity:0.996" fill="#484848" d="M 298.5,371.5 C 311.5,371.5 324.5,371.5 337.5,371.5C 324.5,374.167 311.5,374.167 298.5,371.5 Z"/></g>
<g><path style="opacity:0.004" fill="#353535" d="M 413.5,371.5 C 413.027,372.906 412.027,373.573 410.5,373.5C 410.973,372.094 411.973,371.427 413.5,371.5 Z"/></g>
<g><path style="opacity:0.004" fill="#1c1c1c" d="M 205.5,373.5 C 209.489,373.116 213.155,373.783 216.5,375.5C 212.613,375.354 208.946,374.687 205.5,373.5 Z"/></g>
<g><path style="opacity:0.004" fill="#1c1c1c" d="M 410.5,373.5 C 409.329,374.345 407.995,375.011 406.5,375.5C 407.183,373.824 408.517,373.157 410.5,373.5 Z"/></g>
<g><path style="opacity:0.004" fill="#353535" d="M 195.5,373.5 C 195.88,375.698 195.213,377.365 193.5,378.5C 193.796,376.597 194.463,374.93 195.5,373.5 Z"/></g>
<g><path style="opacity:0.004" fill="#2c2c2c" d="M 402.5,376.5 C 401.22,377.931 399.553,378.598 397.5,378.5C 398.78,377.069 400.447,376.402 402.5,376.5 Z"/></g>
<g><path style="opacity:0.004" fill="#212121" d="M 397.5,378.5 C 396.713,380.104 395.38,380.771 393.5,380.5C 394.287,378.896 395.62,378.229 397.5,378.5 Z"/></g>
<g><path style="opacity:0.004" fill="#222222" d="M 106.5,380.5 C 114.063,380.228 121.397,380.895 128.5,382.5C 120.944,382.69 113.611,382.023 106.5,380.5 Z"/></g>
<g><path style="opacity:0.004" fill="#262626" d="M 390.5,380.5 C 389.365,382.213 387.698,382.88 385.5,382.5C 386.78,381.069 388.447,380.402 390.5,380.5 Z"/></g>
<g><path style="opacity:0.996" fill="#5d5d5d" d="M 244.5,383.5 C 247.228,383.171 249.562,383.837 251.5,385.5C 248.848,385.59 246.515,384.924 244.5,383.5 Z"/></g>
<g><path style="opacity:0.148" fill="#3e3e3e" d="M 151.5,383.5 C 159.517,383.501 167.517,383.834 175.5,384.5C 175.5,384.833 175.5,385.167 175.5,385.5C 167.277,385.754 159.277,385.088 151.5,383.5 Z"/></g>
<g><path style="opacity:1" fill="#858585" d="M 188.5,383.5 C 186.897,385.294 184.73,386.294 182,386.5C 179.901,385.713 177.734,385.38 175.5,385.5C 175.5,385.167 175.5,384.833 175.5,384.5C 179.931,384.769 184.265,384.436 188.5,383.5 Z"/></g>
<g><path style="opacity:0.004" fill="#1d1d1d" d="M 379.5,383.5 C 377.786,384.738 375.786,385.405 373.5,385.5C 375.102,383.926 377.102,383.259 379.5,383.5 Z"/></g>
<g><path style="opacity:0.004" fill="#232323" d="M 251.5,385.5 C 254.228,385.171 256.562,385.837 258.5,387.5C 255.848,387.59 253.515,386.924 251.5,385.5 Z"/></g>
<g><path style="opacity:0.004" fill="#202020" d="M 371.5,385.5 C 371.082,386.222 370.416,386.722 369.5,387C 366.183,387.498 362.85,387.665 359.5,387.5C 363.295,386.383 367.295,385.717 371.5,385.5 Z"/></g>
<g><path style="opacity:0.004" fill="#292929" d="M 359.5,387.5 C 356.781,388.913 353.781,389.58 350.5,389.5C 352.988,387.612 355.988,386.945 359.5,387.5 Z"/></g>
<g><path style="opacity:0.004" fill="#252525" d="M 286.5,390.5 C 301.167,390.5 315.833,390.5 330.5,390.5C 315.827,393.019 301.161,393.019 286.5,390.5 Z"/></g>
<g><path style="opacity:0.004" fill="#070707" d="M 92.5,395.5 C 200.999,394.334 309.666,394.167 418.5,395C 309.834,395.5 201.167,395.667 92.5,395.5 Z"/></g>
</svg>
