<?xml version="1.0" encoding="UTF-8"?>
<!DOCTYPE svg PUBLIC "-//W3C//DTD SVG 1.1//EN" "http://www.w3.org/Graphics/SVG/1.1/DTD/svg11.dtd">
<svg xmlns="http://www.w3.org/2000/svg" version="1.1" width="1500px" height="1500px" style="shape-rendering:geometricPrecision; text-rendering:geometricPrecision; image-rendering:optimizeQuality; fill-rule:evenodd; clip-rule:evenodd" xmlns:xlink="http://www.w3.org/1999/xlink">
<g><path style="opacity:0.99" fill="#fefefe" d="M 728.5,598.5 C 796.288,592.81 847.788,618.81 883,676.5C 901.052,710.935 905.718,747.268 897,785.5C 878.279,849.554 836.112,887.721 770.5,900C 702.69,906.179 651.19,880.346 616,822.5C 597.948,788.065 593.282,751.732 602,713.5C 620.894,649.434 663.061,611.1 728.5,598.5 Z"/></g>
<g><path style="opacity:0.989" fill="#fefefe" d="M 1064.5,598.5 C 1119.91,593.232 1165.91,611.232 1202.5,652.5C 1240.76,703.085 1247.26,757.752 1222,816.5C 1197.37,863.257 1158.87,891.091 1106.5,900C 1051.03,905.659 1004.86,887.826 968,846.5C 935.579,804.35 926.245,757.35 940,705.5C 961.007,645.994 1002.51,610.327 1064.5,598.5 Z"/></g>
<g><path style="opacity:0.989" fill="#fefefe" d="M 399.5,609.5 C 464.631,606.97 513.798,633.303 547,688.5C 564.417,721.614 569.417,756.614 562,793.5C 544.975,857.525 504.142,896.692 439.5,911C 372.899,919.271 321.066,895.771 284,840.5C 260.914,800.793 255.914,758.793 269,714.5C 291.818,653.853 335.318,618.853 399.5,609.5 Z"/></g>
</svg>
