<?xml version="1.0" encoding="UTF-8"?>
<!DOCTYPE svg PUBLIC "-//W3C//DTD SVG 1.1//EN" "http://www.w3.org/Graphics/SVG/1.1/DTD/svg11.dtd">
<svg xmlns="http://www.w3.org/2000/svg" version="1.1" width="512px" height="512px" style="shape-rendering:geometricPrecision; text-rendering:geometricPrecision; image-rendering:optimizeQuality; fill-rule:evenodd; clip-rule:evenodd" xmlns:xlink="http://www.w3.org/1999/xlink">
<g><path style="opacity:1" fill="#f9f9f9" d="M 288.5,108.5 C 288.5,115.833 288.5,123.167 288.5,130.5C 290.167,130.5 291.833,130.5 293.5,130.5C 295.481,132.144 297.481,133.81 299.5,135.5C 303.411,140.361 307.411,145.194 311.5,150C 319.593,152.214 327.593,154.714 335.5,157.5C 335.089,160.276 335.922,160.943 338,159.5C 340.433,160.479 342.933,161.145 345.5,161.5C 347.576,163.714 350.242,165.214 353.5,166C 359.79,167.457 365.956,169.29 372,171.5C 372.902,171.257 373.735,170.923 374.5,170.5C 394.756,176.853 414.923,183.52 435,190.5C 439.822,213.762 444.322,237.095 448.5,260.5C 449,279.191 449.834,297.857 451,316.5C 452.886,301.23 453.72,285.897 453.5,270.5C 453.5,269.167 453.5,267.833 453.5,266.5C 453.666,262.486 453.499,258.486 453,254.5C 451.114,251.079 449.28,247.746 447.5,244.5C 447.354,240.481 447.021,236.481 446.5,232.5C 446.167,229.833 445.833,227.167 445.5,224.5C 450.48,223.985 455.146,224.652 459.5,226.5C 463.44,260.506 463.44,294.506 459.5,328.5C 458.5,328.5 457.5,328.5 456.5,328.5C 456.5,329.5 456.5,330.5 456.5,331.5C 453.43,332.243 451.764,334.243 451.5,337.5C 447.932,337.759 446.599,339.759 447.5,343.5C 445.58,348.348 442.914,352.682 439.5,356.5C 438.501,345.186 438.168,333.853 438.5,322.5C 438.5,318.167 438.5,313.833 438.5,309.5C 438.73,302.445 438.23,295.445 437,288.5C 436.502,291.817 436.335,295.15 436.5,298.5C 436.5,303.833 436.5,309.167 436.5,314.5C 436.5,330.5 436.5,346.5 436.5,362.5C 432.5,364.5 428.5,366.5 424.5,368.5C 423.07,368.421 421.736,368.754 420.5,369.5C 420.036,368.364 419.702,367.364 419.5,366.5C 419.5,365.5 419.5,364.5 419.5,363.5C 418.11,364.899 417.11,366.566 416.5,368.5C 413.834,372.031 410.834,375.364 407.5,378.5C 406.675,379.386 405.675,379.719 404.5,379.5C 404.5,380.5 404.5,381.5 404.5,382.5C 386.945,396.81 366.945,401.31 344.5,396C 331.085,391.233 319.918,383.399 311,372.5C 308.489,369.16 306.656,365.494 305.5,361.5C 306.974,355.5 304.974,351.5 299.5,349.5C 295.235,340.695 291.568,331.695 288.5,322.5C 280.044,318.455 271.377,314.788 262.5,311.5C 253.623,314.788 244.956,318.455 236.5,322.5C 233.172,332.307 229.339,341.973 225,351.5C 209.576,389.63 181.742,404.13 141.5,395C 137.65,392.909 133.65,391.076 129.5,389.5C 116.278,379.729 102.612,370.729 88.5,362.5C 88.5,345.5 88.5,328.5 88.5,311.5C 88.8288,305.794 88.4954,300.128 87.5,294.5C 86.5017,303.81 86.1684,313.143 86.5,322.5C 86.8256,333.877 86.3256,345.21 85,356.5C 81.8276,352.159 79.1609,347.492 77,342.5C 73.5708,337.981 69.9041,333.648 66,329.5C 63.1748,310.939 62.0082,292.273 62.5,273.5C 63.3261,268.684 63.8261,263.684 64,258.5C 64.9717,262.232 65.4717,261.899 65.5,257.5C 65.1575,250.564 65.1575,243.564 65.5,236.5C 65.5,232.833 65.5,229.167 65.5,225.5C 70.0704,224.559 74.737,224.226 79.5,224.5C 79.5,225.5 79.5,226.5 79.5,227.5C 78.6161,232.804 77.9494,238.137 77.5,243.5C 76.8826,243.611 76.3826,243.944 76,244.5C 70.9015,262.584 70.0682,280.917 73.5,299.5C 73.8333,299.167 74.1667,298.833 74.5,298.5C 75.2497,285.859 75.9163,273.192 76.5,260.5C 76.8434,255.747 77.51,251.081 78.5,246.5C 80.9949,241.931 82.3282,236.931 82.5,231.5C 84.464,217.487 87.1307,203.654 90.5,190C 131.02,175.821 171.853,162.655 213,150.5C 218.748,143.412 224.914,136.579 231.5,130C 232.793,129.51 234.127,129.343 235.5,129.5C 235.334,122.492 235.5,115.492 236,108.5C 236.519,107.484 237.353,106.818 238.5,106.5C 252.998,101.825 267.665,101.325 282.5,105C 285.152,105.353 287.152,106.52 288.5,108.5 Z M 235.5,158.5 C 235.334,162.514 235.501,166.514 236,170.5C 236.5,171.667 237.333,172.5 238.5,173C 254.5,173.667 270.5,173.667 286.5,173C 287.756,172.583 288.423,171.75 288.5,170.5C 289.166,166.647 289.833,162.647 290.5,158.5C 291.086,158.709 291.586,159.043 292,159.5C 292.499,163.486 292.666,167.486 292.5,171.5C 291.662,171.842 291.328,172.508 291.5,173.5C 272.573,174.653 253.573,174.82 234.5,174C 232.49,169.391 231.99,164.558 233,159.5C 233.671,158.748 234.504,158.414 235.5,158.5 Z M 277.5,181.5 C 285.65,180.507 293.983,180.174 302.5,180.5C 302.244,184.269 302.577,187.936 303.5,191.5C 301.983,191.489 300.816,190.823 300,189.5C 299.503,186.854 299.336,184.187 299.5,181.5C 292.167,181.5 284.833,181.5 277.5,181.5 Z M 303.5,191.5 C 304.167,191.5 304.833,191.5 305.5,191.5C 305.5,192.167 305.5,192.833 305.5,193.5C 304.5,193.167 303.833,192.5 303.5,191.5 Z M 305.5,193.5 C 307.167,194.5 308.5,195.833 309.5,197.5C 307.167,197.167 305.833,195.833 305.5,193.5 Z M 310.5,198.5 C 311.488,199.795 312.488,201.128 313.5,202.5C 313.5,202.833 313.5,203.167 313.5,203.5C 311.273,202.599 310.273,200.933 310.5,198.5 Z M 180.5,199.5 C 179.713,201.104 178.38,201.771 176.5,201.5C 176.5,201.167 176.5,200.833 176.5,200.5C 177.833,200.167 179.167,199.833 180.5,199.5 Z M 168.5,204.5 C 168.5,204.833 168.5,205.167 168.5,205.5C 165.838,206.499 163.172,207.499 160.5,208.5C 159.833,208.5 159.5,208.167 159.5,207.5C 162.406,206.213 165.406,205.213 168.5,204.5 Z M 157.5,208.5 C 158.167,208.5 158.5,208.833 158.5,209.5C 155.366,210.901 152.366,212.568 149.5,214.5C 145.319,224.195 140.652,233.529 135.5,242.5C 134.662,242.158 134.328,241.492 134.5,240.5C 137.963,231.449 141.63,222.449 145.5,213.5C 146.71,213.068 147.71,212.401 148.5,211.5C 151.381,210.317 154.381,209.317 157.5,208.5 Z M 276.5,220.5 C 273.103,218.472 269.436,216.972 265.5,216C 261.812,215.55 258.146,215.717 254.5,216.5C 261.269,213.607 267.936,214.107 274.5,218C 275.381,218.708 276.047,219.542 276.5,220.5 Z M 278.5,248.5 C 276.967,250.355 275.3,252.188 273.5,254C 270.626,254.942 267.96,256.109 265.5,257.5C 261.327,257.123 257.327,256.123 253.5,254.5C 251.629,254.141 250.129,253.141 249,251.5C 247.08,248.661 245.413,245.661 244,242.5C 243.55,238.812 243.717,235.146 244.5,231.5C 247.027,227.321 250.36,223.821 254.5,221C 269.734,217.777 278.734,223.777 281.5,239C 281.194,242.415 280.194,245.582 278.5,248.5 Z M 276.5,220.5 C 279.5,221.5 281.5,223.5 282.5,226.5C 280.167,224.833 278.167,222.833 276.5,220.5 Z M 282.5,226.5 C 285.64,231.276 286.973,236.609 286.5,242.5C 285.833,242.833 285.167,243.167 284.5,243.5C 285.406,238.347 284.74,233.347 282.5,228.5C 282.5,227.833 282.5,227.167 282.5,226.5 Z M 234.5,248.5 C 233.833,248.5 233.5,248.833 233.5,249.5C 231.026,246.813 230.859,243.813 233,240.5C 233.395,243.207 233.895,245.873 234.5,248.5 Z M 239.5,257.5 C 241.93,259.945 244.596,261.945 247.5,263.5C 246.833,263.5 246.167,263.5 245.5,263.5C 245.5,263.833 245.5,264.167 245.5,264.5C 243.159,262.171 240.492,260.171 237.5,258.5C 238.492,258.672 239.158,258.338 239.5,257.5 Z M 282.5,261.5 C 282.5,261.833 282.5,262.167 282.5,262.5C 281.335,264.416 279.668,265.249 277.5,265C 279.196,263.824 280.862,262.657 282.5,261.5 Z M 398.5,262.5 C 399.906,262.973 400.573,263.973 400.5,265.5C 399.094,265.027 398.427,264.027 398.5,262.5 Z M 325.5,265.5 C 324.244,265.539 323.244,265.039 322.5,264C 323.998,263.415 324.998,263.915 325.5,265.5 Z M 248.5,264.5 C 257.702,267.896 267.036,268.396 276.5,266C 273.242,268.548 269.575,270.048 265.5,270.5C 264.486,269.235 262.986,268.569 261,268.5C 259.293,268.508 257.793,268.842 256.5,269.5C 253.246,269.206 250.579,267.873 248.5,265.5C 248.5,265.167 248.5,264.833 248.5,264.5 Z M 325.5,265.5 C 329.17,268.326 333.003,270.992 337,273.5C 341.634,272.016 346.134,270.35 350.5,268.5C 353.855,268.69 356.855,269.69 359.5,271.5C 355.418,271.344 351.418,271.844 347.5,273C 339.786,275.576 332.453,278.743 325.5,282.5C 327.757,279.405 330.423,276.905 333.5,275C 330.319,272.315 327.653,269.148 325.5,265.5 Z M 400.5,265.5 C 407.684,276.537 414.351,287.87 420.5,299.5C 423.307,305.647 425.807,311.981 428,318.5C 429.271,323.754 429.771,329.087 429.5,334.5C 429.207,340.675 427.541,346.342 424.5,351.5C 429.634,328.324 424.134,308.324 408,291.5C 407.517,290.552 407.351,289.552 407.5,288.5C 404.532,288.374 402.532,286.874 401.5,284C 389.744,275.915 376.744,271.748 362.5,271.5C 364.743,270.916 366.743,269.75 368.5,268C 370.134,267.506 371.801,267.34 373.5,267.5C 373.833,267.5 374.167,267.5 374.5,267.5C 375.887,270.326 377.887,270.993 380.5,269.5C 387.014,270.136 392.681,272.636 397.5,277C 398.448,277.483 399.448,277.649 400.5,277.5C 402.281,280.046 404.614,281.546 407.5,282C 406.002,279.017 404.335,276.184 402.5,273.5C 402.037,270.779 401.371,268.112 400.5,265.5 Z M 162.5,282.5 C 164.5,282.5 166.5,282.5 168.5,282.5C 172.385,283.49 176.385,284.49 180.5,285.5C 196.813,291.647 207.98,302.981 214,319.5C 214.92,329.242 214.587,338.908 213,348.5C 210.308,355.24 206.642,361.24 202,366.5C 198.578,369.115 195.078,371.448 191.5,373.5C 192.838,371.304 194.505,369.304 196.5,367.5C 198.996,365.836 200.996,363.669 202.5,361C 204.926,356.983 206.926,352.816 208.5,348.5C 214.468,320.937 204.801,301.104 179.5,289C 177.866,288.506 176.199,288.34 174.5,288.5C 166.827,285.888 159.16,285.888 151.5,288.5C 149.473,288.338 147.473,288.505 145.5,289C 142.14,291.546 138.474,293.379 134.5,294.5C 136.059,292.376 138.059,290.709 140.5,289.5C 144.371,288.061 148.038,286.394 151.5,284.5C 155.387,284.354 159.054,283.687 162.5,282.5 Z M 325.5,282.5 C 324.71,283.401 323.71,284.068 322.5,284.5C 322.821,282.952 323.821,282.285 325.5,282.5 Z M 368.5,282.5 C 374.978,283.709 381.311,285.709 387.5,288.5C 410.691,301.571 419.191,321.237 413,347.5C 410.667,352.167 408.333,356.833 406,361.5C 403.167,365.667 399.667,369.167 395.5,372C 393.975,373.009 392.308,373.509 390.5,373.5C 392.36,372.061 394.027,370.395 395.5,368.5C 405.327,359.495 410.327,348.162 410.5,334.5C 409.306,314.999 400.306,300.499 383.5,291C 380.464,288.994 377.131,288.16 373.5,288.5C 365.849,285.934 358.182,285.934 350.5,288.5C 348.801,288.34 347.134,288.506 345.5,289C 339.722,292.414 334.056,295.914 328.5,299.5C 333.521,293.671 339.521,289.337 346.5,286.5C 349.67,285.735 352.67,284.735 355.5,283.5C 359.824,283.073 364.158,282.739 368.5,282.5 Z M 322.5,284.5 C 322.174,287.001 320.841,288.168 318.5,288C 319.705,286.624 321.038,285.458 322.5,284.5 Z M 134.5,294.5 C 133.135,296.86 131.135,298.527 128.5,299.5C 129.911,297.086 131.911,295.419 134.5,294.5 Z M 128.5,299.5 C 128.262,301.404 127.262,302.738 125.5,303.5C 125.738,301.596 126.738,300.262 128.5,299.5 Z M 328.5,299.5 C 328.262,301.404 327.262,302.738 325.5,303.5C 325.738,301.596 326.738,300.262 328.5,299.5 Z M 157.5,356.5 C 144.603,351.869 138.937,342.536 140.5,328.5C 144.656,319.07 151.989,313.737 162.5,312.5C 172.86,313.656 180.027,318.99 184,328.5C 186.327,341.688 181.494,350.854 169.5,356C 165.514,356.499 161.514,356.666 157.5,356.5 Z M 345.5,350.5 C 343.87,347.325 342.37,343.991 341,340.5C 340.501,336.514 340.334,332.514 340.5,328.5C 342.587,324.899 344.92,321.399 347.5,318C 351.947,315.195 356.78,313.362 362,312.5C 372.554,313.55 379.887,318.884 384,328.5C 386.327,341.688 381.494,350.854 369.5,356C 364.833,356.667 360.167,356.667 355.5,356C 352.257,353.905 348.923,352.071 345.5,350.5 Z M 424.5,351.5 C 424.982,354.831 423.982,357.497 421.5,359.5C 421.5,358.833 421.5,358.167 421.5,357.5C 422.514,355.426 423.514,353.426 424.5,351.5 Z M 191.5,373.5 C 189.795,375.192 187.795,376.525 185.5,377.5C 184.833,377.5 184.5,377.167 184.5,376.5C 186.645,375.011 188.978,374.011 191.5,373.5 Z M 390.5,373.5 C 390.027,374.906 389.027,375.573 387.5,375.5C 387.973,374.094 388.973,373.427 390.5,373.5 Z M 387.5,375.5 C 387.027,376.906 386.027,377.573 384.5,377.5C 384.973,376.094 385.973,375.427 387.5,375.5 Z"/></g>
<g><path style="opacity:1" fill="#b6b6b6" d="M 288.5,108.5 C 289.491,115.313 289.825,122.313 289.5,129.5C 291.099,129.232 292.432,129.566 293.5,130.5C 291.833,130.5 290.167,130.5 288.5,130.5C 288.5,123.167 288.5,115.833 288.5,108.5 Z"/></g>
<g><path style="opacity:1" fill="#181818" d="M 233.5,134.5 C 235.178,139.993 236.178,145.826 236.5,152C 235.207,152.49 233.873,152.657 232.5,152.5C 232.211,146.409 232.545,140.409 233.5,134.5 Z"/></g>
<g><path style="opacity:1" fill="#131313" d="M 289.5,134.5 C 290.15,134.804 290.817,135.137 291.5,135.5C 292.495,141.128 292.829,146.794 292.5,152.5C 291.5,152.5 290.5,152.5 289.5,152.5C 289.5,146.5 289.5,140.5 289.5,134.5 Z"/></g>
<g><path style="opacity:1" fill="#bbbbbb" d="M 292.5,171.5 C 292.666,167.486 292.499,163.486 292,159.5C 291.586,159.043 291.086,158.709 290.5,158.5C 289.833,162.647 289.166,166.647 288.5,170.5C 288.5,167.167 288.5,163.833 288.5,160.5C 283.968,160.931 279.635,160.431 275.5,159C 280.99,157.386 286.657,157.053 292.5,158C 293.823,162.6 293.823,167.1 292.5,171.5 Z"/></g>
<g><path style="opacity:1" fill="#9f9f9f" d="M 335.5,157.5 C 339.137,158.263 342.47,159.597 345.5,161.5C 342.933,161.145 340.433,160.479 338,159.5C 335.922,160.943 335.089,160.276 335.5,157.5 Z"/></g>
<g><path style="opacity:1" fill="#cfcfcf" d="M 345.5,161.5 C 355.426,163.921 365.092,166.921 374.5,170.5C 373.735,170.923 372.902,171.257 372,171.5C 365.956,169.29 359.79,167.457 353.5,166C 350.242,165.214 347.576,163.714 345.5,161.5 Z"/></g>
<g><path style="opacity:1" fill="#d7d7d7" d="M 235.5,158.5 C 234.504,158.414 233.671,158.748 233,159.5C 231.99,164.558 232.49,169.391 234.5,174C 253.573,174.82 272.573,174.653 291.5,173.5C 291.426,175.411 290.426,176.578 288.5,177C 288.833,177.333 289.167,177.667 289.5,178C 294.086,178.197 298.586,178.697 303,179.5C 303.666,183.877 304.5,187.877 305.5,191.5C 304.833,191.5 304.167,191.5 303.5,191.5C 302.577,187.936 302.244,184.269 302.5,180.5C 293.983,180.174 285.65,180.507 277.5,181.5C 267.753,181.92 258.086,181.42 248.5,180C 261.484,179.041 274.484,178.374 287.5,178C 269.743,177.973 252.076,177.307 234.5,176C 233.975,175.308 233.308,174.808 232.5,174.5C 231.337,169.198 231.171,163.864 232,158.5C 233.292,157.209 234.458,157.209 235.5,158.5 Z"/></g>
<g><path style="opacity:1" fill="#797979" d="M 185.5,197.5 C 189.64,194.261 194.306,192.428 199.5,192C 195.121,194.694 190.454,196.527 185.5,197.5 Z"/></g>
<g><path style="opacity:1" fill="#b3b3b3" d="M 326.5,192.5 C 326.56,191.957 326.893,191.624 327.5,191.5C 331.421,192.86 335.088,194.694 338.5,197C 334.266,196.394 330.266,194.894 326.5,192.5 Z"/></g>
<g><path style="opacity:1" fill="#363636" d="M 181.5,198.5 C 182.568,197.566 183.901,197.232 185.5,197.5C 184.71,198.401 183.71,199.068 182.5,199.5C 182.5,198.833 182.167,198.5 181.5,198.5 Z"/></g>
<g><path style="opacity:1" fill="#5b5b5b" d="M 345.5,200.5 C 343.287,200.152 341.287,199.319 339.5,198C 342.082,197.458 344.082,198.292 345.5,200.5 Z"/></g>
<g><path style="opacity:1" fill="#5a5a5a" d="M 345.5,200.5 C 347.842,200.504 349.842,201.337 351.5,203C 349.044,203.238 347.044,202.404 345.5,200.5 Z"/></g>
<g><path style="opacity:1" fill="#474747" d="M 313.5,202.5 C 315.914,203.406 316.747,205.072 316,207.5C 314.519,206.529 313.685,205.196 313.5,203.5C 313.5,203.167 313.5,202.833 313.5,202.5 Z"/></g>
<g><path style="opacity:1" fill="#cbcbcb" d="M 176.5,200.5 C 176.5,200.833 176.5,201.167 176.5,201.5C 173.833,201.833 173.833,202.167 176.5,202.5C 176.25,203.922 175.417,204.922 174,205.5C 173.282,204.549 172.449,204.383 171.5,205C 172.696,205.654 172.696,206.154 171.5,206.5C 170.583,205.873 169.583,205.539 168.5,205.5C 168.5,205.167 168.5,204.833 168.5,204.5C 165.406,205.213 162.406,206.213 159.5,207.5C 158.508,207.328 157.842,207.662 157.5,208.5C 154.381,209.317 151.381,210.317 148.5,211.5C 148.908,210.357 149.575,209.357 150.5,208.5C 153.446,207.694 156.112,206.361 158.5,204.5C 159.086,204.709 159.586,205.043 160,205.5C 162.266,204.044 164.766,203.21 167.5,203C 170.136,200.322 173.136,199.489 176.5,200.5 Z"/></g>
<g><path style="opacity:1" fill="#595959" d="M 367.5,209.5 C 362.225,209.132 357.559,207.299 353.5,204C 358.48,204.989 363.147,206.822 367.5,209.5 Z"/></g>
<g><path style="opacity:0.631" fill="#5c5c5c" d="M 157.5,208.5 C 157.842,207.662 158.508,207.328 159.5,207.5C 159.5,208.167 159.833,208.5 160.5,208.5C 160.158,209.338 159.492,209.672 158.5,209.5C 158.5,208.833 158.167,208.5 157.5,208.5 Z"/></g>
<g><path style="opacity:1" fill="#777777" d="M 148.5,211.5 C 147.71,212.401 146.71,213.068 145.5,213.5C 145.821,211.952 146.821,211.285 148.5,211.5 Z"/></g>
<g><path style="opacity:1" fill="#8f8f8f" d="M 316.5,208.5 C 318.708,209.918 319.542,211.918 319,214.5C 317.337,212.842 316.504,210.842 316.5,208.5 Z"/></g>
<g><path style="opacity:1" fill="#848484" d="M 242.5,214.5 C 245.428,211.036 249.095,209.202 253.5,209C 250.121,211.356 246.455,213.189 242.5,214.5 Z"/></g>
<g><path style="opacity:1" fill="#404040" d="M 367.5,209.5 C 370.477,210.071 373.31,211.071 376,212.5C 379.273,218.712 382.273,225.046 385,231.5C 385.833,232.333 386.667,233.167 387.5,234C 393.059,236.004 398.059,238.837 402.5,242.5C 396.905,239.848 391.238,237.182 385.5,234.5C 381.298,228.754 378.131,222.421 376,215.5C 373.198,213.156 370.364,211.156 367.5,209.5 Z"/></g>
<g><path style="opacity:1" fill="#474747" d="M 242.5,214.5 C 241.581,217.089 239.914,219.089 237.5,220.5C 238.419,217.911 240.086,215.911 242.5,214.5 Z"/></g>
<g><path style="opacity:1" fill="#515151" d="M 252.5,216.5 C 252.5,217.167 252.833,217.5 253.5,217.5C 252.152,218.601 250.652,219.601 249,220.5C 248.601,220.272 248.435,219.938 248.5,219.5C 249.436,218.026 250.77,217.026 252.5,216.5 Z"/></g>
<g><path style="opacity:1" fill="#5b5b5b" d="M 247.5,220.5 C 246.075,221.922 245.075,223.589 244.5,225.5C 243.761,225.631 243.094,225.464 242.5,225C 243.411,222.585 245.078,221.085 247.5,220.5 Z"/></g>
<g><path style="opacity:1" fill="#d0d0d0" d="M 276.5,220.5 C 278.167,222.833 280.167,224.833 282.5,226.5C 282.5,227.167 282.5,227.833 282.5,228.5C 282.289,233.309 282.122,238.309 282,243.5C 281.78,245.973 280.614,247.64 278.5,248.5C 280.194,245.582 281.194,242.415 281.5,239C 278.734,223.777 269.734,217.777 254.5,221C 250.36,223.821 247.027,227.321 244.5,231.5C 245.627,229.083 245.627,227.083 244.5,225.5C 245.075,223.589 246.075,221.922 247.5,220.5C 247.5,219.833 247.833,219.5 248.5,219.5C 248.435,219.938 248.601,220.272 249,220.5C 250.652,219.601 252.152,218.601 253.5,217.5C 254.167,217.5 254.5,217.167 254.5,216.5C 258.146,215.717 261.812,215.55 265.5,216C 269.436,216.972 273.103,218.472 276.5,220.5 Z"/></g>
<g><path style="opacity:1" fill="#737373" d="M 79.5,227.5 C 79.5,226.5 79.5,225.5 79.5,224.5C 74.737,224.226 70.0704,224.559 65.5,225.5C 70.0557,223.558 75.0557,222.892 80.5,223.5C 80.7678,225.099 80.4345,226.432 79.5,227.5 Z"/></g>
<g><path style="opacity:1" fill="#979797" d="M 208.5,231.5 C 207.833,230.167 207.167,228.833 206.5,227.5C 206.058,222.309 206.558,217.309 208,212.5C 208.5,218.825 208.666,225.158 208.5,231.5 Z"/></g>
<g><path style="opacity:1" fill="#7f7f7f" d="M 459.5,226.5 C 455.146,224.652 450.48,223.985 445.5,224.5C 445.833,227.167 446.167,229.833 446.5,232.5C 445.282,230.172 444.282,227.672 443.5,225C 443.833,224.667 444.167,224.333 444.5,224C 449.489,223.501 454.489,223.334 459.5,223.5C 459.5,224.5 459.5,225.5 459.5,226.5 Z"/></g>
<g><path style="opacity:1" fill="#a7a7a7" d="M 82.5,231.5 C 82.3282,236.931 80.9949,241.931 78.5,246.5C 79.341,241.261 80.6744,236.261 82.5,231.5 Z"/></g>
<g><path style="opacity:1" fill="#c3c3c3" d="M 206.5,232.5 C 206.25,242.503 205.916,252.503 205.5,262.5C 204.342,253.009 204.175,243.342 205,233.5C 205.383,232.944 205.883,232.611 206.5,232.5 Z"/></g>
<g><path style="opacity:1" fill="#606060" d="M 402.5,242.5 C 404.308,242.491 405.975,242.991 407.5,244C 409.747,245.277 411.747,246.777 413.5,248.5C 409.349,247.34 405.682,245.34 402.5,242.5 Z"/></g>
<g><path style="opacity:1" fill="#727272" d="M 286.5,242.5 C 286.104,245.721 284.771,248.388 282.5,250.5C 282.767,248.035 283.434,245.701 284.5,243.5C 285.167,243.167 285.833,242.833 286.5,242.5 Z"/></g>
<g><path style="opacity:1" fill="#595959" d="M 134.5,240.5 C 134.328,241.492 134.662,242.158 135.5,242.5C 132.451,252.839 128.118,262.505 122.5,271.5C 126.255,260.995 130.255,250.662 134.5,240.5 Z"/></g>
<g><path style="opacity:1" fill="#888988" d="M 413.5,248.5 C 415.842,248.504 417.842,249.337 419.5,251C 417.179,251.008 415.179,250.175 413.5,248.5 Z"/></g>
<g><path style="opacity:1" fill="#848484" d="M 288.5,255.5 C 289.128,252.91 290.295,250.577 292,248.5C 292.443,251.614 291.276,253.948 288.5,255.5 Z"/></g>
<g><path style="opacity:1" fill="#b5b5b5" d="M 313.5,254.5 C 311.095,253.313 308.761,251.813 306.5,250C 305.549,249.282 305.383,248.449 306,247.5C 308.998,249.333 311.498,251.666 313.5,254.5 Z"/></g>
<g><path style="opacity:1" fill="#717171" d="M 397.5,261.5 C 395.364,257.567 393.531,253.567 392,249.5C 395.662,252.648 397.495,256.648 397.5,261.5 Z"/></g>
<g><path style="opacity:1" fill="#c5c5c5" d="M 65.5,236.5 C 65.1575,243.564 65.1575,250.564 65.5,257.5C 65.4717,261.899 64.9717,262.232 64,258.5C 63.8261,263.684 63.3261,268.684 62.5,273.5C 62.4404,260.933 63.4404,248.6 65.5,236.5 Z"/></g>
<g><path style="opacity:1" fill="#bbbbbb" d="M 447.5,244.5 C 449.28,247.746 451.114,251.079 453,254.5C 453.499,258.486 453.666,262.486 453.5,266.5C 451.135,259.377 449.135,252.044 447.5,244.5 Z"/></g>
<g><path style="opacity:1" fill="#171717" d="M 234.5,248.5 C 235.167,249.5 235.833,250.5 236.5,251.5C 237.508,253.544 238.508,255.544 239.5,257.5C 239.158,258.338 238.492,258.672 237.5,258.5C 237.011,257.005 236.345,255.671 235.5,254.5C 235.672,253.508 235.338,252.842 234.5,252.5C 234.672,251.508 234.338,250.842 233.5,250.5C 233.5,250.167 233.5,249.833 233.5,249.5C 233.5,248.833 233.833,248.5 234.5,248.5 Z"/></g>
<g><path style="opacity:1" fill="#8f8f8f" d="M 253.5,254.5 C 257.327,256.123 261.327,257.123 265.5,257.5C 262.283,258.595 258.95,258.429 255.5,257C 254.619,256.292 253.953,255.458 253.5,254.5 Z"/></g>
<g><path style="opacity:1" fill="#9f9f9f" d="M 282.5,250.5 C 282.392,252.783 281.559,254.783 280,256.5C 278.817,257.731 277.651,257.731 276.5,256.5C 278.854,254.812 280.854,252.812 282.5,250.5 Z"/></g>
<g><path style="opacity:1" fill="#464646" d="M 313.5,254.5 C 315.5,254.5 316.5,255.5 316.5,257.5C 315.167,256.833 314.167,255.833 313.5,254.5 Z"/></g>
<g><path style="opacity:1" fill="#777777" d="M 288.5,255.5 C 287.932,259.067 285.932,261.401 282.5,262.5C 282.5,262.167 282.5,261.833 282.5,261.5C 284.5,259.5 286.5,257.5 288.5,255.5 Z"/></g>
<g><path style="opacity:1" fill="#4c4c4c" d="M 316.5,257.5 C 318.537,258.846 320.537,260.18 322.5,261.5C 321.833,261.5 321.5,261.833 321.5,262.5C 319.089,261.483 317.422,259.816 316.5,257.5 Z"/></g>
<g><path style="opacity:1" fill="#a3a3a3" d="M 77.5,243.5 C 75.3201,252.734 73.6534,262.067 72.5,271.5C 73.0255,277.831 73.5255,284.165 74,290.5C 74.3333,281.833 74.6667,273.167 75,264.5C 75.21,262.942 75.71,261.609 76.5,260.5C 75.9163,273.192 75.2497,285.859 74.5,298.5C 74.1667,298.833 73.8333,299.167 73.5,299.5C 70.0682,280.917 70.9015,262.584 76,244.5C 76.3826,243.944 76.8826,243.611 77.5,243.5 Z"/></g>
<g><path style="opacity:1" fill="#4d4d4d" d="M 206.5,227.5 C 207.167,228.833 207.833,230.167 208.5,231.5C 207.409,241.466 207.242,251.466 208,261.5C 219.498,268.005 230.998,274.671 242.5,281.5C 240.477,282.041 238.477,281.541 236.5,280C 225.948,274.311 215.614,268.478 205.5,262.5C 205.916,252.503 206.25,242.503 206.5,232.5C 206.5,230.833 206.5,229.167 206.5,227.5 Z"/></g>
<g><path style="opacity:0.965" fill="#2c2c2c" d="M 245.5,264.5 C 245.5,264.167 245.5,263.833 245.5,263.5C 246.167,263.5 246.833,263.5 247.5,263.5C 247.5,264.167 247.833,264.5 248.5,264.5C 248.5,264.833 248.5,265.167 248.5,265.5C 247.833,265.5 247.167,265.5 246.5,265.5C 246.5,264.833 246.167,264.5 245.5,264.5 Z"/></g>
<g><path style="opacity:0.38" fill="#4e4e4e" d="M 373.5,267.5 C 371.801,267.34 370.134,267.506 368.5,268C 366.743,269.75 364.743,270.916 362.5,271.5C 361.5,271.5 360.5,271.5 359.5,271.5C 356.855,269.69 353.855,268.69 350.5,268.5C 358.116,266.525 365.783,266.192 373.5,267.5 Z"/></g>
<g><path style="opacity:1" fill="#151515" d="M 256.5,269.5 C 257.793,268.842 259.293,268.508 261,268.5C 262.986,268.569 264.486,269.235 265.5,270.5C 265.167,270.5 264.833,270.5 264.5,270.5C 262.052,269.527 259.385,269.194 256.5,269.5 Z"/></g>
<g><path style="opacity:0.567" fill="#484848" d="M 374.5,267.5 C 376.579,267.971 378.579,268.637 380.5,269.5C 377.887,270.993 375.887,270.326 374.5,267.5 Z"/></g>
<g><path style="opacity:1" fill="#afafaf" d="M 402.5,273.5 C 404.335,276.184 406.002,279.017 407.5,282C 404.614,281.546 402.281,280.046 400.5,277.5C 402.104,276.713 402.771,275.38 402.5,273.5 Z"/></g>
<g><path style="opacity:1" fill="#989898" d="M 122.5,271.5 C 122.453,274.928 121.287,277.928 119,280.5C 118.333,279.5 118.333,278.5 119,277.5C 120.459,275.568 121.625,273.568 122.5,271.5 Z"/></g>
<g><path style="opacity:1" fill="#9d9d9d" d="M 448.5,260.5 C 449.268,261.263 449.768,262.263 450,263.5C 450.333,276.833 450.667,290.167 451,303.5C 451.681,292.333 452.514,281.333 453.5,270.5C 453.72,285.897 452.886,301.23 451,316.5C 449.834,297.857 449,279.191 448.5,260.5 Z"/></g>
<g><path style="opacity:1" fill="#9e9e9e" d="M 162.5,282.5 C 159.054,283.687 155.387,284.354 151.5,284.5C 151.389,283.883 151.056,283.383 150.5,283C 154.486,282.501 158.486,282.334 162.5,282.5 Z"/></g>
<g><path style="opacity:1" fill="#aaaaaa" d="M 168.5,282.5 C 171.85,282.335 175.183,282.502 178.5,283C 179.381,283.708 180.047,284.542 180.5,285.5C 176.385,284.49 172.385,283.49 168.5,282.5 Z"/></g>
<g><path style="opacity:1" fill="#828282" d="M 355.5,283.5 C 352.67,284.735 349.67,285.735 346.5,286.5C 348.956,284.132 351.956,283.132 355.5,283.5 Z"/></g>
<g><path style="opacity:1" fill="#9d9d9d" d="M 243.5,283.5 C 244.251,282.427 245.251,282.26 246.5,283C 248.833,284.5 251.167,286 253.5,287.5C 253.167,287.833 252.833,288.167 252.5,288.5C 249.634,286.568 246.634,284.901 243.5,283.5 Z"/></g>
<g><path style="opacity:1" fill="#9b9b9b" d="M 373.5,288.5 C 365.841,287.313 358.174,287.313 350.5,288.5C 358.182,285.934 365.849,285.934 373.5,288.5 Z"/></g>
<g><path style="opacity:1" fill="#c6c6c6" d="M 368.5,282.5 C 372.712,282.078 376.712,282.744 380.5,284.5C 381.293,284.069 382.127,283.735 383,283.5C 385.071,284.787 387.238,285.953 389.5,287C 388.584,287.278 387.918,287.778 387.5,288.5C 381.311,285.709 374.978,283.709 368.5,282.5 Z"/></g>
<g><path style="opacity:1" fill="#bcbcbc" d="M 174.5,288.5 C 167.057,287.23 159.39,287.23 151.5,288.5C 159.16,285.888 166.827,285.888 174.5,288.5 Z"/></g>
<g><path style="opacity:1" fill="#484848" d="M 315.5,290.5 C 316.522,291.892 316.189,293.225 314.5,294.5C 314.167,294.167 313.833,293.833 313.5,293.5C 314.193,292.482 314.859,291.482 315.5,290.5 Z"/></g>
<g><path style="opacity:1" fill="#7d7d7d" d="M 88.5,311.5 C 87.8333,315.167 87.1667,318.833 86.5,322.5C 86.1684,313.143 86.5017,303.81 87.5,294.5C 88.4954,300.128 88.8288,305.794 88.5,311.5 Z"/></g>
<g><path style="opacity:0.148" fill="#454545" d="M 436.5,298.5 C 437.167,302.167 437.833,305.833 438.5,309.5C 438.5,313.833 438.5,318.167 438.5,322.5C 437.833,319.833 437.167,317.167 436.5,314.5C 436.5,309.167 436.5,303.833 436.5,298.5 Z"/></g>
<g><path style="opacity:1" fill="#a1a1a1" d="M 438.5,309.5 C 437.833,305.833 437.167,302.167 436.5,298.5C 436.335,295.15 436.502,291.817 437,288.5C 438.23,295.445 438.73,302.445 438.5,309.5 Z"/></g>
<g><path style="opacity:1" fill="#595959" d="M 174.5,311.5 C 166.833,308.833 159.167,308.833 151.5,311.5C 154.634,308.509 158.468,307.176 163,307.5C 167.532,307.176 171.366,308.509 174.5,311.5 Z"/></g>
<g><path style="opacity:1" fill="#5d5d5d" d="M 374.5,311.5 C 366.485,308.891 358.485,308.891 350.5,311.5C 353.695,308.667 357.529,307.333 362,307.5C 365.235,307.582 368.402,308.082 371.5,309C 372.942,309.377 373.942,310.21 374.5,311.5 Z"/></g>
<g><path style="opacity:1" fill="#cbcbcb" d="M 174.5,311.5 C 178.167,315.167 181.833,318.833 185.5,322.5C 186.358,326.624 187.024,330.791 187.5,335C 186.975,338.541 186.308,342.041 185.5,345.5C 182.688,351.81 178.022,356.31 171.5,359C 166.748,358.349 162.082,357.515 157.5,356.5C 161.514,356.666 165.514,356.499 169.5,356C 181.494,350.854 186.327,341.688 184,328.5C 180.027,318.99 172.86,313.656 162.5,312.5C 151.989,313.737 144.656,319.07 140.5,328.5C 140.631,327.761 140.464,327.094 140,326.5C 139.581,327.672 138.915,328.672 138,329.5C 137.675,327.447 138.009,325.447 139,323.5C 139.667,322.167 140.333,322.167 141,323.5C 142.022,322.646 142.855,321.646 143.5,320.5C 142.5,320.5 141.5,320.5 140.5,320.5C 141.098,319.205 141.598,317.872 142,316.5C 143.145,316.381 144.312,316.048 145.5,315.5C 147.795,314.525 149.795,313.192 151.5,311.5C 159.167,308.833 166.833,308.833 174.5,311.5 Z"/></g>
<g><path style="opacity:1" fill="#585858" d="M 121.5,307.5 C 122.573,308.251 122.74,309.251 122,310.5C 120.478,312.741 119.145,315.074 118,317.5C 117.333,316.167 117.333,314.833 118,313.5C 119.394,311.612 120.56,309.612 121.5,307.5 Z"/></g>
<g><path style="opacity:1" fill="#757575" d="M 151.5,311.5 C 149.795,313.192 147.795,314.525 145.5,315.5C 146.392,312.708 148.392,311.375 151.5,311.5 Z"/></g>
<g><path style="opacity:1" fill="#595959" d="M 324.5,303.5 C 324.5,304.167 324.833,304.5 325.5,304.5C 322.202,309.08 319.368,314.08 317,319.5C 316.675,317.447 317.009,315.447 318,313.5C 319.942,309.931 322.108,306.598 324.5,303.5 Z"/></g>
<g><path style="opacity:1" fill="#3b3b3b" d="M 374.5,311.5 C 379.071,313.069 382.405,316.069 384.5,320.5C 380.945,317.698 377.612,314.698 374.5,311.5 Z"/></g>
<g><path style="opacity:1" fill="#414141" d="M 174.5,311.5 C 175.93,311.421 177.264,311.754 178.5,312.5C 180.167,314.833 182.167,316.833 184.5,318.5C 185.246,319.736 185.579,321.07 185.5,322.5C 181.833,318.833 178.167,315.167 174.5,311.5 Z"/></g>
<g><path style="opacity:1" fill="#cfcfcf" d="M 420.5,299.5 C 423.921,299.238 424.921,300.572 423.5,303.5C 426.323,304.633 426.99,306.467 425.5,309C 426.978,310.478 428.478,311.978 430,313.5C 430.667,317.5 431.333,321.5 432,325.5C 432.654,324.304 433.154,324.304 433.5,325.5C 432.605,328.846 431.271,331.846 429.5,334.5C 429.771,329.087 429.271,323.754 428,318.5C 425.807,311.981 423.307,305.647 420.5,299.5 Z"/></g>
<g><path style="opacity:1" fill="#b3b3b3" d="M 116.5,318.5 C 117.139,319.097 117.472,319.93 117.5,321C 117.141,324.358 116.307,327.525 115,330.5C 114.844,326.445 115.344,322.445 116.5,318.5 Z"/></g>
<g><path style="opacity:1" fill="#424242" d="M 185.5,322.5 C 190.665,330.08 190.665,337.747 185.5,345.5C 186.308,342.041 186.975,338.541 187.5,335C 187.024,330.791 186.358,326.624 185.5,322.5 Z"/></g>
<g><path style="opacity:1" fill="#b8b8b8" d="M 459.5,328.5 C 455.499,333.529 451.499,338.529 447.5,343.5C 446.599,339.759 447.932,337.759 451.5,337.5C 451.764,334.243 453.43,332.243 456.5,331.5C 456.5,330.5 456.5,329.5 456.5,328.5C 457.5,328.5 458.5,328.5 459.5,328.5 Z"/></g>
<g><path style="opacity:1" fill="#414141" d="M 385.5,321.5 C 390.933,330.108 390.6,338.441 384.5,346.5C 388.497,338.508 388.497,330.508 384.5,322.5C 384.624,321.893 384.957,321.56 385.5,321.5 Z"/></g>
<g><path style="opacity:1" fill="#cccccc" d="M 299.5,349.5 C 304.974,351.5 306.974,355.5 305.5,361.5C 303.138,357.77 301.138,353.77 299.5,349.5 Z"/></g>
<g><path style="opacity:1" fill="#c7c7c7" d="M 374.5,311.5 C 377.612,314.698 380.945,317.698 384.5,320.5C 385.167,320.5 385.5,320.833 385.5,321.5C 384.957,321.56 384.624,321.893 384.5,322.5C 388.497,330.508 388.497,338.508 384.5,346.5C 382.008,352.989 377.341,356.989 370.5,358.5C 365.471,357.283 360.471,357.283 355.5,358.5C 352.711,357.352 350.044,356.019 347.5,354.5C 346.295,353.423 345.628,352.09 345.5,350.5C 348.923,352.071 352.257,353.905 355.5,356C 360.167,356.667 364.833,356.667 369.5,356C 381.494,350.854 386.327,341.688 384,328.5C 379.887,318.884 372.554,313.55 362,312.5C 356.78,313.362 351.947,315.195 347.5,318C 344.92,321.399 342.587,324.899 340.5,328.5C 340.261,326.533 340.594,324.699 341.5,323C 340.044,322.577 339.544,321.744 340,320.5C 342.511,318.321 344.678,315.821 346.5,313C 347.745,312.209 349.078,311.709 350.5,311.5C 358.485,308.891 366.485,308.891 374.5,311.5 Z"/></g>
<g><path style="opacity:1" fill="#c0c0c0" d="M 208.5,348.5 C 206.926,352.816 204.926,356.983 202.5,361C 200.996,363.669 198.996,365.836 196.5,367.5C 196.12,364.208 197.453,361.875 200.5,360.5C 201.389,357.721 202.556,355.055 204,352.5C 204.333,352.833 204.667,353.167 205,353.5C 205.206,351.064 206.373,349.398 208.5,348.5 Z"/></g>
<g><path style="opacity:1" fill="#5c5c5c" d="M 421.5,357.5 C 421.5,358.167 421.5,358.833 421.5,359.5C 420.167,360.167 420.167,360.833 421.5,361.5C 421.167,362.5 420.5,363.167 419.5,363.5C 419.054,360.99 419.72,358.99 421.5,357.5 Z"/></g>
<g><path style="opacity:1" fill="#4c4c4c" d="M 419.5,363.5 C 419.5,364.5 419.5,365.5 419.5,366.5C 418.778,367.551 417.778,368.218 416.5,368.5C 417.11,366.566 418.11,364.899 419.5,363.5 Z"/></g>
<g><path style="opacity:1" fill="#c8c8c8" d="M 419.5,366.5 C 419.702,367.364 420.036,368.364 420.5,369.5C 421.736,368.754 423.07,368.421 424.5,368.5C 423.71,369.794 422.71,370.961 421.5,372C 415.91,375.783 410.244,379.283 404.5,382.5C 404.5,381.5 404.5,380.5 404.5,379.5C 405.675,379.719 406.675,379.386 407.5,378.5C 410.834,375.364 413.834,372.031 416.5,368.5C 417.778,368.218 418.778,367.551 419.5,366.5 Z"/></g>
<g><path style="opacity:1" fill="#cecece" d="M 395.5,368.5 C 394.027,370.395 392.36,372.061 390.5,373.5C 388.973,373.427 387.973,374.094 387.5,375.5C 385.973,375.427 384.973,376.094 384.5,377.5C 381.833,377.833 381.833,378.167 384.5,378.5C 382.367,381.407 379.367,383.074 375.5,383.5C 373.181,382.936 370.847,382.436 368.5,382C 368.043,381.586 367.709,381.086 367.5,380.5C 370.768,379.513 374.102,379.18 377.5,379.5C 377.281,378.325 377.614,377.325 378.5,376.5C 384.436,375.022 390.102,372.355 395.5,368.5 Z"/></g>
<g><path style="opacity:1" fill="#7d7d7d" d="M 184.5,376.5 C 184.5,377.167 184.833,377.5 185.5,377.5C 185.389,378.117 185.056,378.617 184.5,379C 179.31,380.956 173.976,381.623 168.5,381C 174.024,380.028 179.357,378.528 184.5,376.5 Z"/></g>
</svg>
