<?xml version="1.0" encoding="UTF-8"?>
<!DOCTYPE svg PUBLIC "-//W3C//DTD SVG 1.1//EN" "http://www.w3.org/Graphics/SVG/1.1/DTD/svg11.dtd">
<svg xmlns="http://www.w3.org/2000/svg" version="1.1" width="1024px" height="1024px" style="shape-rendering:geometricPrecision; text-rendering:geometricPrecision; image-rendering:optimizeQuality; fill-rule:evenodd; clip-rule:evenodd" xmlns:xlink="http://www.w3.org/1999/xlink">
<g><path style="opacity:0.989" fill="#fefffe" d="M 311.5,121.5 C 445.167,121.5 578.833,121.5 712.5,121.5C 712.667,240.167 712.5,358.834 712,477.5C 690.626,514.415 669.126,551.249 647.5,588C 626.81,588.213 606.143,588.713 585.5,589.5C 585.5,575.833 585.5,562.167 585.5,548.5C 588.695,549.039 591.195,548.039 593,545.5C 593.681,509.498 594.014,473.498 594,437.5C 592.981,436.313 591.814,435.313 590.5,434.5C 589.334,419.178 589.167,403.844 590,388.5C 592.333,387.5 594,385.833 595,383.5C 595.667,357.167 595.667,330.833 595,304.5C 594.5,303.333 593.667,302.5 592.5,302C 590.19,301.503 587.857,301.337 585.5,301.5C 585.667,248.832 585.5,196.166 585,143.5C 584.5,142.333 583.667,141.5 582.5,141C 535.167,140.333 487.833,140.333 440.5,141C 440,141.5 439.5,142 439,142.5C 437.513,195.107 437.013,247.774 437.5,300.5C 434.253,300.415 431.419,301.415 429,303.5C 428.333,330.833 428.333,358.167 429,385.5C 430.11,387.037 431.61,387.703 433.5,387.5C 433.667,403.17 433.5,418.837 433,434.5C 431.488,435.257 430.154,436.257 429,437.5C 428.305,473.501 427.971,509.501 428,545.5C 428.5,546.667 429.333,547.5 430.5,548C 432.81,548.497 435.143,548.663 437.5,548.5C 437.639,562.172 437.972,575.839 438.5,589.5C 417.166,590.611 395.832,590.611 374.5,589.5C 353.08,552.329 331.914,514.996 311,477.5C 311.278,358.835 311.444,240.169 311.5,121.5 Z M 456.5,152.5 C 495.233,152.982 533.899,153.815 572.5,155C 573.191,156.067 573.691,157.234 574,158.5C 574.167,169.667 574.333,180.833 574.5,192C 574.637,204.234 574.137,216.4 573,228.5C 572.25,229.126 571.416,229.626 570.5,230C 531.459,230.216 492.459,229.716 453.5,228.5C 452.808,227.975 452.308,227.308 452,226.5C 451.333,203.5 451.333,180.5 452,157.5C 452.348,154.658 453.848,152.991 456.5,152.5 Z M 445.5,475.5 C 488.835,475.333 532.168,475.5 575.5,476C 576.931,476.465 578.097,477.299 579,478.5C 579.667,496.167 579.667,513.833 579,531.5C 577.601,532.227 576.101,532.727 574.5,533C 531.503,534.05 488.503,534.383 445.5,534C 444.667,533.167 443.833,532.333 443,531.5C 442.333,514.5 442.333,497.5 443,480.5C 443.366,478.548 444.199,476.882 445.5,475.5 Z"/></g>
<g><path style="opacity:0.967" fill="#fefffe" d="M 447.5,149.5 C 490.5,149.5 533.5,149.5 576.5,149.5C 576.667,201.168 576.5,252.834 576,304.5C 569.528,320.752 563.362,337.086 557.5,353.5C 526.928,354.032 496.428,354.032 466,353.5C 460.05,336.312 453.717,319.312 447,302.5C 446.172,251.429 446.338,200.429 447.5,149.5 Z M 456.5,152.5 C 453.848,152.991 452.348,154.658 452,157.5C 451.333,180.5 451.333,203.5 452,226.5C 452.308,227.308 452.808,227.975 453.5,228.5C 492.459,229.716 531.459,230.216 570.5,230C 571.416,229.626 572.25,229.126 573,228.5C 574.137,216.4 574.637,204.234 574.5,192C 574.333,180.833 574.167,169.667 574,158.5C 573.691,157.234 573.191,156.067 572.5,155C 533.899,153.815 495.233,152.982 456.5,152.5 Z"/></g>
<g><path style="opacity:0.98" fill="#fefffe" d="M 460.5,162.5 C 495.167,162.5 529.833,162.5 564.5,162.5C 564.5,182.167 564.5,201.833 564.5,221.5C 529.839,220.746 495.172,220.412 460.5,220.5C 460.5,201.167 460.5,181.833 460.5,162.5 Z"/></g>
<g><path style="opacity:0.961" fill="#fefffe" d="M 437.5,310.5 C 439.451,310.227 440.951,310.893 442,312.5C 447.864,328.424 453.53,344.424 459,360.5C 459.833,361.333 460.667,362.167 461.5,363C 495.172,363.442 528.838,363.109 562.5,362C 569.5,345 576.5,328 583.5,311C 584.448,310.517 585.448,310.351 586.5,310.5C 586.833,333.843 586.5,357.176 585.5,380.5C 580.245,384.044 575.079,387.71 570,391.5C 560.367,403.827 560.034,416.494 569,429.5C 573.862,434.574 579.196,438.907 585,442.5C 584.813,474.828 584.647,507.161 584.5,539.5C 535.167,539.5 485.833,539.5 436.5,539.5C 437.573,508.482 437.573,477.482 436.5,446.5C 436.76,444.813 437.427,443.313 438.5,442C 448.469,439.367 455.303,433.2 459,423.5C 464.555,403.275 457.721,388.942 438.5,380.5C 437.5,357.176 437.167,333.843 437.5,310.5 Z M 445.5,475.5 C 444.199,476.882 443.366,478.548 443,480.5C 442.333,497.5 442.333,514.5 443,531.5C 443.833,532.333 444.667,533.167 445.5,534C 488.503,534.383 531.503,534.05 574.5,533C 576.101,532.727 577.601,532.227 579,531.5C 579.667,513.833 579.667,496.167 579,478.5C 578.097,477.299 576.931,476.465 575.5,476C 532.168,475.5 488.835,475.333 445.5,475.5 Z"/></g>
<g><path style="opacity:0.854" fill="#fefffe" d="M 442.5,393.5 C 444.716,394.203 446.549,395.536 448,397.5C 453.648,407.659 453.314,417.659 447,427.5C 445.846,428.743 444.512,429.743 443,430.5C 442.5,418.171 442.333,405.838 442.5,393.5 Z"/></g>
<g><path style="opacity:0.754" fill="#fefffe" d="M 578.5,395.5 C 579.828,400.456 580.495,405.789 580.5,411.5C 580.167,416.833 579.833,422.167 579.5,427.5C 569.482,417.073 569.148,406.407 578.5,395.5 Z"/></g>
<g><path style="opacity:0.95" fill="#fefffe" d="M 451.5,484.5 C 490.835,484.333 530.168,484.5 569.5,485C 570.252,498.445 570.919,511.945 571.5,525.5C 531.5,525.5 491.5,525.5 451.5,525.5C 451.5,511.833 451.5,498.167 451.5,484.5 Z"/></g>
<g><path style="opacity:0.978" fill="#fefffe" d="M 706.5,503.5 C 707.666,550.005 707.499,596.672 706,643.5C 699.469,677.41 682.636,704.91 655.5,726C 634.718,742.557 611.385,754.057 585.5,760.5C 585.5,706.5 585.5,652.5 585.5,598.5C 607.87,598 630.203,597.333 652.5,596.5C 670.764,565.636 688.764,534.636 706.5,503.5 Z"/></g>
<g><path style="opacity:0.982" fill="#fefffe" d="M 316.5,507.5 C 317.376,507.369 318.043,507.702 318.5,508.5C 335.374,538.415 352.374,568.248 369.5,598C 380.24,599.145 391.073,599.645 402,599.5C 414.184,599.434 426.351,599.101 438.5,598.5C 438.667,652.834 438.5,707.168 438,761.5C 393.221,749.395 357.888,724.061 332,685.5C 324.005,671.848 319.005,657.181 317,641.5C 316.5,596.835 316.333,552.168 316.5,507.5 Z"/></g>
<g><path style="opacity:0.965" fill="#fefffe" d="M 446.5,548.5 C 489.833,548.5 533.167,548.5 576.5,548.5C 576.5,562.167 576.5,575.833 576.5,589.5C 533.5,589.5 490.5,589.5 447.5,589.5C 446.972,575.839 446.639,562.172 446.5,548.5 Z"/></g>
<g><path style="opacity:0.985" fill="#fefffe" d="M 447.5,598.5 C 490.5,598.5 533.5,598.5 576.5,598.5C 576.5,653.167 576.5,707.833 576.5,762.5C 533.49,762.078 490.49,762.078 447.5,762.5C 447.5,707.833 447.5,653.167 447.5,598.5 Z"/></g>
<g><path style="opacity:0.968" fill="#fefffe" d="M 447.5,770.5 C 490.496,771.261 533.496,771.595 576.5,771.5C 576.5,779.167 576.5,786.833 576.5,794.5C 533.5,794.5 490.5,794.5 447.5,794.5C 447.5,786.5 447.5,778.5 447.5,770.5 Z"/></g>
<g><path style="opacity:0.964" fill="#fefffe" d="M 447.5,803.5 C 490.5,803.5 533.5,803.5 576.5,803.5C 576.5,815.5 576.5,827.5 576.5,839.5C 533.186,838.527 489.853,838.193 446.5,838.5C 446.667,826.827 447,815.161 447.5,803.5 Z"/></g>
</svg>
