<?xml version="1.0" encoding="UTF-8"?>
<!DOCTYPE svg PUBLIC "-//W3C//DTD SVG 1.1//EN" "http://www.w3.org/Graphics/SVG/1.1/DTD/svg11.dtd">
<svg xmlns="http://www.w3.org/2000/svg" version="1.1" width="1024px" height="1024px" style="shape-rendering:geometricPrecision; text-rendering:geometricPrecision; image-rendering:optimizeQuality; fill-rule:evenodd; clip-rule:evenodd" xmlns:xlink="http://www.w3.org/1999/xlink">
<g><path style="opacity:0.992" fill="#fefffe" d="M 481.5,181.5 C 525.187,181.248 568.854,182.081 612.5,184C 624.833,183.239 632.666,188.739 636,200.5C 637.207,216.14 637.207,231.807 636,247.5C 635.489,249.878 634.822,252.212 634,254.5C 627.305,263.695 620.805,273.029 614.5,282.5C 611.147,285.687 607.647,288.687 604,291.5C 601.5,294.667 599,297.833 596.5,301C 588.864,303.457 584.864,308.624 584.5,316.5C 586.319,324.425 587.152,332.425 587,340.5C 585.414,342.67 584.08,345.004 583,347.5C 582.103,367.531 582.437,387.531 584,407.5C 593.749,416.625 605.249,422.458 618.5,425C 654.088,438.707 682.254,461.54 703,493.5C 716.653,522.101 722.486,552.267 720.5,584C 722.131,647.377 699.465,700.044 652.5,742C 634.806,756.351 615.14,767.351 593.5,775C 568.636,778.467 543.636,779.967 518.5,779.5C 485.976,783.744 455.642,777.577 427.5,761C 397.642,743.309 373.976,719.476 356.5,689.5C 354.578,700.54 352.411,711.54 350,722.5C 344.63,732.956 339.63,732.956 335,722.5C 316.203,667.315 305.036,610.649 301.5,552.5C 305.006,510.302 313.006,468.969 325.5,428.5C 323.075,421.218 319.909,414.218 316,407.5C 304.143,352.062 322.643,310.228 371.5,282C 377.611,277.609 381.611,271.776 383.5,264.5C 383,263.5 382.5,262.5 382,261.5C 376.333,256.5 370.667,251.5 365,246.5C 360.981,236.535 363.148,228.035 371.5,221C 377.049,218.299 382.882,216.799 389,216.5C 395.802,217.184 402.636,217.851 409.5,218.5C 411.776,217.787 414.109,217.287 416.5,217C 423.747,208.75 431.414,200.75 439.5,193C 442.382,191.392 445.382,190.059 448.5,189C 456.87,188.739 465.203,188.072 473.5,187C 476.407,185.391 479.073,183.558 481.5,181.5 Z M 371.5,304.5 C 372.586,304.62 373.253,305.287 373.5,306.5C 374.986,312.977 374.486,319.311 372,325.5C 361.333,349.5 350.667,373.5 340,397.5C 339.376,399.754 338.043,401.421 336,402.5C 327.538,377.997 330.204,354.664 344,332.5C 351.36,321.307 360.527,311.974 371.5,304.5 Z M 414.5,339.5 C 426.48,340.225 438.48,340.725 450.5,341C 458.872,342.715 462.705,347.882 462,356.5C 462.667,371.167 462.667,385.833 462,400.5C 461.794,403.623 461.127,406.623 460,409.5C 455.26,413.785 450.427,417.952 445.5,422C 431.912,427.529 418.246,432.863 404.5,438C 390.976,439.357 377.976,437.357 365.5,432C 362.053,429.364 361.553,426.197 364,422.5C 376.922,397.656 389.589,372.656 402,347.5C 404.731,342.395 408.898,339.728 414.5,339.5 Z M 354.5,453.5 C 361.478,455.434 367.812,458.6 373.5,463C 358.515,479.793 346.681,498.626 338,519.5C 337.333,516.833 337.333,514.167 338,511.5C 342.177,493.791 346.51,476.125 351,458.5C 351.997,456.677 353.164,455.01 354.5,453.5 Z M 328.5,563.5 C 330.463,570.424 331.13,577.757 330.5,585.5C 329.5,585.5 328.5,585.5 327.5,585.5C 327.365,578.138 327.698,570.804 328.5,563.5 Z"/></g>
</svg>
