<?xml version="1.0" encoding="UTF-8"?>
<!DOCTYPE svg PUBLIC "-//W3C//DTD SVG 1.1//EN" "http://www.w3.org/Graphics/SVG/1.1/DTD/svg11.dtd">
<svg xmlns="http://www.w3.org/2000/svg" version="1.1" width="512px" height="512px" style="shape-rendering:geometricPrecision; text-rendering:geometricPrecision; image-rendering:optimizeQuality; fill-rule:evenodd; clip-rule:evenodd" xmlns:xlink="http://www.w3.org/1999/xlink">
<g><path style="opacity:1" fill="#ececec" d="M 218.5,59.5 C 222.257,59.0708 225.757,59.7375 229,61.5C 232.242,67.8853 234.242,74.552 235,81.5C 232.686,76.5965 230.519,71.5965 228.5,66.5C 205.961,64.0352 184.295,67.2018 163.5,76C 161.955,77.8219 161.288,79.9886 161.5,82.5C 162.444,91.0588 165.11,99.0588 169.5,106.5C 163.509,109.162 157.509,111.828 151.5,114.5C 145.073,105.126 142.573,94.7926 144,83.5C 144.923,81.0758 146.423,79.0758 148.5,77.5C 158.62,72.1369 169.287,68.3036 180.5,66C 193.255,63.4859 205.921,61.3193 218.5,59.5 Z"/></g>
<g><path style="opacity:1" fill="#eeeeee" d="M 218.5,70.5 C 220.895,69.1857 223.395,69.1857 226,70.5C 228.598,76.7937 231.098,83.127 233.5,89.5C 231.258,90.6924 228.925,91.6924 226.5,92.5C 223.773,85.0739 221.106,77.7405 218.5,70.5 Z"/></g>
<g><path style="opacity:1" fill="#727372" d="M 235.5,82.5 C 236.833,83.1667 236.833,83.1667 235.5,82.5 Z"/></g>
<g><path style="opacity:1" fill="#fcfcfc" d="M 344.5,134.5 C 341.316,136.414 337.649,137.08 333.5,136.5C 306.722,136.094 280.056,137.594 253.5,141C 239.776,143.075 226.776,147.242 214.5,153.5C 208.8,156.9 205.634,161.9 205,168.5C 204.244,178.536 204.577,188.536 206,198.5C 209.574,216.461 214.24,234.128 220,251.5C 235.815,256.164 251.982,259.164 268.5,260.5C 268.611,261.117 268.944,261.617 269.5,262C 271.473,262.495 273.473,262.662 275.5,262.5C 303.271,265.409 330.605,263.243 357.5,256C 364.997,253.335 371.831,249.502 378,244.5C 380.392,241.772 382.392,238.772 384,235.5C 391.108,249.325 396.941,263.658 401.5,278.5C 400.082,280.308 398.082,280.975 395.5,280.5C 363.674,279.299 332.007,281.133 300.5,286C 287.745,288.136 276.078,292.803 265.5,300C 259.845,306.338 257.511,313.838 258.5,322.5C 260.623,347.826 266.29,372.326 275.5,396C 314.714,406.203 354.381,408.869 394.5,404C 402.701,402.451 410.701,400.284 418.5,397.5C 419.493,405.984 419.826,414.651 419.5,423.5C 419.579,424.93 419.246,426.264 418.5,427.5C 416.308,428.859 414.641,430.692 413.5,433C 402.199,438.989 390.199,442.989 377.5,445C 330.94,449.557 284.44,449.39 238,444.5C 213.5,398.336 206.333,349.503 216.5,298C 209.41,277.906 198.577,260.073 184,244.5C 168.399,222.029 158.066,197.363 153,170.5C 152.5,162.841 152.334,155.174 152.5,147.5C 153.924,145.485 154.59,143.152 154.5,140.5C 155.338,131.163 158.171,122.496 163,114.5C 171.363,110.041 180.197,106.541 189.5,104C 225.554,93.3942 262.22,90.0609 299.5,94C 313.232,97.0471 324.399,104.214 333,115.5C 337.347,121.529 341.18,127.862 344.5,134.5 Z"/></g>
<g><path style="opacity:1" fill="#8c8d8c" d="M 156.5,116.5 C 157.833,117.167 157.833,117.167 156.5,116.5 Z"/></g>
<g><path style="opacity:1" fill="#fcfcfc" d="M 156.5,117.5 C 149.955,133.14 147.455,149.473 149,166.5C 149.952,174.211 151.119,181.878 152.5,189.5C 152.427,191.027 153.094,192.027 154.5,192.5C 162.554,218.157 175.387,241.157 193,261.5C 201.074,272.236 207.407,283.902 212,296.5C 204.588,338.695 207.922,380.028 222,420.5C 225.278,428.71 228.778,436.71 232.5,444.5C 215.184,442.638 197.851,440.804 180.5,439C 178.152,438.654 176.319,437.487 175,435.5C 170.864,428.895 167.531,421.895 165,414.5C 160.106,398.139 156.606,381.473 154.5,364.5C 154.741,362.102 154.074,360.102 152.5,358.5C 148.829,332.814 144.996,307.147 141,281.5C 132.159,251.627 125.492,221.293 121,190.5C 118.842,175.829 118.509,161.162 120,146.5C 124.409,138.756 130.242,132.256 137.5,127C 143.298,122.768 149.631,119.601 156.5,117.5 Z"/></g>
<g><path style="opacity:1" fill="#919191" d="M 344.5,134.5 C 345.404,135.209 345.737,136.209 345.5,137.5C 341.298,137.817 337.298,137.483 333.5,136.5C 337.649,137.08 341.316,136.414 344.5,134.5 Z"/></g>
<g><path style="opacity:1" fill="#fbfbfb" d="M 289.5,140.5 C 309.869,140.087 330.203,140.587 350.5,142C 359.668,145.172 367.501,150.339 374,157.5C 375.301,159.365 375.635,161.365 375,163.5C 369.281,168.443 362.781,171.943 355.5,174C 324.434,182.844 292.767,188.011 260.5,189.5C 245.197,191.004 231.531,187.171 219.5,178C 215.813,174.79 212.979,170.956 211,166.5C 210.289,164.633 210.789,163.133 212.5,162C 221.088,155.24 230.755,150.574 241.5,148C 257.516,144.669 273.516,142.169 289.5,140.5 Z"/></g>
<g><path style="opacity:1" fill="#9d9d9d" d="M 154.5,140.5 C 154.59,143.152 153.924,145.485 152.5,147.5C 152.41,144.848 153.076,142.515 154.5,140.5 Z"/></g>
<g><path style="opacity:1" fill="#f4f4f4" d="M 113.5,153.5 C 114.349,160.164 115.016,166.997 115.5,174C 107.51,201.255 102.677,229.088 101,257.5C 100.129,272.157 99.4619,286.824 99,301.5C 96.3428,312.144 93.6761,322.811 91,333.5C 86.0741,347.032 81.4074,360.698 77,374.5C 71.2073,404.37 83.0406,415.204 112.5,407C 126.743,401.47 140.576,394.97 154,387.5C 156.33,397.818 159.163,407.985 162.5,418C 157.749,421.073 152.749,423.74 147.5,426C 123.815,432.991 99.8146,434.325 75.5,430C 70.8195,426.313 68.3195,421.48 68,415.5C 67.3333,407.833 67.3333,400.167 68,392.5C 72.5405,362.786 80.5405,334.119 92,306.5C 96.4988,259.342 102.165,212.342 109,165.5C 110.798,161.578 112.298,157.578 113.5,153.5 Z"/></g>
<g><path style="opacity:1" fill="#fcfcfc" d="M 209.5,172.5 C 222.633,188.227 239.633,195.227 260.5,193.5C 298.473,192.417 335.14,185.417 370.5,172.5C 373.63,180.105 376.797,187.771 380,195.5C 383.173,205.612 384.173,215.945 383,226.5C 379.075,240.091 370.242,248.591 356.5,252C 327.242,259.853 297.575,261.519 267.5,257C 252.654,254.997 237.987,252.164 223.5,248.5C 215.953,227.763 210.953,206.43 208.5,184.5C 208.183,180.298 208.517,176.298 209.5,172.5 Z"/></g>
<g><path style="opacity:1" fill="#939393" d="M 209.5,172.5 C 208.517,176.298 208.183,180.298 208.5,184.5C 207.189,180.317 207.189,175.984 208.5,171.5C 209.107,171.624 209.44,171.957 209.5,172.5 Z"/></g>
<g><path style="opacity:1" fill="#898989" d="M 152.5,189.5 C 153.906,189.973 154.573,190.973 154.5,192.5C 153.094,192.027 152.427,191.027 152.5,189.5 Z"/></g>
<g><path style="opacity:1" fill="#9b9b9b" d="M 268.5,260.5 C 271.01,260.927 273.343,261.593 275.5,262.5C 273.473,262.662 271.473,262.495 269.5,262C 268.944,261.617 268.611,261.117 268.5,260.5 Z"/></g>
<g><path style="opacity:1" fill="#aaaaaa" d="M 401.5,278.5 C 402.404,279.209 402.737,280.209 402.5,281.5C 399.941,281.802 397.607,281.468 395.5,280.5C 398.082,280.975 400.082,280.308 401.5,278.5 Z"/></g>
<g><path style="opacity:1" fill="#fbfbfb" d="M 340.5,284.5 C 362.878,284.054 385.211,284.554 407.5,286C 413.17,288.833 418.503,292.166 423.5,296C 430.882,301.145 431.215,306.479 424.5,312C 384.797,326.451 343.797,333.451 301.5,333C 284.953,331.242 272.62,323.242 264.5,309C 264.645,308.228 264.978,307.561 265.5,307C 274.363,299.902 284.363,294.902 295.5,292C 310.536,288.801 325.536,286.301 340.5,284.5 Z"/></g>
<g><path style="opacity:1" fill="#fcfcfc" d="M 264.5,316.5 C 270.521,325.014 278.521,330.847 288.5,334C 301.615,337.209 314.948,338.375 328.5,337.5C 331.187,337.664 333.854,337.497 336.5,337C 337.416,336.722 338.082,336.222 338.5,335.5C 368.405,332.588 397.405,326.255 425.5,316.5C 426.781,321.062 428.614,325.396 431,329.5C 433.95,337.346 436.283,345.346 438,353.5C 441.018,372.973 433.518,386.473 415.5,394C 397.083,400.56 378.083,403.727 358.5,403.5C 331.536,402.931 305.036,399.264 279,392.5C 278.055,392.095 277.388,391.428 277,390.5C 272.721,377.33 269.054,363.996 266,350.5C 264.464,343.579 263.63,336.579 263.5,329.5C 263.182,324.968 263.515,320.634 264.5,316.5 Z"/></g>
<g><path style="opacity:1" fill="#c8c8c8" d="M 264.5,316.5 C 263.515,320.634 263.182,324.968 263.5,329.5C 262.35,324.684 262.184,319.684 263,314.5C 263.717,315.044 264.217,315.711 264.5,316.5 Z"/></g>
<g><path style="opacity:1" fill="#b2b2b2" d="M 338.5,335.5 C 338.082,336.222 337.416,336.722 336.5,337C 333.854,337.497 331.187,337.664 328.5,337.5C 331.589,336.215 334.922,335.549 338.5,335.5 Z"/></g>
<g><path style="opacity:1" fill="#858585" d="M 152.5,358.5 C 154.074,360.102 154.741,362.102 154.5,364.5C 153.262,362.786 152.595,360.786 152.5,358.5 Z"/></g>
<g><path style="opacity:1" fill="#b6b6b6" d="M 418.5,397.5 C 418.56,396.957 418.893,396.624 419.5,396.5C 420.822,405.658 420.822,414.658 419.5,423.5C 419.826,414.651 419.493,405.984 418.5,397.5 Z"/></g>
</svg>
