<?xml version="1.0" encoding="UTF-8"?>
<!DOCTYPE svg PUBLIC "-//W3C//DTD SVG 1.1//EN" "http://www.w3.org/Graphics/SVG/1.1/DTD/svg11.dtd">
<svg xmlns="http://www.w3.org/2000/svg" version="1.1" width="512px" height="512px" style="shape-rendering:geometricPrecision; text-rendering:geometricPrecision; image-rendering:optimizeQuality; fill-rule:evenodd; clip-rule:evenodd" xmlns:xlink="http://www.w3.org/1999/xlink">
<g><path style="opacity:0.977" fill="#f0f0f0" d="M 223.5,25.5 C 223.712,27.3841 224.712,28.7174 226.5,29.5C 227.496,35.7985 227.83,42.1318 227.5,48.5C 221.833,48.5 216.167,48.5 210.5,48.5C 211.423,41.891 211.756,35.2244 211.5,28.5C 214.127,28.2097 215.794,26.8764 216.5,24.5C 217.274,23.8529 218.274,23.5195 219.5,23.5C 221.355,23.3402 222.688,24.0069 223.5,25.5 Z"/></g>
<g><path style="opacity:0.31" fill="#4f4f4f" d="M 216.5,24.5 C 215.794,26.8764 214.127,28.2097 211.5,28.5C 212.507,26.478 214.174,25.1447 216.5,24.5 Z"/></g>
<g><path style="opacity:0.025" fill="#1a1a1a" d="M 223.5,25.5 C 225.582,25.6243 227.082,26.6243 228,28.5C 228.493,35.5349 228.826,42.5349 229,49.5C 222.734,50.8258 216.568,50.8258 210.5,49.5C 210.5,49.1667 210.5,48.8333 210.5,48.5C 216.167,48.5 221.833,48.5 227.5,48.5C 227.83,42.1318 227.496,35.7985 226.5,29.5C 224.712,28.7174 223.712,27.3841 223.5,25.5 Z"/></g>
<g><path style="opacity:0.054" fill="#030303" d="M 211.5,28.5 C 211.756,35.2244 211.423,41.891 210.5,48.5C 210.5,48.8333 210.5,49.1667 210.5,49.5C 210.556,44.1547 210.223,38.6547 209.5,33C 209.899,31.2725 210.566,29.7725 211.5,28.5 Z"/></g>
<g><path style="opacity:0.052" fill="#0b0b0b" d="M 211.5,52.5 C 216.833,51.1667 222.167,51.1667 227.5,52.5C 226.833,52.5 226.167,52.5 225.5,52.5C 221.521,53.6251 217.521,53.6251 213.5,52.5C 213.167,52.5 212.833,52.5 212.5,52.5C 212.167,52.5 211.833,52.5 211.5,52.5 Z"/></g>
<g><path style="opacity:0.984" fill="#fafafa" d="M 212.5,52.5 C 212.833,52.5 213.167,52.5 213.5,52.5C 215.895,53.7658 218.562,54.4324 221.5,54.5C 223.333,54.4146 224.666,53.7479 225.5,52.5C 226.167,52.5 226.833,52.5 227.5,52.5C 227.5,95.1667 227.5,137.833 227.5,180.5C 222.5,180.5 217.5,180.5 212.5,180.5C 212.5,137.833 212.5,95.1667 212.5,52.5 Z"/></g>
<g><path style="opacity:0.965" fill="#b9b9b9" d="M 213.5,52.5 C 217.521,53.6251 221.521,53.6251 225.5,52.5C 224.666,53.7479 223.333,54.4146 221.5,54.5C 218.562,54.4324 215.895,53.7658 213.5,52.5 Z"/></g>
<g><path style="opacity:0.02" fill="#010101" d="M 227.5,52.5 C 228.478,52.811 229.145,53.4777 229.5,54.5C 228.169,96.321 228.169,138.154 229.5,180C 229.095,180.945 228.428,181.612 227.5,182C 222.167,182.667 216.833,182.667 211.5,182C 210.376,181.161 209.709,179.994 209.5,178.5C 210.484,136.65 210.817,94.9834 210.5,53.5C 211.833,95.1478 211.833,136.815 210.5,178.5C 210.747,179.713 211.414,180.38 212.5,180.5C 217.5,180.5 222.5,180.5 227.5,180.5C 227.5,137.833 227.5,95.1667 227.5,52.5 Z"/></g>
<g><path style="opacity:0.306" fill="#c0c0c0" d="M 211.5,52.5 C 211.833,52.5 212.167,52.5 212.5,52.5C 212.5,95.1667 212.5,137.833 212.5,180.5C 211.414,180.38 210.747,179.713 210.5,178.5C 211.833,136.815 211.833,95.1478 210.5,53.5C 210.5,52.8333 210.833,52.5 211.5,52.5 Z"/></g>
<g><path style="opacity:0.085" fill="#101010" d="M 278.5,185.5 C 275.353,183.421 272.019,183.087 268.5,184.5C 269.334,183.252 270.667,182.585 272.5,182.5C 275.308,182.078 277.308,183.078 278.5,185.5 Z"/></g>
<g><path style="opacity:0.082" fill="#000000" d="M 301.5,183.5 C 297.885,183.155 294.552,183.822 291.5,185.5C 291.953,184.542 292.619,183.708 293.5,183C 296.367,182.199 299.034,182.366 301.5,183.5 Z"/></g>
<g><path style="opacity:0.104" fill="#0a0a0a" d="M 267.5,185.5 C 266.872,188.88 266.538,192.214 266.5,195.5C 265.833,195.5 265.167,195.5 264.5,195.5C 266.42,194.179 266.587,192.846 265,191.5C 264.039,188.625 264.872,186.625 267.5,185.5 Z"/></g>
<g><path style="opacity:0.979" fill="#f2f2f2" d="M 278.5,185.5 C 279.029,190.778 280.029,195.944 281.5,201C 280.944,201.383 280.611,201.883 280.5,202.5C 275.456,202.827 270.456,202.494 265.5,201.5C 266.348,199.591 266.682,197.591 266.5,195.5C 266.538,192.214 266.872,188.88 267.5,185.5C 267.5,184.833 267.833,184.5 268.5,184.5C 272.019,183.087 275.353,183.421 278.5,185.5 Z"/></g>
<g><path style="opacity:0.978" fill="#e3e3e3" d="M 301.5,183.5 C 302.5,183.833 303.167,184.5 303.5,185.5C 303.908,191.535 304.574,197.535 305.5,203.5C 300.5,203.5 295.5,203.5 290.5,203.5C 290.167,203.5 289.833,203.5 289.5,203.5C 289.448,201.097 289.781,198.764 290.5,196.5C 290.185,192.629 290.518,188.962 291.5,185.5C 294.552,183.822 297.885,183.155 301.5,183.5 Z"/></g>
<g><path style="opacity:0.058" fill="#0a0a0a" d="M 278.5,185.5 C 279.117,185.611 279.617,185.944 280,186.5C 280.288,191.594 281.121,196.594 282.5,201.5C 282.253,202.713 281.586,203.38 280.5,203.5C 280.5,203.167 280.5,202.833 280.5,202.5C 280.611,201.883 280.944,201.383 281.5,201C 280.029,195.944 279.029,190.778 278.5,185.5 Z"/></g>
<g><path style="opacity:0.062" fill="#060606" d="M 303.5,185.5 C 304.265,190.256 305.598,194.923 307.5,199.5C 307.66,201.355 306.993,202.688 305.5,203.5C 304.574,197.535 303.908,191.535 303.5,185.5 Z"/></g>
<g><path style="opacity:0.076" fill="#000000" d="M 290.5,196.5 C 289.781,198.764 289.448,201.097 289.5,203.5C 288.853,202.726 288.52,201.726 288.5,200.5C 288.34,198.645 289.007,197.312 290.5,196.5 Z"/></g>
<g><path style="opacity:0.19" fill="#616161" d="M 264.5,195.5 C 265.167,195.5 265.833,195.5 266.5,195.5C 266.682,197.591 266.348,199.591 265.5,201.5C 270.456,202.494 275.456,202.827 280.5,202.5C 280.5,202.833 280.5,203.167 280.5,203.5C 275.5,203.5 270.5,203.5 265.5,203.5C 264.252,202.666 263.585,201.333 263.5,199.5C 263.511,197.955 263.844,196.622 264.5,195.5 Z"/></g>
<g><path style="opacity:0.054" fill="#030303" d="M 228.5,184.5 C 229.568,183.566 230.901,183.232 232.5,183.5C 232.258,189.208 232.592,194.875 233.5,200.5C 233.41,202.425 232.41,203.592 230.5,204C 242.341,204.826 254.007,204.659 265.5,203.5C 270.5,203.5 275.5,203.5 280.5,203.5C 283.833,204.833 287.167,204.833 290.5,203.5C 295.5,203.5 300.5,203.5 305.5,203.5C 309.647,204.325 313.981,204.825 318.5,205C 319.571,205.852 320.571,206.685 321.5,207.5C 319.897,207.688 318.563,207.188 317.5,206C 276.331,205.169 235.331,205.335 194.5,206.5C 190.532,207.071 188.365,209.404 188,213.5C 187.5,246.832 187.333,280.165 187.5,313.5C 186.833,296.837 186.5,280.003 186.5,263C 186.353,245.104 186.853,227.27 188,209.5C 188.93,207.448 190.43,205.948 192.5,205C 204.833,204.667 217.167,204.333 229.5,204C 221.833,203.667 214.167,203.333 206.5,203C 206.223,196.603 206.223,190.103 206.5,183.5C 213.804,184.302 221.138,184.635 228.5,184.5 Z"/></g>
<g><path style="opacity:0.994" fill="#f9f9f9" d="M 228.5,184.5 C 229.496,184.414 230.329,184.748 231,185.5C 231.499,190.823 231.666,196.156 231.5,201.5C 223.415,201.4 215.415,201.566 207.5,202C 207.369,196.318 207.369,190.484 207.5,184.5C 214.642,185.738 221.642,185.738 228.5,184.5 Z"/></g>
<g><path style="opacity:0.985" fill="#f7f7f7" d="M 321.5,207.5 C 321.402,209.553 322.069,211.22 323.5,212.5C 322.695,245.811 322.195,279.144 322,312.5C 320.748,315.014 320.248,317.68 320.5,320.5C 320.167,320.5 319.833,320.5 319.5,320.5C 318.824,366.373 318.157,412.373 317.5,458.5C 316.5,458.833 315.833,459.5 315.5,460.5C 275.5,460.5 235.5,460.5 195.5,460.5C 195.167,459.5 194.5,458.833 193.5,458.5C 192.677,413.208 192.177,367.874 192,322.5C 191.229,319.81 190.396,317.144 189.5,314.5C 188.333,281.172 188.167,247.838 189,214.5C 189.625,210.891 191.458,208.224 194.5,206.5C 235.331,205.335 276.331,205.169 317.5,206C 318.563,207.188 319.897,207.688 321.5,207.5 Z M 303.5,220.5 C 304.476,221.815 305.476,223.148 306.5,224.5C 307.833,243.167 307.833,261.833 306.5,280.5C 305.713,281.242 305.047,282.075 304.5,283C 272.586,284.652 240.586,284.985 208.5,284C 206.697,283.363 205.364,282.197 204.5,280.5C 203.167,261.833 203.167,243.167 204.5,224.5C 205.382,223.24 206.382,222.074 207.5,221C 239.498,220.5 271.498,220.333 303.5,220.5 Z M 231.5,318.5 C 247.5,318.5 263.5,318.5 279.5,318.5C 282.115,320.903 282.948,323.903 282,327.5C 280.482,328.163 279.315,329.163 278.5,330.5C 263.167,330.5 247.833,330.5 232.5,330.5C 231.685,329.163 230.518,328.163 229,327.5C 228.133,324.479 228.633,321.812 230.5,319.5C 231.167,319.5 231.5,319.167 231.5,318.5 Z M 311.5,367.5 C 309.372,368.629 307.039,368.796 304.5,368C 306.433,367.749 308.266,367.249 310,366.5C 310.383,367.056 310.883,367.389 311.5,367.5 Z M 202.5,374.5 C 198.724,374.531 198.557,373.864 202,372.5C 203.684,372.683 203.85,373.35 202.5,374.5 Z M 229.5,372.5 C 228.64,374.97 227.306,375.137 225.5,373C 226.793,372.51 228.127,372.343 229.5,372.5 Z M 240.5,372.5 C 244.588,372.218 245.088,372.885 242,374.5C 240.97,374.164 240.47,373.497 240.5,372.5 Z M 265.5,373.5 C 267.185,372.156 268.852,372.323 270.5,374C 268.735,374.64 267.068,374.473 265.5,373.5 Z M 281.5,372.5 C 283.199,372.34 284.866,372.506 286.5,373C 284.415,375.139 282.749,374.972 281.5,372.5 Z M 240.5,386.5 C 241.204,384.656 242.537,384.156 244.5,385C 243.255,385.791 241.922,386.291 240.5,386.5 Z M 265.5,385.5 C 266.946,384.387 268.613,384.22 270.5,385C 269.584,385.374 268.75,385.874 268,386.5C 267.329,385.748 266.496,385.414 265.5,385.5 Z M 199.5,395.5 C 202.518,395.335 205.518,395.502 208.5,396C 205.187,398.141 202.187,397.974 199.5,395.5 Z M 229.5,397.5 C 226.278,397.892 223.278,397.392 220.5,396C 222,395.833 223.5,395.667 225,395.5C 226.986,395.569 228.486,396.235 229.5,397.5 Z M 240.5,395.5 C 243.85,395.335 247.183,395.502 250.5,396C 246.798,398.085 243.464,397.918 240.5,395.5 Z M 259.5,396.5 C 262.976,395.357 266.642,395.19 270.5,396C 266.91,397.822 263.243,397.989 259.5,396.5 Z M 281.5,395.5 C 292.02,395.578 292.02,396.245 281.5,397.5C 281.5,396.833 281.5,396.167 281.5,395.5 Z M 311.5,395.5 C 311.5,396.167 311.5,396.833 311.5,397.5C 302.365,396.37 302.365,395.703 311.5,395.5 Z M 200.5,406.5 C 210.362,407.477 220.028,407.811 229.5,407.5C 219.517,408.666 209.517,408.832 199.5,408C 200.056,407.617 200.389,407.117 200.5,406.5 Z M 240.5,406.5 C 250,407.821 259.5,407.821 269,406.5C 269.5,407 270,407.5 270.5,408C 265.5,408.167 260.5,408.333 255.5,408.5C 250.119,408.494 245.119,407.828 240.5,406.5 Z M 281.5,406.5 C 291.09,407.308 300.756,407.808 310.5,408C 305.667,408.167 300.833,408.333 296,408.5C 290.784,408.494 285.951,407.827 281.5,406.5 Z M 227.5,434.5 C 229.76,435.238 229.927,436.238 228,437.5C 225.26,436.718 222.426,436.218 219.5,436C 222.365,435.817 225.031,435.317 227.5,434.5 Z M 240.5,434.5 C 249.697,435.796 258.864,435.796 268,434.5C 270.481,435.149 270.814,436.149 269,437.5C 259.863,436.177 250.697,436.177 241.5,437.5C 240.614,436.675 240.281,435.675 240.5,434.5 Z M 282.5,434.5 C 291.389,435.374 291.556,436.374 283,437.5C 281.272,436.648 281.105,435.648 282.5,434.5 Z M 309.5,434.5 C 310.713,435.497 310.546,436.497 309,437.5C 307.601,436.773 306.101,436.273 304.5,436C 306.382,435.802 308.048,435.302 309.5,434.5 Z M 199.5,436.5 C 202.64,435.359 205.973,435.192 209.5,436C 206.574,436.218 203.74,436.718 201,437.5C 200.617,436.944 200.117,436.611 199.5,436.5 Z"/></g>
<g><path style="opacity:0.067" fill="#000000" d="M 321.5,207.5 C 322.931,208.78 323.598,210.447 323.5,212.5C 322.069,211.22 321.402,209.553 321.5,207.5 Z"/></g>
<g><path style="opacity:0.584" fill="#858585" d="M 323.5,212.5 C 324.664,245.998 324.831,279.664 324,313.5C 323.098,315.927 322.264,318.26 321.5,320.5C 321.167,320.5 320.833,320.5 320.5,320.5C 320.248,317.68 320.748,315.014 322,312.5C 322.195,279.144 322.695,245.811 323.5,212.5 Z"/></g>
<g><path style="opacity:0.114" fill="#020202" d="M 303.5,220.5 C 305.592,220.561 307.092,221.561 308,223.5C 308.667,242.833 308.667,262.167 308,281.5C 307.241,283.063 306.074,284.063 304.5,284.5C 272.24,285.492 239.907,285.826 207.5,285.5C 205.696,284.619 204.196,283.286 203,281.5C 202.333,262.167 202.333,242.833 203,223.5C 203.374,222.584 203.874,221.75 204.5,221C 221.245,219.847 238.078,219.347 255,219.5C 271.337,219.5 287.503,219.833 303.5,220.5 Z M 303.5,220.5 C 271.498,220.333 239.498,220.5 207.5,221C 206.382,222.074 205.382,223.24 204.5,224.5C 203.167,243.167 203.167,261.833 204.5,280.5C 205.364,282.197 206.697,283.363 208.5,284C 240.586,284.985 272.586,284.652 304.5,283C 305.047,282.075 305.713,281.242 306.5,280.5C 307.833,261.833 307.833,243.167 306.5,224.5C 305.476,223.148 304.476,221.815 303.5,220.5 Z"/></g>
<g><path style="opacity:0.733" fill="#bdbdbd" d="M 304.5,284.5 C 288.681,285.833 272.514,286.499 256,286.5C 239.663,286.5 223.497,286.167 207.5,285.5C 239.907,285.826 272.24,285.492 304.5,284.5 Z"/></g>
<g><path style="opacity:0.29" fill="#7c7c7c" d="M 281.5,318.5 C 280.833,318.5 280.167,318.5 279.5,318.5C 263.5,318.5 247.5,318.5 231.5,318.5C 239.305,317.169 247.472,316.502 256,316.5C 264.167,316.667 272.333,316.833 280.5,317C 281.056,317.383 281.389,317.883 281.5,318.5 Z"/></g>
<g><path style="opacity:0.084" fill="#000000" d="M 230.5,319.5 C 228.633,321.812 228.133,324.479 229,327.5C 230.518,328.163 231.685,329.163 232.5,330.5C 230.83,330.249 229.33,329.582 228,328.5C 227.502,325.518 227.335,322.518 227.5,319.5C 228.5,319.5 229.5,319.5 230.5,319.5 Z"/></g>
<g><path style="opacity:0.06" fill="#111111" d="M 279.5,318.5 C 280.167,318.5 280.833,318.5 281.5,318.5C 283.437,321.499 283.937,324.833 283,328.5C 281.67,329.582 280.17,330.249 278.5,330.5C 279.315,329.163 280.482,328.163 282,327.5C 282.948,323.903 282.115,320.903 279.5,318.5 Z"/></g>
<g><path style="opacity:0.02" fill="#000000" d="M 189.5,320.5 C 190.268,321.263 190.768,322.263 191,323.5C 191.5,368.165 191.667,412.832 191.5,457.5C 190.813,411.98 190.147,366.313 189.5,320.5 Z"/></g>
<g><path style="opacity:0.02" fill="#050505" d="M 319.5,320.5 C 319.833,320.5 320.167,320.5 320.5,320.5C 320.833,320.5 321.167,320.5 321.5,320.5C 320.848,366.306 320.182,411.973 319.5,457.5C 319.5,411.833 319.5,366.167 319.5,320.5 Z"/></g>
<g><path style="opacity:0.274" fill="#bdbdbd" d="M 194.5,206.5 C 191.458,208.224 189.625,210.891 189,214.5C 188.167,247.838 188.333,281.172 189.5,314.5C 190.396,317.144 191.229,319.81 192,322.5C 192.177,367.874 192.677,413.208 193.5,458.5C 192.833,458.167 192.167,457.833 191.5,457.5C 191.667,412.832 191.5,368.165 191,323.5C 190.768,322.263 190.268,321.263 189.5,320.5C 188.593,318.343 187.927,316.01 187.5,313.5C 187.333,280.165 187.5,246.832 188,213.5C 188.365,209.404 190.532,207.071 194.5,206.5 Z"/></g>
<g><path style="opacity:0.274" fill="#b8b8b8" d="M 319.5,320.5 C 319.5,366.167 319.5,411.833 319.5,457.5C 318.833,457.833 318.167,458.167 317.5,458.5C 318.157,412.373 318.824,366.373 319.5,320.5 Z"/></g>
<g><path style="opacity:0.031" fill="#020202" d="M 230.5,352.5 C 219.833,352.5 209.167,352.5 198.5,352.5C 198.5,351.5 198.5,350.5 198.5,349.5C 209.52,349.168 220.52,349.501 231.5,350.5C 231.137,351.183 230.804,351.85 230.5,352.5 Z"/></g>
<g><path style="opacity:0.03" fill="#020202" d="M 271.5,352.5 C 260.873,352.246 250.206,352.579 239.5,353.5C 239.461,352.417 239.127,351.417 238.5,350.5C 249.48,349.501 260.48,349.168 271.5,349.5C 271.5,350.5 271.5,351.5 271.5,352.5 Z"/></g>
<g><path style="opacity:0.036" fill="#000000" d="M 311.5,352.5 C 302.167,352.5 292.833,352.5 283.5,352.5C 282.5,352.5 281.5,352.5 280.5,352.5C 280.5,352.167 280.5,351.833 280.5,351.5C 279.957,351.44 279.624,351.107 279.5,350.5C 290.48,349.501 301.48,349.168 312.5,349.5C 312.737,350.791 312.404,351.791 311.5,352.5 Z"/></g>
<g><path style="opacity:0.302" fill="#818181" d="M 198.5,352.5 C 209.167,352.5 219.833,352.5 230.5,352.5C 229.688,353.993 228.355,354.66 226.5,354.5C 217.01,353.912 207.677,353.245 198.5,352.5 Z"/></g>
<g><path style="opacity:0.302" fill="#868686" d="M 271.5,352.5 C 270.688,353.993 269.355,354.66 267.5,354.5C 257.997,353.631 248.664,353.297 239.5,353.5C 250.206,352.579 260.873,352.246 271.5,352.5 Z"/></g>
<g><path style="opacity:0.302" fill="#848484" d="M 283.5,352.5 C 292.833,352.5 302.167,352.5 311.5,352.5C 310.817,354.176 309.483,354.843 307.5,354.5C 299.5,353.833 291.5,353.167 283.5,352.5 Z"/></g>
<g><path style="opacity:0.89" fill="#bebebe" d="M 280.5,352.5 C 281.5,352.5 282.5,352.5 283.5,352.5C 291.5,353.167 299.5,353.833 307.5,354.5C 299.316,354.174 291.316,354.508 283.5,355.5C 282.833,355.5 282.167,355.5 281.5,355.5C 281.443,354.391 281.11,353.391 280.5,352.5 Z"/></g>
<g><path style="opacity:0.173" fill="#585858" d="M 198.5,355.5 C 209.884,354.856 220.884,355.523 231.5,357.5C 230.833,357.5 230.167,357.5 229.5,357.5C 229.5,356.833 229.167,356.5 228.5,356.5C 219.167,356.5 209.833,356.5 200.5,356.5C 199.833,356.5 199.5,356.833 199.5,357.5C 198.662,357.158 198.328,356.492 198.5,355.5 Z"/></g>
<g><path style="opacity:0.043" fill="#1b1b1b" d="M 269.5,358.5 C 268.833,358.5 268.167,358.5 267.5,358.5C 258.167,358.5 248.833,358.5 239.5,358.5C 239.5,357.5 239.5,356.5 239.5,355.5C 250.167,355.5 260.833,355.5 271.5,355.5C 271.715,357.179 271.048,358.179 269.5,358.5 Z"/></g>
<g><path style="opacity:0.049" fill="#010101" d="M 281.5,355.5 C 281.5,355.833 281.5,356.167 281.5,356.5C 281.833,357.833 282.167,357.833 282.5,356.5C 291.833,356.5 301.167,356.5 310.5,356.5C 310.5,357.167 310.833,357.5 311.5,357.5C 301.342,358.659 291.008,358.825 280.5,358C 279.434,356.841 279.767,356.008 281.5,355.5 Z"/></g>
<g><path style="opacity:0.173" fill="#5c5c5c" d="M 281.5,356.5 C 281.5,356.167 281.5,355.833 281.5,355.5C 282.167,355.5 282.833,355.5 283.5,355.5C 293.19,355.168 302.856,355.502 312.5,356.5C 312.376,357.107 312.043,357.44 311.5,357.5C 310.833,357.5 310.5,357.167 310.5,356.5C 301.167,356.5 291.833,356.5 282.5,356.5C 282.167,356.5 281.833,356.5 281.5,356.5 Z"/></g>
<g><path style="opacity:0.039" fill="#000000" d="M 200.5,356.5 C 209.833,356.5 219.167,356.5 228.5,356.5C 229.167,356.5 229.5,356.833 229.5,357.5C 219.5,358.833 209.5,358.833 199.5,357.5C 200.167,357.5 200.5,357.167 200.5,356.5 Z"/></g>
<g><path style="opacity:0.933" fill="#cdcdcd" d="M 198.5,355.5 C 198.328,356.492 198.662,357.158 199.5,357.5C 209.5,358.833 219.5,358.833 229.5,357.5C 230.167,357.5 230.833,357.5 231.5,357.5C 230.766,358.708 230.433,360.041 230.5,361.5C 229.039,360.314 227.705,360.314 226.5,361.5C 217.5,361.5 208.5,361.5 199.5,361.5C 198.892,360.2 198.225,358.867 197.5,357.5C 197.543,356.584 197.876,355.917 198.5,355.5 Z"/></g>
<g><path style="opacity:0.042" fill="#010101" d="M 244.5,360.5 C 252.772,361.379 261.106,361.713 269.5,361.5C 270.376,361.369 271.043,361.702 271.5,362.5C 260.833,363.833 250.167,363.833 239.5,362.5C 240.668,360.783 242.335,360.116 244.5,360.5 Z"/></g>
<g><path style="opacity:0.541" fill="#8e8e8e" d="M 267.5,358.5 C 268.167,358.5 268.833,358.5 269.5,358.5C 269.5,359.5 269.5,360.5 269.5,361.5C 261.106,361.713 252.772,361.379 244.5,360.5C 250.509,360.666 256.509,360.499 262.5,360C 264.382,359.802 266.048,359.302 267.5,358.5 Z"/></g>
<g><path style="opacity:0.043" fill="#000000" d="M 284.5,361.5 C 293.833,361.5 303.167,361.5 312.5,361.5C 302.219,363.476 291.552,364.143 280.5,363.5C 280.958,360.691 282.291,360.024 284.5,361.5 Z"/></g>
<g><path style="opacity:0.034" fill="#010101" d="M 230.5,361.5 C 225.544,362.828 220.211,363.495 214.5,363.5C 208.789,363.495 203.456,362.828 198.5,361.5C 198.833,361.5 199.167,361.5 199.5,361.5C 208.5,361.5 217.5,361.5 226.5,361.5C 227.705,360.314 229.039,360.314 230.5,361.5 Z"/></g>
<g><path style="opacity:0.245" fill="#acacac" d="M 198.5,361.5 C 203.456,362.828 208.789,363.495 214.5,363.5C 220.211,363.495 225.544,362.828 230.5,361.5C 231.404,362.209 231.737,363.209 231.5,364.5C 220.167,364.5 208.833,364.5 197.5,364.5C 197.263,363.209 197.596,362.209 198.5,361.5 Z"/></g>
<g><path style="opacity:0.246" fill="#adadad" d="M 312.5,361.5 C 313.404,362.209 313.737,363.209 313.5,364.5C 302.321,364.828 291.321,364.495 280.5,363.5C 291.552,364.143 302.219,363.476 312.5,361.5 Z"/></g>
<g><path style="opacity:0.05" fill="#181818" d="M 199.5,365.5 C 209.506,365.334 219.506,365.5 229.5,366C 230.337,367.011 230.67,368.178 230.5,369.5C 219.833,369.5 209.167,369.5 198.5,369.5C 198.433,368.041 198.766,366.708 199.5,365.5 Z"/></g>
<g><path style="opacity:0.06" fill="#1d1d1d" d="M 239.5,365.5 C 249.839,365.334 260.172,365.5 270.5,366C 271.337,367.011 271.67,368.178 271.5,369.5C 260.833,369.5 250.167,369.5 239.5,369.5C 239.5,368.167 239.5,366.833 239.5,365.5 Z"/></g>
<g><path style="opacity:0.046" fill="#1e1e1e" d="M 311.5,367.5 C 312.043,367.56 312.376,367.893 312.5,368.5C 301.854,369.499 291.187,369.832 280.5,369.5C 280.33,368.178 280.663,367.011 281.5,366C 286.5,365.833 291.5,365.667 296.5,365.5C 301.881,365.506 306.881,366.172 311.5,367.5 Z M 311.5,367.5 C 310.883,367.389 310.383,367.056 310,366.5C 308.266,367.249 306.433,367.749 304.5,368C 307.039,368.796 309.372,368.629 311.5,367.5 Z"/></g>
<g><path style="opacity:0.063" fill="#181818" d="M 229.5,372.5 C 231.035,375.33 230.035,376.663 226.5,376.5C 226.389,375.883 226.056,375.383 225.5,375C 217.841,374.5 210.174,374.334 202.5,374.5C 202.167,375.167 201.833,375.833 201.5,376.5C 198.611,376.001 197.944,374.501 199.5,372C 209.675,371.175 219.675,371.342 229.5,372.5 Z M 202.5,374.5 C 203.85,373.35 203.684,372.683 202,372.5C 198.557,373.864 198.724,374.531 202.5,374.5 Z M 229.5,372.5 C 228.127,372.343 226.793,372.51 225.5,373C 227.306,375.137 228.64,374.97 229.5,372.5 Z"/></g>
<g><path style="opacity:0.058" fill="#181818" d="M 266.5,376.5 C 266.389,375.883 266.056,375.383 265.5,375C 258.321,374.179 251.321,374.345 244.5,375.5C 242.958,376.301 241.292,376.634 239.5,376.5C 239.5,374.833 239.5,373.167 239.5,371.5C 249.839,371.334 260.172,371.5 270.5,372C 271.676,375.309 270.343,376.809 266.5,376.5 Z M 240.5,372.5 C 240.47,373.497 240.97,374.164 242,374.5C 245.088,372.885 244.588,372.218 240.5,372.5 Z M 265.5,373.5 C 267.068,374.473 268.735,374.64 270.5,374C 268.852,372.323 267.185,372.156 265.5,373.5 Z"/></g>
<g><path style="opacity:0.056" fill="#1f1f1f" d="M 281.5,372.5 C 291.325,371.342 301.325,371.175 311.5,372C 312.337,373.011 312.67,374.178 312.5,375.5C 302.8,375.217 293.133,375.551 283.5,376.5C 280.684,376.017 280.017,374.684 281.5,372.5 Z M 281.5,372.5 C 282.749,374.972 284.415,375.139 286.5,373C 284.866,372.506 283.199,372.34 281.5,372.5 Z"/></g>
<g><path style="opacity:0.2" fill="#656565" d="M 202.5,374.5 C 210.174,374.334 217.841,374.5 225.5,375C 226.056,375.383 226.389,375.883 226.5,376.5C 218.167,376.5 209.833,376.5 201.5,376.5C 201.833,375.833 202.167,375.167 202.5,374.5 Z"/></g>
<g><path style="opacity:0.2" fill="#505050" d="M 244.5,375.5 C 251.321,374.345 258.321,374.179 265.5,375C 266.056,375.383 266.389,375.883 266.5,376.5C 259.209,375.608 251.876,375.274 244.5,375.5 Z"/></g>
<g><path style="opacity:0.267" fill="#bababa" d="M 271.5,378.5 C 260.833,378.5 250.167,378.5 239.5,378.5C 239.5,379.5 239.5,380.5 239.5,381.5C 247.5,381.5 255.5,381.5 263.5,381.5C 255.35,382.493 247.017,382.826 238.5,382.5C 238.5,380.833 238.5,379.167 238.5,377.5C 249.679,377.172 260.679,377.505 271.5,378.5 Z"/></g>
<g><path style="opacity:0.042" fill="#131313" d="M 271.5,378.5 C 271.5,379.5 271.5,380.5 271.5,381.5C 268.833,381.5 266.167,381.5 263.5,381.5C 255.5,381.5 247.5,381.5 239.5,381.5C 239.5,380.5 239.5,379.5 239.5,378.5C 250.167,378.5 260.833,378.5 271.5,378.5 Z"/></g>
<g><path style="opacity:0.929" fill="#c8c8c8" d="M 204.5,383.5 C 202.5,383.5 200.5,383.5 198.5,383.5C 198.5,384.5 198.5,385.5 198.5,386.5C 198.552,383.612 198.219,380.612 197.5,377.5C 209.167,377.5 220.833,377.5 232.5,377.5C 232.579,378.93 232.246,380.264 231.5,381.5C 222.342,382.167 213.342,382.833 204.5,383.5 Z"/></g>
<g><path style="opacity:0.046" fill="#141414" d="M 198.5,378.5 C 209.167,378.5 219.833,378.5 230.5,378.5C 230.5,379.5 230.5,380.5 230.5,381.5C 220.161,381.666 209.828,381.5 199.5,381C 198.748,380.329 198.414,379.496 198.5,378.5 Z"/></g>
<g><path style="opacity:0.617" fill="#d1d1d1" d="M 289.5,383.5 C 286.5,383.5 283.5,383.5 280.5,383.5C 280.5,384.5 280.5,385.5 280.5,386.5C 279.624,386.631 278.957,386.298 278.5,385.5C 279.516,382.866 279.516,380.2 278.5,377.5C 290.167,377.5 301.833,377.5 313.5,377.5C 313.714,379.144 313.38,380.644 312.5,382C 304.656,382.171 296.989,382.671 289.5,383.5 Z"/></g>
<g><path style="opacity:0.05" fill="#0b0b0b" d="M 311.5,380.5 C 301.347,381.494 291.014,381.828 280.5,381.5C 280.5,380.5 280.5,379.5 280.5,378.5C 291.187,378.168 301.854,378.501 312.5,379.5C 312.376,380.107 312.043,380.44 311.5,380.5 Z"/></g>
<g><path style="opacity:0.077" fill="#0a0a0a" d="M 204.5,383.5 C 213.167,383.5 221.833,383.5 230.5,383.5C 230.853,385.635 230.02,386.968 228,387.5C 218.111,386.61 208.277,386.276 198.5,386.5C 198.5,385.5 198.5,384.5 198.5,383.5C 200.5,383.5 202.5,383.5 204.5,383.5 Z"/></g>
<g><path style="opacity:0.07" fill="#0a0b0a" d="M 240.5,386.5 C 239.596,385.791 239.263,384.791 239.5,383.5C 250.167,383.5 260.833,383.5 271.5,383.5C 271.923,386.243 270.756,387.576 268,387.5C 258.64,386.541 249.474,386.208 240.5,386.5 Z M 240.5,386.5 C 241.922,386.291 243.255,385.791 244.5,385C 242.537,384.156 241.204,384.656 240.5,386.5 Z M 265.5,385.5 C 266.496,385.414 267.329,385.748 268,386.5C 268.75,385.874 269.584,385.374 270.5,385C 268.613,384.22 266.946,384.387 265.5,385.5 Z"/></g>
<g><path style="opacity:0.067" fill="#0b0b0b" d="M 289.5,383.5 C 297.167,383.5 304.833,383.5 312.5,383.5C 312.542,385.849 311.375,387.182 309,387.5C 299.415,386.584 289.915,386.251 280.5,386.5C 280.5,385.5 280.5,384.5 280.5,383.5C 283.5,383.5 286.5,383.5 289.5,383.5 Z"/></g>
<g><path style="opacity:0.025" fill="#030303" d="M 198.5,389.5 C 209.187,389.168 219.854,389.501 230.5,390.5C 225.167,390.833 219.833,391.167 214.5,391.5C 208.789,391.495 203.456,390.828 198.5,389.5 Z"/></g>
<g><path style="opacity:0.028" fill="#000000" d="M 239.5,389.5 C 250.187,389.168 260.854,389.501 271.5,390.5C 266.167,390.833 260.833,391.167 255.5,391.5C 249.789,391.495 244.456,390.828 239.5,389.5 Z"/></g>
<g><path style="opacity:0.028" fill="#010101" d="M 280.5,389.5 C 291.33,389.025 301.997,389.525 312.5,391C 301.5,391.667 290.5,391.667 279.5,391C 280.056,390.617 280.389,390.117 280.5,389.5 Z"/></g>
<g><path style="opacity:0.099" fill="#0f0f0f" d="M 229.5,397.5 C 219.675,398.658 209.675,398.825 199.5,398C 198.226,397.023 198.226,396.189 199.5,395.5C 209.653,394.506 219.986,394.172 230.5,394.5C 230.737,395.791 230.404,396.791 229.5,397.5 Z M 199.5,395.5 C 202.187,397.974 205.187,398.141 208.5,396C 205.518,395.502 202.518,395.335 199.5,395.5 Z M 229.5,397.5 C 228.486,396.235 226.986,395.569 225,395.5C 223.5,395.667 222,395.833 220.5,396C 223.278,397.392 226.278,397.892 229.5,397.5 Z"/></g>
<g><path style="opacity:0.103" fill="#0a0a0a" d="M 270.5,398.5 C 269.5,398.5 268.5,398.5 267.5,398.5C 258.167,398.5 248.833,398.5 239.5,398.5C 239.5,397.167 239.5,395.833 239.5,394.5C 250.167,394.5 260.833,394.5 271.5,394.5C 271.567,395.959 271.234,397.292 270.5,398.5 Z M 240.5,395.5 C 243.464,397.918 246.798,398.085 250.5,396C 247.183,395.502 243.85,395.335 240.5,395.5 Z M 259.5,396.5 C 263.243,397.989 266.91,397.822 270.5,396C 266.642,395.19 262.976,395.357 259.5,396.5 Z"/></g>
<g><path style="opacity:0.09" fill="#121212" d="M 281.5,395.5 C 281.5,395.167 281.5,394.833 281.5,394.5C 291.681,394.173 301.681,394.506 311.5,395.5C 302.365,395.703 302.365,396.37 311.5,397.5C 302.014,398.494 292.348,398.827 282.5,398.5C 281.833,398.5 281.5,398.167 281.5,397.5C 292.02,396.245 292.02,395.578 281.5,395.5 Z"/></g>
<g><path style="opacity:0.043" fill="#000000" d="M 198.5,400.5 C 209.167,400.5 219.833,400.5 230.5,400.5C 230.5,401.5 230.5,402.5 230.5,403.5C 219.833,403.5 209.167,403.5 198.5,403.5C 198.5,402.5 198.5,401.5 198.5,400.5 Z"/></g>
<g><path style="opacity:0.29" fill="#c9c9c9" d="M 267.5,398.5 C 268.5,398.5 269.5,398.5 270.5,398.5C 272.075,400.114 272.741,402.114 272.5,404.5C 261.162,404.667 249.828,404.5 238.5,404C 237.2,402.421 237.534,401.255 239.5,400.5C 248.833,399.833 258.167,399.167 267.5,398.5 Z"/></g>
<g><path style="opacity:0.038" fill="#000000" d="M 239.5,400.5 C 250.167,400.5 260.833,400.5 271.5,400.5C 271.5,401.5 271.5,402.5 271.5,403.5C 260.833,403.5 250.167,403.5 239.5,403.5C 239.5,402.5 239.5,401.5 239.5,400.5 Z"/></g>
<g><path style="opacity:0.29" fill="#c6c6c6" d="M 281.5,394.5 C 281.5,394.833 281.5,395.167 281.5,395.5C 281.5,396.167 281.5,396.833 281.5,397.5C 281.5,398.167 281.833,398.5 282.5,398.5C 285.167,399.167 287.833,399.833 290.5,400.5C 287.167,400.5 283.833,400.5 280.5,400.5C 280.5,401.5 280.5,402.5 280.5,403.5C 291.167,403.5 301.833,403.5 312.5,403.5C 312.5,402.5 312.5,401.5 312.5,400.5C 310.167,400.5 307.833,400.5 305.5,400.5C 307.948,399.527 310.615,399.194 313.5,399.5C 313.5,401.167 313.5,402.833 313.5,404.5C 302.167,404.5 290.833,404.5 279.5,404.5C 280.006,401.569 280.006,398.735 279.5,396C 279.836,394.97 280.503,394.47 281.5,394.5 Z"/></g>
<g><path style="opacity:0.04" fill="#000000" d="M 290.5,400.5 C 295.5,400.5 300.5,400.5 305.5,400.5C 307.833,400.5 310.167,400.5 312.5,400.5C 312.5,401.5 312.5,402.5 312.5,403.5C 301.833,403.5 291.167,403.5 280.5,403.5C 280.5,402.5 280.5,401.5 280.5,400.5C 283.833,400.5 287.167,400.5 290.5,400.5 Z"/></g>
<g><path style="opacity:0.076" fill="#000000" d="M 199.5,405.5 C 209.833,405.5 220.167,405.5 230.5,405.5C 230.5,406.833 230.5,408.167 230.5,409.5C 219.833,409.5 209.167,409.5 198.5,409.5C 198.433,408.041 198.766,406.708 199.5,405.5 Z M 200.5,406.5 C 200.389,407.117 200.056,407.617 199.5,408C 209.517,408.832 219.517,408.666 229.5,407.5C 220.028,407.811 210.362,407.477 200.5,406.5 Z"/></g>
<g><path style="opacity:0.079" fill="#000000" d="M 239.5,405.5 C 249.839,405.334 260.172,405.5 270.5,406C 271.337,407.011 271.67,408.178 271.5,409.5C 260.833,409.5 250.167,409.5 239.5,409.5C 239.5,408.167 239.5,406.833 239.5,405.5 Z M 240.5,406.5 C 245.119,407.828 250.119,408.494 255.5,408.5C 260.5,408.333 265.5,408.167 270.5,408C 270,407.5 269.5,407 269,406.5C 259.5,407.821 250,407.821 240.5,406.5 Z"/></g>
<g><path style="opacity:0.077" fill="#000000" d="M 280.5,405.5 C 290.839,405.334 301.172,405.5 311.5,406C 312.833,407 312.833,408 311.5,409C 301.172,409.5 290.839,409.666 280.5,409.5C 280.5,408.167 280.5,406.833 280.5,405.5 Z M 281.5,406.5 C 285.951,407.827 290.784,408.494 296,408.5C 300.833,408.333 305.667,408.167 310.5,408C 300.756,407.808 291.09,407.308 281.5,406.5 Z"/></g>
<g><path style="opacity:0.057" fill="#010101" d="M 230.5,414.5 C 219.448,415.143 208.781,414.476 198.5,412.5C 198.833,412.5 199.167,412.5 199.5,412.5C 209.653,411.506 219.986,411.172 230.5,411.5C 230.5,412.5 230.5,413.5 230.5,414.5 Z"/></g>
<g><path style="opacity:0.06" fill="#000000" d="M 270.5,412.5 C 271.043,412.56 271.376,412.893 271.5,413.5C 260.854,414.499 250.187,414.832 239.5,414.5C 239.5,413.5 239.5,412.5 239.5,411.5C 250.014,411.172 260.347,411.506 270.5,412.5 Z"/></g>
<g><path style="opacity:0.043" fill="#121212" d="M 311.5,412.5 C 312.043,412.56 312.376,412.893 312.5,413.5C 307.167,413.833 301.833,414.167 296.5,414.5C 290.666,414.647 284.999,414.147 279.5,413C 284.832,411.854 290.332,411.354 296,411.5C 301.344,411.501 306.511,411.834 311.5,412.5 Z"/></g>
<g><path style="opacity:0.255" fill="#aeaeae" d="M 198.5,412.5 C 208.781,414.476 219.448,415.143 230.5,414.5C 219.679,415.495 208.679,415.828 197.5,415.5C 197.263,414.209 197.596,413.209 198.5,412.5 Z"/></g>
<g><path style="opacity:0.208" fill="#8b8b8b" d="M 231.5,419.5 C 231.158,418.662 230.492,418.328 229.5,418.5C 229.167,418.5 228.833,418.5 228.5,418.5C 219.167,418.5 209.833,418.5 200.5,418.5C 199.833,418.5 199.5,418.833 199.5,419.5C 198.957,419.44 198.624,419.107 198.5,418.5C 209.833,417.167 221.167,417.167 232.5,418.5C 232.376,419.107 232.043,419.44 231.5,419.5 Z"/></g>
<g><path style="opacity:0.208" fill="#949494" d="M 270.5,417.5 C 270.5,417.833 270.5,418.167 270.5,418.5C 270.167,418.5 269.833,418.5 269.5,418.5C 260.167,418.5 250.833,418.5 241.5,418.5C 241.167,418.5 240.833,418.5 240.5,418.5C 239.662,418.842 239.328,419.508 239.5,420.5C 238.522,420.189 237.855,419.522 237.5,418.5C 248.48,417.501 259.48,417.168 270.5,417.5 Z"/></g>
<g><path style="opacity:0.208" fill="#8e8e8e" d="M 311.5,419.5 C 311.5,418.833 311.167,418.5 310.5,418.5C 301.167,418.5 291.833,418.5 282.5,418.5C 282.167,418.5 281.833,418.5 281.5,418.5C 280.508,418.328 279.842,418.662 279.5,419.5C 278.957,419.44 278.624,419.107 278.5,418.5C 289.833,417.167 301.167,417.167 312.5,418.5C 312.376,419.107 312.043,419.44 311.5,419.5 Z"/></g>
<g><path style="opacity:0.049" fill="#000000" d="M 200.5,418.5 C 209.833,418.5 219.167,418.5 228.5,418.5C 228.833,419.833 229.167,419.833 229.5,418.5C 230.492,418.328 231.158,418.662 231.5,419.5C 220.735,420.818 210.069,420.818 199.5,419.5C 200.167,419.5 200.5,419.167 200.5,418.5 Z"/></g>
<g><path style="opacity:0.036" fill="#020202" d="M 270.5,417.5 C 271.404,418.209 271.737,419.209 271.5,420.5C 260.833,420.5 250.167,420.5 239.5,420.5C 239.328,419.508 239.662,418.842 240.5,418.5C 240.833,419.833 241.167,419.833 241.5,418.5C 250.833,418.5 260.167,418.5 269.5,418.5C 269.833,419.833 270.167,419.833 270.5,418.5C 270.5,418.167 270.5,417.833 270.5,417.5 Z"/></g>
<g><path style="opacity:0.036" fill="#020202" d="M 279.5,419.5 C 279.842,418.662 280.508,418.328 281.5,418.5C 281.833,419.833 282.167,419.833 282.5,418.5C 291.833,418.5 301.167,418.5 310.5,418.5C 311.167,418.5 311.5,418.833 311.5,419.5C 300.931,420.818 290.265,420.818 279.5,419.5 Z"/></g>
<g><path style="opacity:0.055" fill="#191919" d="M 229.5,423.5 C 229.833,423.5 230.167,423.5 230.5,423.5C 220.219,425.476 209.552,426.143 198.5,425.5C 198.414,424.504 198.748,423.671 199.5,423C 209.675,422.175 219.675,422.342 229.5,423.5 Z"/></g>
<g><path style="opacity:0.055" fill="#020202" d="M 266.5,423.5 C 268.42,422.06 270.087,422.393 271.5,424.5C 260.939,425.177 250.439,425.844 240,426.5C 239.51,425.207 239.343,423.873 239.5,422.5C 248.472,423.347 257.472,423.68 266.5,423.5 Z"/></g>
<g><path style="opacity:0.061" fill="#161616" d="M 312.5,423.5 C 302.219,425.476 291.552,426.143 280.5,425.5C 280.328,424.508 280.662,423.842 281.5,423.5C 291.735,422.182 302.069,422.182 312.5,423.5 Z"/></g>
<g><path style="opacity:0.208" fill="#929292" d="M 230.5,423.5 C 231.478,423.811 232.145,424.478 232.5,425.5C 221.007,426.824 209.674,426.824 198.5,425.5C 209.552,426.143 220.219,425.476 230.5,423.5 Z"/></g>
<g><path style="opacity:0.196" fill="#8b8b8b" d="M 312.5,423.5 C 313.404,424.209 313.737,425.209 313.5,426.5C 302.321,426.828 291.321,426.495 280.5,425.5C 291.552,426.143 302.219,425.476 312.5,423.5 Z"/></g>
<g><path style="opacity:0.047" fill="#0a0a0a" d="M 230.5,429.5 C 220.219,431.476 209.552,432.143 198.5,431.5C 198.5,430.5 198.5,429.5 198.5,428.5C 208.539,428.783 218.706,428.45 229,427.5C 229.717,428.044 230.217,428.711 230.5,429.5 Z"/></g>
<g><path style="opacity:0.187" fill="#808080" d="M 270.5,428.5 C 260.167,428.5 249.833,428.5 239.5,428.5C 239.5,429.5 239.5,430.5 239.5,431.5C 238.566,430.432 238.232,429.099 238.5,427.5C 249.346,427.172 260.013,427.506 270.5,428.5 Z"/></g>
<g><path style="opacity:0.044" fill="#090909" d="M 270.5,428.5 C 271.833,429.5 271.833,430.5 270.5,431.5C 260.167,431.5 249.833,431.5 239.5,431.5C 239.5,430.5 239.5,429.5 239.5,428.5C 249.833,428.5 260.167,428.5 270.5,428.5 Z"/></g>
<g><path style="opacity:0.038" fill="#010101" d="M 281.5,427.5 C 291.333,428.821 301.167,428.821 311,427.5C 312.188,428.563 312.688,429.897 312.5,431.5C 301.833,431.5 291.167,431.5 280.5,431.5C 280.433,430.041 280.766,428.708 281.5,427.5 Z"/></g>
<g><path style="opacity:0.933" fill="#cdcdcd" d="M 198.5,428.5 C 198.5,429.5 198.5,430.5 198.5,431.5C 209.552,432.143 220.219,431.476 230.5,429.5C 233.125,430.458 233.125,431.624 230.5,433C 233.362,435.558 233.029,437.391 229.5,438.5C 231.111,436.167 230.611,434.5 228,433.5C 218.207,434.463 208.374,434.796 198.5,434.5C 197.427,432.347 197.427,430.347 198.5,428.5 Z"/></g>
<g><path style="opacity:0.933" fill="#c8c8c8" d="M 239.5,431.5 C 249.833,431.5 260.167,431.5 270.5,431.5C 270.557,432.609 270.89,433.609 271.5,434.5C 261.052,434.48 250.719,434.48 240.5,434.5C 240.167,434.5 239.833,434.5 239.5,434.5C 239.5,433.5 239.5,432.5 239.5,431.5 Z"/></g>
<g><path style="opacity:0.087" fill="#050505" d="M 271.5,434.5 C 271.67,435.822 271.337,436.989 270.5,438C 260.172,438.5 249.839,438.666 239.5,438.5C 239.5,437.167 239.5,435.833 239.5,434.5C 239.833,434.5 240.167,434.5 240.5,434.5C 250.719,434.48 261.052,434.48 271.5,434.5 Z M 240.5,434.5 C 240.281,435.675 240.614,436.675 241.5,437.5C 250.697,436.177 259.863,436.177 269,437.5C 270.814,436.149 270.481,435.149 268,434.5C 258.864,435.796 249.697,435.796 240.5,434.5 Z"/></g>
<g><path style="opacity:0.068" fill="#222222" d="M 281.5,433.5 C 291.506,433.334 301.506,433.5 311.5,434C 312.833,435.333 312.833,436.667 311.5,438C 301.5,438.667 291.5,438.667 281.5,438C 280.272,436.51 280.272,435.01 281.5,433.5 Z M 282.5,434.5 C 281.105,435.648 281.272,436.648 283,437.5C 291.556,436.374 291.389,435.374 282.5,434.5 Z M 309.5,434.5 C 308.048,435.302 306.382,435.802 304.5,436C 306.101,436.273 307.601,436.773 309,437.5C 310.546,436.497 310.713,435.497 309.5,434.5 Z"/></g>
<g><path style="opacity:0.064" fill="#0b0b0b" d="M 229.5,438.5 C 219.494,438.666 209.494,438.5 199.5,438C 198.663,436.989 198.33,435.822 198.5,434.5C 208.374,434.796 218.207,434.463 228,433.5C 230.611,434.5 231.111,436.167 229.5,438.5 Z M 227.5,434.5 C 225.031,435.317 222.365,435.817 219.5,436C 222.426,436.218 225.26,436.718 228,437.5C 229.927,436.238 229.76,435.238 227.5,434.5 Z M 199.5,436.5 C 200.117,436.611 200.617,436.944 201,437.5C 203.74,436.718 206.574,436.218 209.5,436C 205.973,435.192 202.64,435.359 199.5,436.5 Z"/></g>
<g><path style="opacity:0.296" fill="#c4c4c4" d="M 237.5,439.5 C 249.167,439.5 260.833,439.5 272.5,439.5C 272.5,441.167 272.5,442.833 272.5,444.5C 261.147,444.832 249.814,444.499 238.5,443.5C 237.754,442.264 237.421,440.93 237.5,439.5 Z"/></g>
<g><path style="opacity:0.032" fill="#000000" d="M 239.5,440.5 C 250.167,440.5 260.833,440.5 271.5,440.5C 271.5,441.5 271.5,442.5 271.5,443.5C 260.833,443.5 250.167,443.5 239.5,443.5C 239.5,442.5 239.5,441.5 239.5,440.5 Z"/></g>
<g><path style="opacity:0.373" fill="#c7c7c7" d="M 198.5,440.5 C 209.654,439.505 220.988,439.172 232.5,439.5C 232.579,440.93 232.246,442.264 231.5,443.5C 220.186,444.499 208.853,444.832 197.5,444.5C 197.232,442.901 197.566,441.568 198.5,440.5 Z"/></g>
<g><path style="opacity:0.038" fill="#000000" d="M 198.5,440.5 C 209.505,440.333 220.505,440.5 231.5,441C 231.043,441.414 230.709,441.914 230.5,442.5C 219.854,443.499 209.187,443.832 198.5,443.5C 198.5,442.5 198.5,441.5 198.5,440.5 Z"/></g>
<g><path style="opacity:0.376" fill="#c7c7c7" d="M 312.5,442.5 C 307.376,443.829 301.876,444.495 296,444.5C 290.5,444.167 285,443.833 279.5,443.5C 278.754,442.264 278.421,440.93 278.5,439.5C 290.167,439.5 301.833,439.5 313.5,439.5C 313.737,440.791 313.404,441.791 312.5,442.5 Z"/></g>
<g><path style="opacity:0.034" fill="#000000" d="M 312.5,442.5 C 312.167,442.5 311.833,442.5 311.5,442.5C 301.326,443.823 290.993,443.823 280.5,442.5C 280.291,441.914 279.957,441.414 279.5,441C 285,440.833 290.5,440.667 296,440.5C 301.876,440.505 307.376,441.171 312.5,442.5 Z"/></g>
<g><path style="opacity:0.055" fill="#333333" d="M 191.5,457.5 C 192.167,457.833 192.833,458.167 193.5,458.5C 194.5,458.833 195.167,459.5 195.5,460.5C 195.5,460.833 195.5,461.167 195.5,461.5C 192.5,461.833 191.167,460.5 191.5,457.5 Z"/></g>
<g><path style="opacity:0.055" fill="#323232" d="M 319.5,457.5 C 319.833,460.5 318.5,461.833 315.5,461.5C 315.5,461.167 315.5,460.833 315.5,460.5C 315.833,459.5 316.5,458.833 317.5,458.5C 318.167,458.167 318.833,457.833 319.5,457.5 Z"/></g>
<g><path style="opacity:0.349" fill="#c7c7c7" d="M 195.5,461.5 C 195.5,461.167 195.5,460.833 195.5,460.5C 235.5,460.5 275.5,460.5 315.5,460.5C 315.5,460.833 315.5,461.167 315.5,461.5C 315.5,462.167 315.167,462.5 314.5,462.5C 274.85,461.536 235.184,461.202 195.5,461.5 Z"/></g>
<g><path style="opacity:0.069" fill="#070707" d="M 195.5,461.5 C 235.184,461.202 274.85,461.536 314.5,462.5C 278.504,462.216 242.337,462.549 206,463.5C 202.833,463.333 199.667,463.167 196.5,463C 195.944,462.617 195.611,462.117 195.5,461.5 Z"/></g>
</svg>
