<?xml version="1.0" encoding="UTF-8"?>
<!DOCTYPE svg PUBLIC "-//W3C//DTD SVG 1.1//EN" "http://www.w3.org/Graphics/SVG/1.1/DTD/svg11.dtd">
<svg xmlns="http://www.w3.org/2000/svg" version="1.1" width="512px" height="512px" style="shape-rendering:geometricPrecision; text-rendering:geometricPrecision; image-rendering:optimizeQuality; fill-rule:evenodd; clip-rule:evenodd" xmlns:xlink="http://www.w3.org/1999/xlink">
<g><path style="opacity:0.999" fill="#f7f7f7" d="M 349.5,103.5 C 351.379,104.341 353.379,104.675 355.5,104.5C 356.016,105.758 355.35,106.758 353.5,107.5C 351.833,108.5 350.5,109.833 349.5,111.5C 342.202,118.297 335.035,125.297 328,132.5C 325.431,141.63 323.597,150.296 322.5,158.5C 321.527,160.292 322.194,161.625 324.5,162.5C 327.5,164.833 330.167,167.5 332.5,170.5C 333.833,172.5 335.5,174.167 337.5,175.5C 339.833,177.167 341.833,179.167 343.5,181.5C 345.167,183.833 347.167,185.833 349.5,187.5C 350.794,188.29 351.961,189.29 353,190.5C 354.699,189.594 356.533,189.261 358.5,189.5C 361.152,189.59 363.485,188.924 365.5,187.5C 369.783,186.376 374.116,185.376 378.5,184.5C 387.776,175.394 397.276,166.394 407,157.5C 407.278,158.416 407.778,159.082 408.5,159.5C 409.922,167.258 409.588,174.925 407.5,182.5C 406.596,183.209 406.263,184.209 406.5,185.5C 405.314,192.21 402.314,197.877 397.5,202.5C 394.781,204.219 392.781,206.553 391.5,209.5C 385.978,214.928 379.312,218.261 371.5,219.5C 369.901,219.232 368.568,219.566 367.5,220.5C 358.233,222.576 349.233,222.242 340.5,219.5C 339.791,218.596 338.791,218.263 337.5,218.5C 334.09,217.852 330.424,217.019 326.5,216C 312.299,230.369 297.965,244.535 283.5,258.5C 282.5,258.833 281.833,259.5 281.5,260.5C 278.833,263.833 275.833,266.833 272.5,269.5C 270.833,270.5 269.5,271.833 268.5,273.5C 266.167,276.5 263.5,279.167 260.5,281.5C 258.833,282.5 257.5,283.833 256.5,285.5C 254.167,288.5 251.5,291.167 248.5,293.5C 246.833,294.5 245.5,295.833 244.5,297.5C 242.5,300.167 240.167,302.5 237.5,304.5C 235.5,305.833 233.833,307.5 232.5,309.5C 230.5,312.167 228.167,314.5 225.5,316.5C 223.5,317.833 221.833,319.5 220.5,321.5C 218.856,323.481 217.19,325.481 215.5,327.5C 217.438,331.314 218.771,335.314 219.5,339.5C 219.232,341.099 219.566,342.432 220.5,343.5C 224.228,360.16 221.228,375.16 211.5,388.5C 210.167,388.5 209.5,389.167 209.5,390.5C 206.769,394.234 203.436,397.234 199.5,399.5C 197.973,399.427 196.973,400.094 196.5,401.5C 187.83,406.34 178.663,409.006 169,409.5C 164.22,408.74 159.72,407.907 155.5,407C 165,397.5 174.5,388 184,378.5C 186.024,370.214 187.857,361.881 189.5,353.5C 188.231,350.895 186.564,348.562 184.5,346.5C 183.5,344.833 182.167,343.5 180.5,342.5C 177.167,339.833 174.167,336.833 171.5,333.5C 171.167,332.5 170.5,331.833 169.5,331.5C 166.036,328.538 162.703,325.371 159.5,322C 158.5,321.833 157.5,321.667 156.5,321.5C 149.084,322.994 141.418,324.494 133.5,326C 124.298,335.369 114.965,344.536 105.5,353.5C 104.833,352.833 104.167,352.167 103.5,351.5C 102.776,349.782 102.109,347.948 101.5,346C 102.242,340.869 102.909,335.703 103.5,330.5C 104.404,329.791 104.737,328.791 104.5,327.5C 104.5,327.167 104.5,326.833 104.5,326.5C 105.404,325.791 105.737,324.791 105.5,323.5C 107.651,316.523 111.318,310.523 116.5,305.5C 117.833,304.833 118.833,303.833 119.5,302.5C 120.262,300.738 121.596,299.738 123.5,299.5C 124.5,299.167 125.167,298.5 125.5,297.5C 125.833,297.5 126.167,297.5 126.5,297.5C 127.5,297.167 128.167,296.5 128.5,295.5C 130.509,293.935 132.843,292.935 135.5,292.5C 136.791,292.737 137.791,292.404 138.5,291.5C 141.136,290.881 143.636,289.881 146,288.5C 151.99,288.608 157.99,288.608 164,288.5C 170.599,290.533 177.099,292.867 183.5,295.5C 186.712,295.288 188.712,293.621 189.5,290.5C 191.833,288.5 194.167,286.5 196.5,284.5C 198.833,282.833 200.833,280.833 202.5,278.5C 204.167,276.167 206.167,274.167 208.5,272.5C 210.5,271.167 212.167,269.5 213.5,267.5C 215.5,264.833 217.833,262.5 220.5,260.5C 222.5,259.167 224.167,257.5 225.5,255.5C 229.527,250.806 233.86,246.473 238.5,242.5C 240.5,241.167 242.167,239.5 243.5,237.5C 245.5,234.833 247.833,232.5 250.5,230.5C 252.5,229.167 254.167,227.5 255.5,225.5C 257.5,222.833 259.833,220.5 262.5,218.5C 264.5,217.167 266.167,215.5 267.5,213.5C 269.167,211.167 271.167,209.167 273.5,207.5C 275.833,205.833 277.833,203.833 279.5,201.5C 281.167,199.167 283.167,197.167 285.5,195.5C 288.526,192.805 291.526,190.138 294.5,187.5C 295.29,186.206 296.29,185.039 297.5,184C 294.161,178.654 291.994,172.82 291,166.5C 289.072,158.658 289.239,150.992 291.5,143.5C 292.434,142.432 292.768,141.099 292.5,139.5C 293.594,134.742 295.594,130.409 298.5,126.5C 299.906,126.027 300.573,125.027 300.5,123.5C 300.5,123.167 300.5,122.833 300.5,122.5C 301.833,121.833 302.833,120.833 303.5,119.5C 304.167,118.167 305.167,117.167 306.5,116.5C 308.749,115.92 310.415,114.587 311.5,112.5C 313.027,112.573 314.027,111.906 314.5,110.5C 315.492,110.672 316.158,110.338 316.5,109.5C 326.9,103.231 337.9,101.231 349.5,103.5 Z"/></g>
<g><path style="opacity:1" fill="#8d8d8d" d="M 349.5,103.5 C 351.598,102.516 353.598,102.849 355.5,104.5C 353.379,104.675 351.379,104.341 349.5,103.5 Z"/></g>
<g><path style="opacity:0.21" fill="#000000" d="M 353.5,107.5 C 353.167,109.833 351.833,111.167 349.5,111.5C 350.5,109.833 351.833,108.5 353.5,107.5 Z"/></g>
<g><path style="opacity:0.424" fill="#2d2d2d" d="M 316.5,109.5 C 316.158,110.338 315.492,110.672 314.5,110.5C 314.409,108.302 315.075,107.969 316.5,109.5 Z"/></g>
<g><path style="opacity:0.173" fill="#545454" d="M 314.5,110.5 C 314.027,111.906 313.027,112.573 311.5,112.5C 311.821,110.952 312.821,110.285 314.5,110.5 Z"/></g>
<g><path style="opacity:1" fill="#888888" d="M 311.5,112.5 C 310.415,114.587 308.749,115.92 306.5,116.5C 307.585,114.413 309.251,113.08 311.5,112.5 Z"/></g>
<g><path style="opacity:0.204" fill="#282828" d="M 303.5,119.5 C 302.833,120.833 301.833,121.833 300.5,122.5C 300.5,120.5 301.5,119.5 303.5,119.5 Z"/></g>
<g><path style="opacity:1" fill="#6f6f6f" d="M 300.5,123.5 C 300.573,125.027 299.906,126.027 298.5,126.5C 298.427,124.973 299.094,123.973 300.5,123.5 Z"/></g>
<g><path style="opacity:0.298" fill="#696969" d="M 292.5,139.5 C 292.768,141.099 292.434,142.432 291.5,143.5C 289.922,141.625 290.255,140.292 292.5,139.5 Z"/></g>
<g><path style="opacity:0.148" fill="#2f2f2f" d="M 408.5,159.5 C 407.778,159.082 407.278,158.416 407,157.5C 397.276,166.394 387.776,175.394 378.5,184.5C 378.369,183.761 378.536,183.094 379,182.5C 387.833,173.667 396.667,164.833 405.5,156C 406.448,155.517 407.448,155.351 408.5,155.5C 408.5,156.833 408.5,158.167 408.5,159.5 Z"/></g>
<g><path style="opacity:1" fill="#272727" d="M 322.5,158.5 C 323.6,159.605 324.267,160.938 324.5,162.5C 322.194,161.625 321.527,160.292 322.5,158.5 Z"/></g>
<g><path style="opacity:0.004" fill="#232323" d="M 332.5,170.5 C 335.5,170.833 337.167,172.5 337.5,175.5C 335.5,174.167 333.833,172.5 332.5,170.5 Z"/></g>
<g><path style="opacity:0.004" fill="#323232" d="M 343.5,181.5 C 347.167,181.833 349.167,183.833 349.5,187.5C 347.167,185.833 345.167,183.833 343.5,181.5 Z"/></g>
<g><path style="opacity:0.486" fill="#6d6d6d" d="M 407.5,182.5 C 408.815,183.895 408.481,184.895 406.5,185.5C 406.263,184.209 406.596,183.209 407.5,182.5 Z"/></g>
<g><path style="opacity:1" fill="#858585" d="M 365.5,187.5 C 363.485,188.924 361.152,189.59 358.5,189.5C 360.515,188.076 362.848,187.41 365.5,187.5 Z"/></g>
<g><path style="opacity:0.226" fill="#1e1e1e" d="M 294.5,187.5 C 291.526,190.138 288.526,192.805 285.5,195.5C 287.233,191.435 290.233,188.768 294.5,187.5 Z"/></g>
<g><path style="opacity:0.486" fill="#040404" d="M 279.5,201.5 C 277.833,203.833 275.833,205.833 273.5,207.5C 274.5,204.5 276.5,202.5 279.5,201.5 Z"/></g>
<g><path style="opacity:0.137" fill="#383838" d="M 397.5,202.5 C 396.946,206.055 394.946,208.388 391.5,209.5C 392.781,206.553 394.781,204.219 397.5,202.5 Z"/></g>
<g><path style="opacity:0.529" fill="#191919" d="M 267.5,213.5 C 266.167,215.5 264.5,217.167 262.5,218.5C 263.167,215.833 264.833,214.167 267.5,213.5 Z"/></g>
<g><path style="opacity:0.486" fill="#565656" d="M 337.5,218.5 C 338.791,218.263 339.791,218.596 340.5,219.5C 339.105,220.815 338.105,220.481 337.5,218.5 Z"/></g>
<g><path style="opacity:1" fill="#4e4e4e" d="M 367.5,220.5 C 368.568,219.566 369.901,219.232 371.5,219.5C 370.708,221.745 369.375,222.078 367.5,220.5 Z"/></g>
<g><path style="opacity:0.573" fill="#3a3a3a" d="M 255.5,225.5 C 254.167,227.5 252.5,229.167 250.5,230.5C 251.167,227.833 252.833,226.167 255.5,225.5 Z"/></g>
<g><path style="opacity:0.584" fill="#6a6a6a" d="M 243.5,237.5 C 242.167,239.5 240.5,241.167 238.5,242.5C 239.167,239.833 240.833,238.167 243.5,237.5 Z"/></g>
<g><path style="opacity:0.021" fill="#1e1e1e" d="M 225.5,255.5 C 224.167,257.5 222.5,259.167 220.5,260.5C 220.833,257.5 222.5,255.833 225.5,255.5 Z"/></g>
<g><path style="opacity:0.004" fill="#1a1a1a" d="M 283.5,258.5 C 283.5,259.833 282.833,260.5 281.5,260.5C 281.833,259.5 282.5,258.833 283.5,258.5 Z"/></g>
<g><path style="opacity:0.043" fill="#262626" d="M 213.5,267.5 C 212.167,269.5 210.5,271.167 208.5,272.5C 208.5,269.167 210.167,267.5 213.5,267.5 Z"/></g>
<g><path style="opacity:0.004" fill="#1b1b1b" d="M 272.5,269.5 C 272.167,271.833 270.833,273.167 268.5,273.5C 269.5,271.833 270.833,270.5 272.5,269.5 Z"/></g>
<g><path style="opacity:0.059" fill="#353535" d="M 202.5,278.5 C 200.833,280.833 198.833,282.833 196.5,284.5C 196.795,280.871 198.795,278.871 202.5,278.5 Z"/></g>
<g><path style="opacity:0.004" fill="#1b1b1b" d="M 260.5,281.5 C 260.167,283.833 258.833,285.167 256.5,285.5C 257.5,283.833 258.833,282.5 260.5,281.5 Z"/></g>
<g><path style="opacity:0.467" fill="#464646" d="M 138.5,291.5 C 137.791,292.404 136.791,292.737 135.5,292.5C 136.105,290.519 137.105,290.185 138.5,291.5 Z"/></g>
<g><path style="opacity:0.078" fill="#545454" d="M 189.5,290.5 C 188.712,293.621 186.712,295.288 183.5,295.5C 184.911,293.086 186.911,291.419 189.5,290.5 Z"/></g>
<g><path style="opacity:0.545" fill="#252525" d="M 128.5,295.5 C 128.167,296.5 127.5,297.167 126.5,297.5C 126.5,296.167 127.167,295.5 128.5,295.5 Z"/></g>
<g><path style="opacity:0.004" fill="#191919" d="M 248.5,293.5 C 248.167,295.833 246.833,297.167 244.5,297.5C 245.5,295.833 246.833,294.5 248.5,293.5 Z"/></g>
<g><path style="opacity:0.765" fill="#383838" d="M 125.5,297.5 C 125.167,298.5 124.5,299.167 123.5,299.5C 123.5,298.167 124.167,297.5 125.5,297.5 Z"/></g>
<g><path style="opacity:0.049" fill="#1f1f1f" d="M 119.5,302.5 C 118.833,303.833 117.833,304.833 116.5,305.5C 115.488,303.9 115.988,302.566 118,301.5C 118.383,302.056 118.883,302.389 119.5,302.5 Z"/></g>
<g><path style="opacity:0.004" fill="#1a1a1a" d="M 237.5,304.5 C 236.833,307.167 235.167,308.833 232.5,309.5C 233.833,307.5 235.5,305.833 237.5,304.5 Z"/></g>
<g><path style="opacity:0.004" fill="#1a1a1a" d="M 225.5,316.5 C 224.833,319.167 223.167,320.833 220.5,321.5C 221.833,319.5 223.5,317.833 225.5,316.5 Z"/></g>
<g><path style="opacity:0.376" fill="#535353" d="M 105.5,323.5 C 105.737,324.791 105.404,325.791 104.5,326.5C 103.185,325.105 103.519,324.105 105.5,323.5 Z"/></g>
<g><path style="opacity:0.494" fill="#595959" d="M 104.5,327.5 C 104.737,328.791 104.404,329.791 103.5,330.5C 102.185,329.105 102.519,328.105 104.5,327.5 Z"/></g>
<g><path style="opacity:0.477" fill="#000000" d="M 169.5,331.5 C 170.5,331.833 171.167,332.5 171.5,333.5C 170.167,333.5 169.5,332.833 169.5,331.5 Z"/></g>
<g><path style="opacity:0.4" fill="#535353" d="M 219.5,339.5 C 221.745,340.292 222.078,341.625 220.5,343.5C 219.566,342.432 219.232,341.099 219.5,339.5 Z"/></g>
<g><path style="opacity:0.377" fill="#000000" d="M 180.5,342.5 C 182.167,343.5 183.5,344.833 184.5,346.5C 182.167,346.167 180.833,344.833 180.5,342.5 Z"/></g>
<g><path style="opacity:0.514" fill="#6f6f6f" d="M 103.5,351.5 C 104.167,352.167 104.833,352.833 105.5,353.5C 104.749,354.573 103.749,354.74 102.5,354C 103.252,353.329 103.586,352.496 103.5,351.5 Z"/></g>
<g><path style="opacity:0.271" fill="#474747" d="M 211.5,388.5 C 211.938,388.435 212.272,388.601 212.5,389C 211.756,390.039 210.756,390.539 209.5,390.5C 209.5,389.167 210.167,388.5 211.5,388.5 Z"/></g>
<g><path style="opacity:0.216" fill="#323232" d="M 199.5,399.5 C 199.179,401.048 198.179,401.715 196.5,401.5C 196.973,400.094 197.973,399.427 199.5,399.5 Z"/></g>
</svg>
