<?xml version="1.0" encoding="UTF-8"?>
<!DOCTYPE svg PUBLIC "-//W3C//DTD SVG 1.1//EN" "http://www.w3.org/Graphics/SVG/1.1/DTD/svg11.dtd">
<svg xmlns="http://www.w3.org/2000/svg" version="1.1" width="1024px" height="1024px" style="shape-rendering:geometricPrecision; text-rendering:geometricPrecision; image-rendering:optimizeQuality; fill-rule:evenodd; clip-rule:evenodd" xmlns:xlink="http://www.w3.org/1999/xlink">
<g><path style="opacity:0.963" fill="#fefffe" d="M 579.5,179.5 C 581.655,179.372 583.655,179.872 585.5,181C 671.333,265.5 756.5,350.667 841,436.5C 842.301,438.365 842.635,440.365 842,442.5C 756.698,527.802 671.531,612.969 586.5,698C 584.029,698.706 581.695,698.373 579.5,697C 553.981,676.072 525.647,660.072 494.5,649C 490.167,648.333 485.833,648.333 481.5,649C 442.453,696.925 403.286,744.759 364,792.5C 353.466,804.701 341.966,815.868 329.5,826C 290.761,850.812 252.427,850.145 214.5,824C 184.337,798.451 172.504,765.951 179,726.5C 183.43,710.639 190.763,696.306 201,683.5C 205.167,679.333 209.333,675.167 213.5,671C 266.376,627.122 319.543,583.622 373,540.5C 372.114,534.482 370.78,528.482 369,522.5C 361.34,503.188 352.34,484.521 342,466.5C 335.708,456.751 329.542,446.918 323.5,437C 408.511,351.155 493.844,265.321 579.5,179.5 Z M 605.5,305.5 C 619.551,303.72 626.551,309.886 626.5,324C 626.026,333.011 624.526,341.844 622,350.5C 617.594,365.548 612.26,380.215 606,394.5C 600.802,407.846 602.135,420.513 610,432.5C 617.18,442.114 626.68,445.28 638.5,442C 650.618,438.305 662.618,434.305 674.5,430C 703.874,424.51 714.707,436.344 707,465.5C 703.398,475.715 700.064,486.048 697,496.5C 696.378,502.295 696.711,507.962 698,513.5C 685.594,526.409 672.76,538.742 659.5,550.5C 596.57,489.071 534.07,427.071 472,364.5C 471.333,363.167 471.333,361.833 472,360.5C 480.833,351.667 489.667,342.833 498.5,334C 502.042,333.82 505.042,335.153 507.5,338C 511.764,338.371 515.931,339.204 520,340.5C 534.709,338.698 548.542,334.198 561.5,327C 575.02,317.406 589.687,310.24 605.5,305.5 Z M 431.5,400.5 C 433.308,400.491 434.975,400.991 436.5,402C 498,463.5 559.5,525 621,586.5C 621.667,587.833 621.667,589.167 621,590.5C 607.321,605.512 592.988,619.846 578,633.5C 556.694,619.19 533.86,608.023 509.5,600C 504.047,599.637 498.714,598.637 493.5,597C 479.818,595.672 466.818,598.005 454.5,604C 451.061,606.139 447.894,608.639 445,611.5C 399.951,669.214 353.451,725.714 305.5,781C 284.478,797.663 263.478,797.663 242.5,781C 222.591,755.97 224.258,732.303 247.5,710C 302.419,663.744 357.919,618.244 414,573.5C 417.186,569.127 419.853,564.46 422,559.5C 424.974,542.961 423.974,526.627 419,510.5C 410.966,487.354 400.466,465.521 387.5,445C 401.7,429.634 416.367,414.8 431.5,400.5 Z"/></g>
<g><path style="opacity:0.914" fill="#fefffe" d="M 273.5,714.5 C 293.442,713.438 305.108,722.772 308.5,742.5C 304.57,762.26 292.57,771.093 272.5,769C 257.059,762.623 250.559,751.123 253,734.5C 255.355,728.157 259.189,722.991 264.5,719C 267.648,717.576 270.648,716.076 273.5,714.5 Z"/></g>
</svg>
