<?xml version="1.0" encoding="UTF-8"?>
<!DOCTYPE svg PUBLIC "-//W3C//DTD SVG 1.1//EN" "http://www.w3.org/Graphics/SVG/1.1/DTD/svg11.dtd">
<svg xmlns="http://www.w3.org/2000/svg" version="1.1" width="1024px" height="1024px" style="shape-rendering:geometricPrecision; text-rendering:geometricPrecision; image-rendering:optimizeQuality; fill-rule:evenodd; clip-rule:evenodd" xmlns:xlink="http://www.w3.org/1999/xlink">
<g><path style="opacity:0.974" fill="#fefffe" d="M 553.5,272.5 C 563.866,271.606 573.866,273.106 583.5,277C 591.841,277.378 600.174,277.878 608.5,278.5C 627.791,276.567 647.124,276.067 666.5,277C 670.759,278.295 675.092,279.295 679.5,280C 732.5,280.333 785.5,280.667 838.5,281C 840.676,281.163 842.509,281.996 844,283.5C 845.212,290.087 845.879,296.754 846,303.5C 846.5,304 847,304.5 847.5,305C 852.584,305.173 857.584,305.839 862.5,307C 863.667,308.167 864.833,309.333 866,310.5C 867.621,326.433 867.954,342.433 867,358.5C 865.872,361.085 865.039,363.752 864.5,366.5C 865.634,370.481 867.467,374.148 870,377.5C 872.411,384.731 874.411,392.064 876,399.5C 876.333,423.167 876.667,446.833 877,470.5C 879.906,473.037 883.073,475.204 886.5,477C 893.37,484.441 896.37,493.274 895.5,503.5C 896.332,525.83 885.666,537.997 863.5,540C 857.977,545.663 853.977,552.163 851.5,559.5C 851.151,562.971 852.484,565.471 855.5,567C 871.5,567.333 887.5,567.667 903.5,568C 904.333,568.833 905.167,569.667 906,570.5C 906.521,579.936 906.854,589.269 907,598.5C 908.667,600.833 910.333,603.167 912,605.5C 911.801,611.979 914.801,616.312 921,618.5C 921.862,620.087 922.529,621.754 923,623.5C 923.667,640.833 923.667,658.167 923,675.5C 921.192,680.089 917.859,683.089 913,684.5C 912.667,687.167 912.333,689.833 912,692.5C 910.333,694.833 908.667,697.167 907,699.5C 906.949,709.266 906.282,718.933 905,728.5C 904.25,729.126 903.416,729.626 902.5,730C 886.833,730.333 871.167,730.667 855.5,731C 854.069,731.465 852.903,732.299 852,733.5C 851.727,735.329 850.893,736.829 849.5,738C 846.268,739.23 843.601,741.23 841.5,744C 756.5,744.333 671.5,744.667 586.5,745C 582.705,747.233 578.705,748.9 574.5,750C 563.167,750.333 551.833,750.667 540.5,751C 523.108,756.76 505.774,756.76 488.5,751C 475.801,750.821 463.135,750.155 450.5,749C 447.865,747.689 445.531,746.022 443.5,744C 387.5,743.667 331.5,743.333 275.5,743C 273.392,742.64 271.392,741.973 269.5,741C 268.272,738.86 266.605,737.193 264.5,736C 254.167,735.667 243.833,735.333 233.5,735C 228.781,732.944 223.781,731.778 218.5,731.5C 215.75,732.402 213.083,733.569 210.5,735C 187.833,735.667 165.167,735.667 142.5,735C 140.131,734.464 138.131,733.297 136.5,731.5C 136.025,728.278 135.025,725.278 133.5,722.5C 131.664,723.919 129.664,725.086 127.5,726C 120.48,726.393 113.48,726.059 106.5,725C 105.667,724.167 104.833,723.333 104,722.5C 102.245,681.171 102.245,639.838 104,598.5C 104.833,597.667 105.667,596.833 106.5,596C 112.723,594.419 119.056,594.085 125.5,595C 128.539,595.353 131.205,596.52 133.5,598.5C 134.086,598.291 134.586,597.957 135,597.5C 134.561,590.611 137.728,586.778 144.5,586C 167.157,586.16 189.824,586.494 212.5,587C 214.274,587.97 216.107,588.804 218,589.5C 232.325,586.969 246.825,585.803 261.5,586C 262.931,585.535 264.097,584.701 265,583.5C 265.983,554.747 265.65,526.08 264,497.5C 262.457,495.622 260.624,494.122 258.5,493C 253.453,492.662 248.453,491.995 243.5,491C 240.283,488.274 236.95,485.774 233.5,483.5C 231.402,485.489 229.402,487.655 227.5,490C 219.167,490.667 210.833,490.667 202.5,490C 199.898,489.065 198.398,487.232 198,484.5C 197.333,443.5 197.333,402.5 198,361.5C 198.022,340.078 198.689,318.745 200,297.5C 201.319,295.513 203.152,294.346 205.5,294C 213.911,293.095 222.245,293.428 230.5,295C 231.63,297.428 233.13,299.595 235,301.5C 242.407,293.678 251.574,289.845 262.5,290C 265.614,286.94 268.114,283.44 270,279.5C 271.491,277.996 273.324,277.163 275.5,277C 360.126,277.503 444.793,277.503 529.5,277C 537.419,274.331 545.419,272.831 553.5,272.5 Z M 877.5,495.5 C 878.496,495.414 879.329,495.748 880,496.5C 881.942,502.515 881.942,508.515 880,514.5C 877.462,518.479 875.628,518.145 874.5,513.5C 875.504,507.452 876.504,501.452 877.5,495.5 Z"/></g>
</svg>
