<?xml version="1.0" encoding="UTF-8"?>
<!DOCTYPE svg PUBLIC "-//W3C//DTD SVG 1.1//EN" "http://www.w3.org/Graphics/SVG/1.1/DTD/svg11.dtd">
<svg xmlns="http://www.w3.org/2000/svg" version="1.1" width="1024px" height="1024px" style="shape-rendering:geometricPrecision; text-rendering:geometricPrecision; image-rendering:optimizeQuality; fill-rule:evenodd; clip-rule:evenodd" xmlns:xlink="http://www.w3.org/1999/xlink">
<g><path style="opacity:0.919" fill="#fefffe" d="M 374.5,234.5 C 404.668,234.704 434.335,238.537 463.5,246C 487.199,253.848 508.532,265.848 527.5,282C 537.086,287.912 546.419,294.245 555.5,301C 567.583,311.076 580.249,320.41 593.5,329C 614.727,335.042 635.727,341.709 656.5,349C 657.5,350 658.5,351 659.5,352C 682.139,362.268 704.139,373.935 725.5,387C 734.333,394.5 743.167,402 752,409.5C 756.321,414.485 759.821,419.985 762.5,426C 769.094,427.857 774.927,431.023 780,435.5C 781.586,437.67 782.92,440.004 784,442.5C 784.627,446.846 785.794,451.012 787.5,455C 796.913,456.015 806.246,457.682 815.5,460C 822.986,463.386 830.653,466.386 838.5,469C 840.017,471.204 841.35,473.538 842.5,476C 858.935,479.395 875.268,483.061 891.5,487C 892.977,489.148 894.977,490.482 897.5,491C 902.284,496.579 903.784,503.079 902,510.5C 898.168,525.004 888.835,533.004 874,534.5C 862.612,533.445 851.445,531.278 840.5,528C 837.814,525.454 836.814,522.287 837.5,518.5C 833.82,517.428 830.153,517.428 826.5,518.5C 811.948,513.813 798.115,507.479 785,499.5C 780.44,508.965 772.774,513.965 762,514.5C 758.958,514.635 756.125,513.969 753.5,512.5C 748.697,515.471 744.03,518.638 739.5,522C 722.744,528.239 705.411,530.239 687.5,528C 671.917,526.086 656.584,523.086 641.5,519C 628.042,518.366 614.708,518.533 601.5,519.5C 591.508,518.061 581.841,515.561 572.5,512C 546.717,499.949 522.384,485.616 499.5,469C 488.032,459.199 477.199,448.699 467,437.5C 453.783,413.403 439.783,389.737 425,366.5C 419.92,362.091 415.586,357.091 412,351.5C 402.566,344.069 393.732,335.902 385.5,327C 379.938,324.035 374.605,320.701 369.5,317C 365.489,315.665 361.489,314.331 357.5,313C 339.81,309.05 322.144,304.883 304.5,300.5C 289.876,305.983 275.209,311.15 260.5,316C 245.45,317.128 230.783,320.128 216.5,325C 209.756,327.539 203.422,330.872 197.5,335C 183.065,348.089 170.898,362.922 161,379.5C 153.007,398.474 149.507,418.307 150.5,439C 150.667,447.5 150.833,456 151,464.5C 152.74,471.415 154.073,478.415 155,485.5C 159.301,499.401 164.968,512.734 172,525.5C 179.667,535.167 187.333,544.833 195,554.5C 202.5,562 210,569.5 217.5,577C 238.629,581.142 258.629,588.142 277.5,598C 291.811,606.825 305.811,616.159 319.5,626C 326.596,631.092 333.096,636.926 339,643.5C 340.167,645.833 341.333,648.167 342.5,650.5C 345.401,651.313 348.234,652.313 351,653.5C 365.847,644.992 381.681,638.825 398.5,635C 497.715,614.322 598.382,602.322 700.5,599C 711.824,597.999 723.157,596.832 734.5,595.5C 737.54,595.417 740.373,596.084 743,597.5C 751.722,596.044 760.555,595.211 769.5,595C 779.07,580.269 791.403,577.602 806.5,587C 812.663,593.841 817.163,601.675 820,610.5C 824.091,614.305 828.924,615.472 834.5,614C 849.524,609.675 864.858,607.175 880.5,606.5C 884.33,608.312 888.33,608.812 892.5,608C 894.954,605.219 897.954,603.219 901.5,602C 906.042,601.254 910.542,601.421 915,602.5C 923.216,600.542 931.549,599.209 940,598.5C 955.371,601.088 957.205,607.588 945.5,618C 941.268,619.95 936.934,621.617 932.5,623C 917.099,625.675 901.766,628.675 886.5,632C 884.959,633.579 883.792,635.413 883,637.5C 879.5,640.333 876,643.167 872.5,646C 860.857,651.075 848.857,654.908 836.5,657.5C 838.264,664.085 839.597,670.751 840.5,677.5C 840.558,688.951 835.225,696.784 824.5,701C 811.228,703.527 800.895,699.194 793.5,688C 775.849,686.44 758.516,687.607 741.5,691.5C 738.528,691.844 736.194,690.844 734.5,688.5C 725.667,688.167 716.833,687.833 708,687.5C 683.812,688.463 659.646,688.463 635.5,687.5C 632.382,688.405 629.215,689.071 626,689.5C 606.503,686.891 587.003,686.891 567.5,689.5C 563.334,689.659 559.334,688.992 555.5,687.5C 547.904,688.908 540.238,689.575 532.5,689.5C 518.219,688.074 503.886,687.407 489.5,687.5C 470.716,688.559 451.883,689.559 433,690.5C 421.81,689.578 410.644,688.411 399.5,687C 398.213,685.214 396.713,685.047 395,686.5C 386.952,684.524 378.785,683.524 370.5,683.5C 370.944,689.431 368.278,693.265 362.5,695C 358.833,695.333 355.167,695.667 351.5,696C 332.196,710.194 317.03,706.694 306,685.5C 302.766,682.985 299.433,680.651 296,678.5C 292.706,672.747 289.54,666.913 286.5,661C 267.912,650.353 251.579,636.853 237.5,620.5C 220.732,614.283 204.065,607.783 187.5,601C 148.749,580.568 122.582,549.401 109,507.5C 106,495.169 103,482.836 100,470.5C 99.0921,461.356 98.5921,452.19 98.5,443C 99.7348,427.868 100.568,412.702 101,397.5C 104.246,383.936 108.246,370.603 113,357.5C 122.347,340.801 131.681,324.135 141,307.5C 145.264,303.178 149.431,298.678 153.5,294C 169.146,284.011 185.48,275.344 202.5,268C 257.903,247.073 315.236,235.906 374.5,234.5 Z M 337.5,257.5 C 351.232,257.822 364.899,258.989 378.5,261C 391.574,263.748 404.574,266.748 417.5,270C 436.609,281.725 456.276,292.725 476.5,303C 490.208,307.035 502.208,314.035 512.5,324C 515.5,325.667 518.5,327.333 521.5,329C 539.108,333.68 556.774,337.346 574.5,340C 598.006,351.252 621.672,362.252 645.5,373C 658.203,380.338 670.87,387.672 683.5,395C 700.271,410.77 716.771,426.937 733,443.5C 734.022,445.702 734.522,448.035 734.5,450.5C 733.66,456.193 732.66,461.859 731.5,467.5C 724.255,471.932 716.922,476.099 709.5,480C 701.918,482.625 694.251,484.959 686.5,487C 673.35,493.726 659.85,499.893 646,505.5C 635.03,501.288 624.53,496.121 614.5,490C 581.801,466.303 552.634,438.803 527,407.5C 512.159,391.993 496.659,377.16 480.5,363C 454.7,342.431 426.7,325.431 396.5,312C 386.692,308.631 376.692,305.631 366.5,303C 357.197,298.183 347.53,294.183 337.5,291C 327.5,290.667 317.5,290.333 307.5,290C 289.445,285.206 271.112,281.873 252.5,280C 256.266,276.969 260.266,274.302 264.5,272C 288.097,262.845 312.43,258.011 337.5,257.5 Z M 764.5,440.5 C 767.263,440.744 769.429,442.077 771,444.5C 771.375,447 772.208,449.333 773.5,451.5C 772.239,454.264 770.405,456.597 768,458.5C 767.333,467.5 767.333,476.5 768,485.5C 773.23,491.58 772.064,495.913 764.5,498.5C 763.5,498.167 762.5,497.833 761.5,497.5C 765.455,485.357 765.455,473.191 761.5,461C 762.321,454.093 763.321,447.259 764.5,440.5 Z M 839.5,489.5 C 856.103,492.401 872.436,496.401 888.5,501.5C 888.399,519.079 879.733,525.579 862.5,521C 856.595,517.147 850.595,513.48 844.5,510C 841.343,508.422 838.009,507.422 834.5,507C 826.334,501.063 817.667,496.063 808.5,492C 812.308,492.665 816.141,493.499 820,494.5C 826.563,492.656 833.063,490.989 839.5,489.5 Z M 224.5,595.5 C 224.56,594.957 224.893,594.624 225.5,594.5C 227.295,596.703 229.629,597.869 232.5,598C 241.296,604.789 250.63,610.789 260.5,616C 246.681,612.584 234.681,605.751 224.5,595.5 Z M 801.5,602.5 C 804.389,606.598 806.722,611.098 808.5,616C 805.882,623.277 806.049,630.444 809,637.5C 811.766,642.901 813.766,648.568 815,654.5C 822.362,659.857 826.362,667.19 827,676.5C 827.046,686.093 822.213,689.927 812.5,688C 808.259,687.233 807.759,685.733 811,683.5C 811.167,682 811.333,680.5 811.5,679C 806.438,653.734 803.105,628.234 801.5,602.5 Z"/></g>
<g><path style="opacity:0.004" fill="#fefffe" d="M 291.5,344.5 C 292.833,345.167 292.833,345.167 291.5,344.5 Z"/></g>
<g><path style="opacity:0.027" fill="#fefffe" d="M 203.5,352.5 C 205.76,353.238 205.927,354.238 204,355.5C 202.272,354.648 202.105,353.648 203.5,352.5 Z"/></g>
<g><path style="opacity:0.009" fill="#fefffe" d="M 830.5,596.5 C 832.337,596.639 832.67,597.306 831.5,598.5C 830.702,598.043 830.369,597.376 830.5,596.5 Z"/></g>
<g><path style="opacity:0.022" fill="#fefffe" d="M 824.5,603.5 C 826.337,603.639 826.67,604.306 825.5,605.5C 824.702,605.043 824.369,604.376 824.5,603.5 Z"/></g>
</svg>
