<?xml version="1.0" encoding="UTF-8"?>
<!DOCTYPE svg PUBLIC "-//W3C//DTD SVG 1.1//EN" "http://www.w3.org/Graphics/SVG/1.1/DTD/svg11.dtd">
<svg xmlns="http://www.w3.org/2000/svg" version="1.1" width="512px" height="512px" style="shape-rendering:geometricPrecision; text-rendering:geometricPrecision; image-rendering:optimizeQuality; fill-rule:evenodd; clip-rule:evenodd" xmlns:xlink="http://www.w3.org/1999/xlink">
<g><path style="opacity:1" fill="#fdfdfd" d="M 451.5,28.5 C 455.851,30.009 459.185,32.8424 461.5,37C 456.724,42.0375 452.058,47.2042 447.5,52.5C 446.675,53.3857 445.675,53.719 444.5,53.5C 425.052,73.4486 405.385,93.282 385.5,113C 387.432,113.138 389.266,112.638 391,111.5C 393.055,112.672 393.722,114.339 393,116.5C 391.614,119.534 389.781,122.2 387.5,124.5C 385.972,123.139 384.305,121.972 382.5,121C 378.99,121.007 377.99,122.674 379.5,126C 378.274,128.527 376.608,130.694 374.5,132.5C 373.52,135.086 373.187,137.753 373.5,140.5C 370.955,140.151 368.955,140.984 367.5,143C 369.908,146.043 370.074,149.209 368,152.5C 346.518,173.984 325.685,196.151 305.5,219C 302.47,222.124 299.304,222.291 296,219.5C 292.961,221.944 290.628,224.944 289,228.5C 286.843,226.282 284.343,225.115 281.5,225C 285.903,228.004 287.236,232.004 285.5,237C 285.625,238.627 286.125,240.127 287,241.5C 291.163,244.83 294.996,248.496 298.5,252.5C 300.045,253.452 301.712,253.785 303.5,253.5C 303.337,255.857 303.503,258.19 304,260.5C 319.889,273.335 336.889,284.335 355,293.5C 355.658,297.546 354.325,300.879 351,303.5C 346.941,311.95 342.608,320.284 338,328.5C 336.087,330.187 333.92,330.687 331.5,330C 320.131,323.596 308.797,317.096 297.5,310.5C 290.715,305.76 284.215,300.76 278,295.5C 276.177,296.651 274.344,297.818 272.5,299C 264.691,306.477 257.191,314.311 250,322.5C 248.692,324.134 247.858,325.968 247.5,328C 248.322,330.472 248.989,332.972 249.5,335.5C 251.971,335.233 253.638,336.233 254.5,338.5C 253.575,340.236 252.908,342.07 252.5,344C 253.92,350.182 255.42,356.348 257,362.5C 258.586,365.849 260.752,368.682 263.5,371C 255.768,376.695 247.768,382.028 239.5,387C 237.35,388.411 235.016,389.245 232.5,389.5C 229.048,371.508 225.548,353.508 222,335.5C 218.674,324.585 211.84,321.418 201.5,326C 199.946,327.892 198.112,329.392 196,330.5C 192.401,328.571 189.067,326.237 186,323.5C 184.97,325.776 183.47,326.443 181.5,325.5C 177.703,331.43 173.203,336.763 168,341.5C 166.601,344.363 165.601,347.363 165,350.5C 159.167,356.333 153.333,362.167 147.5,368C 148.747,369.494 148.747,370.994 147.5,372.5C 142.848,376.651 138.348,380.985 134,385.5C 133.333,386.5 133.333,387.5 134,388.5C 137.293,391.632 140.46,394.799 143.5,398C 141.385,401.118 138.885,403.952 136,406.5C 135.376,408.464 135.876,410.131 137.5,411.5C 136.25,416.32 133.75,417.32 130,414.5C 129.05,415.022 128.216,415.689 127.5,416.5C 124.761,425.346 122.761,434.346 121.5,443.5C 117.991,443.629 115.158,442.296 113,439.5C 111.517,442.702 111.183,446.036 112,449.5C 113.513,459.23 115.346,468.897 117.5,478.5C 117.658,480.319 116.991,481.652 115.5,482.5C 105.177,477.003 95.5102,470.503 86.5,463C 75.2817,452.777 64.115,442.61 53,432.5C 52.1667,430.833 51.3333,429.167 50.5,427.5C 53.1085,424.856 56.1085,422.689 59.5,421C 81.4574,398.879 103.124,376.712 124.5,354.5C 126.451,352.378 128.785,350.878 131.5,350C 143.47,337.029 155.804,324.362 168.5,312C 168.167,311.667 167.833,311.333 167.5,311C 170.422,307.908 172.755,304.408 174.5,300.5C 172.661,298.162 170.661,295.996 168.5,294C 170.392,291.382 172.726,289.216 175.5,287.5C 173.356,283.379 171.356,279.212 169.5,275C 170.022,274.439 170.355,273.772 170.5,273C 168.995,270.161 166.828,267.995 164,266.5C 163.672,263.793 164.005,261.126 165,258.5C 186.42,241.812 207.587,223.979 228.5,205C 233.833,201 239.167,197 244.5,193C 246.788,192.582 248.788,193.249 250.5,195C 255.398,200.592 260.731,205.258 266.5,209C 266.833,208.667 267.167,208.333 267.5,208C 265.668,206.511 264.835,204.678 265,202.5C 267.748,200.542 270.582,198.709 273.5,197C 271.163,195.202 270.497,193.035 271.5,190.5C 294.938,167.807 318.272,144.974 341.5,122C 343.432,121.862 345.266,122.362 347,123.5C 347.333,123.167 347.667,122.833 348,122.5C 346.443,111.073 344.943,99.573 343.5,88C 343.599,82.6279 346.266,80.6279 351.5,82C 359.542,89.3789 367.542,96.7122 375.5,104C 376.908,104.315 378.241,103.982 379.5,103C 386.327,95.8403 393.494,89.0069 401,82.5C 418.416,64.9216 435.249,46.9216 451.5,28.5 Z M 350.5,95.5 C 353.351,96.3231 356.018,97.6565 358.5,99.5C 362.798,98.4051 365.798,100.072 367.5,104.5C 364.321,108.178 360.988,111.678 357.5,115C 355.655,116.128 353.655,116.628 351.5,116.5C 350.372,109.462 350.039,102.462 350.5,95.5 Z M 241.5,200.5 C 243.429,200.231 245.095,200.731 246.5,202C 244.884,205.751 244.051,209.584 244,213.5C 229.312,227.255 215.312,241.589 202,256.5C 200.174,254.926 198.007,254.093 195.5,254C 193.916,250.267 194.75,247.101 198,244.5C 212.6,229.822 227.1,215.156 241.5,200.5 Z M 187.5,263.5 C 188.995,263.415 189.995,264.081 190.5,265.5C 188.604,266.639 187.604,265.973 187.5,263.5 Z M 174.5,275.5 C 174.897,274.475 175.563,274.308 176.5,275C 178.547,277.054 178.547,278.054 176.5,278C 175.934,277.005 175.267,276.172 174.5,275.5 Z M 255.5,285.5 C 258.518,285.335 261.518,285.502 264.5,286C 267.336,288.993 269.336,292.493 270.5,296.5C 265.184,302.65 259.684,308.65 254,314.5C 248.046,315.191 243.38,312.858 240,307.5C 238.894,304.008 239.894,301.342 243,299.5C 247.15,305.745 252.65,307.411 259.5,304.5C 254.949,304.607 251.116,302.607 248,298.5C 247.202,296.741 247.369,295.074 248.5,293.5C 251.2,291.135 253.533,288.468 255.5,285.5 Z M 92.5,428.5 C 94.6859,428.511 95.5192,429.511 95,431.5C 89.6667,436.167 84.6667,441.167 80,446.5C 78.6346,445.407 78.3013,444.074 79,442.5C 83.7033,437.965 88.2033,433.298 92.5,428.5 Z"/></g>
<g><path style="opacity:0.161" fill="#9d9e9d" d="M 445.5,30.5 C 446.833,31.1667 446.833,31.1667 445.5,30.5 Z"/></g>
</svg>
