<?xml version="1.0" encoding="UTF-8"?>
<!DOCTYPE svg PUBLIC "-//W3C//DTD SVG 1.1//EN" "http://www.w3.org/Graphics/SVG/1.1/DTD/svg11.dtd">
<svg xmlns="http://www.w3.org/2000/svg" version="1.1" width="1024px" height="1024px" style="shape-rendering:geometricPrecision; text-rendering:geometricPrecision; image-rendering:optimizeQuality; fill-rule:evenodd; clip-rule:evenodd" xmlns:xlink="http://www.w3.org/1999/xlink">
<g><path style="opacity:0.993" fill="#fefffe" d="M 477.5,209.5 C 498.503,209.333 519.503,209.5 540.5,210C 550.519,211.202 560.519,212.535 570.5,214C 578.314,216.102 581.814,221.268 581,229.5C 581.667,237.167 581.667,244.833 581,252.5C 577.979,254.574 574.645,255.907 571,256.5C 570.667,263.5 570.333,270.5 570,277.5C 568.385,279.011 568.385,280.344 570,281.5C 570.221,288.37 570.721,295.203 571.5,302C 570.505,306.331 568.005,309.498 564,311.5C 562.434,322.343 562.434,333.343 564,344.5C 565.333,345.833 566.667,347.167 568,348.5C 568.333,353.5 568.667,358.5 569,363.5C 572.73,364.915 576.563,366.082 580.5,367C 583.918,368.908 585.584,371.908 585.5,376C 584.423,383.141 584.256,390.307 585,397.5C 586.815,399.405 588.815,401.072 591,402.5C 591.5,404.5 592,406.5 592.5,408.5C 591.38,418.806 591.214,429.139 592,439.5C 593,440.5 594,441.5 595,442.5C 595.499,448.491 595.666,454.491 595.5,460.5C 591.243,459.597 588.743,461.264 588,465.5C 587.454,468.899 587.787,472.232 589,475.5C 589.75,476.126 590.584,476.626 591.5,477C 612.167,477.333 632.833,477.667 653.5,478C 656.726,479.198 659.559,481.031 662,483.5C 663.006,486.845 664.506,489.845 666.5,492.5C 667.308,492.192 667.975,491.692 668.5,491C 676.511,490.657 684.511,490.157 692.5,489.5C 694.429,489.54 696.262,489.873 698,490.5C 703.237,484.739 709.737,482.905 717.5,485C 718.416,485.374 719.25,485.874 720,486.5C 721.439,484.725 722.439,482.725 723,480.5C 723.903,479.299 725.069,478.465 726.5,478C 733.608,477.076 740.608,477.409 747.5,479C 753.481,494.238 756.648,510.072 757,526.5C 761.881,524.582 764.881,526.249 766,531.5C 766.839,538.567 766.506,545.567 765,552.5C 764.024,554.887 762.191,556.054 759.5,556C 760.022,556.561 760.355,557.228 760.5,558C 757.623,570.625 753.956,582.958 749.5,595C 750.891,597.838 750.391,600.338 748,602.5C 747.505,604.473 747.338,606.473 747.5,608.5C 740.053,608.071 732.719,608.571 725.5,610C 724.773,611.399 724.273,612.899 724,614.5C 720.213,616.451 717.713,619.451 716.5,623.5C 714.242,624.418 711.909,625.085 709.5,625.5C 704.916,623.893 700.583,624.393 696.5,627C 697.833,634 697.833,641 696.5,648C 689.833,648.333 683.167,648.667 676.5,649C 676,649.5 675.5,650 675,650.5C 674.333,654.833 674.333,659.167 675,663.5C 675.5,664 676,664.5 676.5,665C 681.601,665.288 686.601,666.122 691.5,667.5C 692.087,669.273 692.42,671.106 692.5,673C 691.159,678.051 690.326,683.218 690,688.5C 686.821,691.006 683.321,692.839 679.5,694C 682.667,696.5 685.833,699 689,701.5C 689.667,704.167 689.667,706.833 689,709.5C 684.607,711.951 680.441,714.784 676.5,718C 682.61,722.476 688.443,727.309 694,732.5C 696.442,736.615 698.442,740.948 700,745.5C 706.572,775.267 711.739,805.267 715.5,835.5C 713.473,835.662 711.473,835.495 709.5,835C 696.167,820.333 682.167,806.333 667.5,793C 644.671,776.083 619.671,763.083 592.5,754C 578.503,749.545 564.67,744.712 551,739.5C 550.333,737.833 550.333,736.167 551,734.5C 557.026,728.24 563.86,723.073 571.5,719C 567.726,715.029 563.226,712.195 558,710.5C 557.248,707.106 557.415,703.773 558.5,700.5C 561.975,698.192 565.308,695.692 568.5,693C 564.232,692.104 560.232,690.604 556.5,688.5C 556.05,683.144 554.55,678.144 552,673.5C 551.104,670.975 551.604,668.808 553.5,667C 559.252,666.289 564.918,665.289 570.5,664C 571.629,659.921 571.796,655.755 571,651.5C 570.5,651 570,650.5 569.5,650C 562.875,648.955 556.208,648.289 549.5,648C 549,647.5 548.5,647 548,646.5C 547.648,640.156 547.814,633.99 548.5,628C 547.833,627.333 547.167,626.667 546.5,626C 526.309,625.711 506.142,625.545 486,625.5C 483.648,625.305 481.648,625.972 480,627.5C 479.667,634.167 479.333,640.833 479,647.5C 472.581,648.313 466.081,648.813 459.5,649C 458.584,649.374 457.75,649.874 457,650.5C 456.333,654.5 456.333,658.5 457,662.5C 457.5,663 458,663.5 458.5,664C 463.745,664.633 468.912,665.467 474,666.5C 474.555,673.723 473.555,680.723 471,687.5C 467.454,689.681 463.62,691.181 459.5,692C 462.939,694.139 466.106,696.639 469,699.5C 472.018,707.62 469.185,712.453 460.5,714C 459.313,715.019 458.313,716.186 457.5,717.5C 463.455,722.284 469.289,727.284 475,732.5C 476.59,734.65 477.257,736.983 477,739.5C 474.489,741.563 471.656,743.063 468.5,744C 428.062,755.72 391.062,774.053 357.5,799C 344.466,810.367 332.466,822.7 321.5,836C 319.866,836.494 318.199,836.66 316.5,836.5C 317.961,808.183 321.795,780.183 328,752.5C 329.92,745.329 332.92,738.662 337,732.5C 342.342,727.99 347.508,723.323 352.5,718.5C 348.386,714.706 344.22,711.039 340,707.5C 339.294,705.029 339.627,702.695 341,700.5C 344.016,697.651 346.85,694.651 349.5,691.5C 345.726,690.353 342.226,688.686 339,686.5C 337.071,679.381 336.237,672.048 336.5,664.5C 341.913,664.771 347.246,664.271 352.5,663C 353.629,658.921 353.796,654.755 353,650.5C 352.5,650 352,649.5 351.5,649C 344.488,648.566 337.488,648.066 330.5,647.5C 330.572,640.219 330.239,632.886 329.5,625.5C 322.883,624.704 316.217,624.204 309.5,624C 305.333,618.5 301.167,613 297,607.5C 296.28,605.888 296.446,604.388 297.5,603C 296.874,602.25 296.374,601.416 296,600.5C 292.138,598.995 288.138,597.995 284,597.5C 283.333,593.167 283.333,588.833 284,584.5C 286.781,581.848 289.947,581.181 293.5,582.5C 296.264,579.667 299.431,577.333 303,575.5C 302.587,561.553 304.253,547.887 308,534.5C 308.833,533.667 309.667,532.833 310.5,532C 307.016,530.868 303.349,530.368 299.5,530.5C 291.146,530.979 282.813,531.646 274.5,532.5C 274.432,523.387 274.099,514.387 273.5,505.5C 272.781,494.378 277.781,490.044 288.5,492.5C 289.608,496.112 290.942,499.612 292.5,503C 297.833,503.667 303.167,503.667 308.5,503C 310.652,500.576 311.985,497.743 312.5,494.5C 316.795,493.339 321.129,493.172 325.5,494C 326.998,496.482 328.498,498.982 330,501.5C 330.988,498.576 331.654,495.576 332,492.5C 332.465,491.069 333.299,489.903 334.5,489C 343.167,488.667 351.833,488.333 360.5,488C 364.761,483.757 366.595,478.59 366,472.5C 367.067,471.809 368.234,471.309 369.5,471C 381.5,470.333 393.5,470.333 405.5,471C 406.5,471.333 407.5,471.667 408.5,472C 409.453,473.955 410.787,475.622 412.5,477C 420.167,477.667 427.833,477.667 435.5,477C 436,476.5 436.5,476 437,475.5C 437.667,471.167 437.667,466.833 437,462.5C 434.865,460.722 432.365,460.055 429.5,460.5C 429.334,454.824 429.501,449.157 430,443.5C 431,442.5 432,441.5 433,440.5C 433.333,427.833 433.667,415.167 434,402.5C 436.172,401.415 438.172,400.081 440,398.5C 440.333,389.167 440.667,379.833 441,370.5C 441.5,368.667 442.667,367.5 444.5,367C 448.601,366.411 452.434,365.245 456,363.5C 456.333,358.833 456.667,354.167 457,349.5C 458.29,347.208 459.957,345.208 462,343.5C 462.667,332.833 462.667,322.167 462,311.5C 459.815,310.072 457.815,308.405 456,306.5C 455.224,297.804 455.39,289.138 456.5,280.5C 455.726,272.195 455.226,263.861 455,255.5C 454.5,255 454,254.5 453.5,254C 450.574,253.782 447.74,253.282 445,252.5C 443.876,241.034 444.543,229.7 447,218.5C 450.137,216.014 453.637,214.181 457.5,213C 464.302,211.789 470.968,210.623 477.5,209.5 Z"/></g>
</svg>
